<?xml version="1.0" encoding="UTF-8" standalone="no"?>
<!DOCTYPE svg PUBLIC "-//W3C//DTD SVG 1.1//EN"
 "http://www.w3.org/Graphics/SVG/1.1/DTD/svg11.dtd">
<!-- Generated by graphviz version 5.0.0 (20220707.1540)
 -->
<!-- Title: dependencies Pages: 1 -->
<svg width="656pt" height="247pt"
 viewBox="0.00 0.00 656.00 246.80" xmlns="http://www.w3.org/2000/svg" xmlns:xlink="http://www.w3.org/1999/xlink">
<g id="graph0" class="graph" transform="scale(1 1) rotate(0) translate(4 242.8)">
<title>dependencies</title>
<polygon fill="white" stroke="transparent" points="-4,4 -4,-242.8 652,-242.8 652,4 -4,4"/>
<text text-anchor="middle" x="324" y="-8.2" font-family="sans-serif" font-size="14.00">dependencies</text>
<g id="clust1" class="cluster">
<title>cluster_EntityFormModule</title>
<polygon fill="none" stroke="black" stroke-dasharray="1,5" points="8,-32.8 8,-230.8 640,-230.8 640,-32.8 8,-32.8"/>
</g>
<g id="clust4" class="cluster">
<title>cluster_EntityFormModule_imports</title>
<polygon fill="none" stroke="black" points="380,-40.8 380,-92.8 632,-92.8 632,-40.8 380,-40.8"/>
</g>
<g id="clust5" class="cluster">
<title>cluster_EntityFormModule_exports</title>
<polygon fill="none" stroke="black" points="279,-170.8 279,-222.8 445,-222.8 445,-170.8 279,-170.8"/>
</g>
<g id="clust2" class="cluster">
<title>cluster_EntityFormModule_declarations</title>
<polygon fill="none" stroke="black" points="210,-40.8 210,-92.8 372,-92.8 372,-40.8 210,-40.8"/>
</g>
<g id="clust7" class="cluster">
<title>cluster_EntityFormModule_providers</title>
<polygon fill="none" stroke="black" points="16,-40.8 16,-92.8 202,-92.8 202,-40.8 16,-40.8"/>
</g>
<!-- EntityFormComponent -->
<g id="node1" class="node">
<title>EntityFormComponent</title>
<polygon fill="#ffffb3" stroke="black" points="363.89,-84.8 218.11,-84.8 218.11,-48.8 363.89,-48.8 363.89,-84.8"/>
<text text-anchor="middle" x="291" y="-62.6" font-family="Times,serif" font-size="14.00">EntityFormComponent</text>
</g>
<!-- EntityFormModule -->
<g id="node2" class="node">
<title>EntityFormModule</title>
<polygon fill="#8dd3c7" stroke="black" points="424.11,-149.8 421.11,-153.8 400.11,-153.8 397.11,-149.8 299.89,-149.8 299.89,-113.8 424.11,-113.8 424.11,-149.8"/>
<text text-anchor="middle" x="362" y="-127.6" font-family="Times,serif" font-size="14.00">EntityFormModule</text>
</g>
<!-- EntityFormComponent&#45;&gt;EntityFormModule -->
<g id="edge1" class="edge">
<title>EntityFormComponent&#45;&gt;EntityFormModule</title>
<path fill="none" stroke="black" d="M331.94,-84.91C331.94,-84.91 331.94,-103.79 331.94,-103.79"/>
<polygon fill="black" stroke="black" points="328.44,-103.79 331.94,-113.79 335.44,-103.79 328.44,-103.79"/>
</g>
<!-- EntityFormComponent  -->
<g id="node5" class="node">
<title>EntityFormComponent </title>
<polygon fill="#fb8072" stroke="black" points="436.89,-214.8 287.11,-214.8 287.11,-178.8 436.89,-178.8 436.89,-214.8"/>
<text text-anchor="middle" x="362" y="-192.6" font-family="Times,serif" font-size="14.00">EntityFormComponent </text>
</g>
<!-- EntityFormModule&#45;&gt;EntityFormComponent  -->
<g id="edge4" class="edge">
<title>EntityFormModule&#45;&gt;EntityFormComponent </title>
<path fill="none" stroke="black" stroke-dasharray="5,2" d="M362,-149.91C362,-149.91 362,-168.79 362,-168.79"/>
<polygon fill="black" stroke="black" points="358.5,-168.79 362,-178.79 365.5,-168.79 358.5,-168.79"/>
</g>
<!-- PermissionsModule -->
<g id="node3" class="node">
<title>PermissionsModule</title>
<polygon fill="#8dd3c7" stroke="black" points="623.73,-84.8 620.73,-88.8 599.73,-88.8 596.73,-84.8 496.27,-84.8 496.27,-48.8 623.73,-48.8 623.73,-84.8"/>
<text text-anchor="middle" x="560" y="-62.6" font-family="Times,serif" font-size="14.00">PermissionsModule</text>
</g>
<!-- PermissionsModule&#45;&gt;EntityFormModule -->
<g id="edge2" class="edge">
<title>PermissionsModule&#45;&gt;EntityFormModule</title>
<path fill="none" stroke="black" d="M560,-84.91C560,-104.14 560,-131.8 560,-131.8 560,-131.8 434.11,-131.8 434.11,-131.8"/>
<polygon fill="black" stroke="black" points="434.11,-128.3 424.11,-131.8 434.11,-135.3 434.11,-128.3"/>
</g>
<!-- ViewModule -->
<g id="node4" class="node">
<title>ViewModule</title>
<polygon fill="#8dd3c7" stroke="black" points="477.88,-84.8 474.88,-88.8 453.88,-88.8 450.88,-84.8 388.12,-84.8 388.12,-48.8 477.88,-48.8 477.88,-84.8"/>
<text text-anchor="middle" x="433" y="-62.6" font-family="Times,serif" font-size="14.00">ViewModule</text>
</g>
<!-- ViewModule&#45;&gt;EntityFormModule -->
<g id="edge3" class="edge">
<title>ViewModule&#45;&gt;EntityFormModule</title>
<path fill="none" stroke="black" d="M406.06,-84.91C406.06,-84.91 406.06,-103.79 406.06,-103.79"/>
<polygon fill="black" stroke="black" points="402.56,-103.79 406.06,-113.79 409.56,-103.79 402.56,-103.79"/>
</g>
<!-- EntityFormService -->
<g id="node6" class="node">
<title>EntityFormService</title>
<ellipse fill="#fdb462" stroke="black" cx="109" cy="-66.8" rx="84.55" ry="18"/>
<text text-anchor="middle" x="109" y="-62.6" font-family="Times,serif" font-size="14.00">EntityFormService</text>
</g>
<!-- EntityFormService&#45;&gt;EntityFormModule -->
<g id="edge5" class="edge">
<title>EntityFormService&#45;&gt;EntityFormModule</title>
<path fill="none" stroke="black" d="M109,-84.91C109,-104.14 109,-131.8 109,-131.8 109,-131.8 289.79,-131.8 289.79,-131.8"/>
<polygon fill="black" stroke="black" points="289.79,-135.3 299.79,-131.8 289.79,-128.3 289.79,-135.3"/>
</g>
</g>
</svg>
