<?xml version="1.0" encoding="UTF-8" standalone="no"?>
<!DOCTYPE svg PUBLIC "-//W3C//DTD SVG 1.1//EN"
 "http://www.w3.org/Graphics/SVG/1.1/DTD/svg11.dtd">
<!-- Generated by graphviz version 5.0.0 (20220707.1540)
 -->
<!-- Title: dependencies Pages: 1 -->
<svg width="538pt" height="247pt"
 viewBox="0.00 0.00 538.00 246.80" xmlns="http://www.w3.org/2000/svg" xmlns:xlink="http://www.w3.org/1999/xlink">
<g id="graph0" class="graph" transform="scale(1 1) rotate(0) translate(4 242.8)">
<title>dependencies</title>
<polygon fill="white" stroke="transparent" points="-4,4 -4,-242.8 534,-242.8 534,4 -4,4"/>
<text text-anchor="middle" x="265" y="-8.2" font-family="sans-serif" font-size="14.00">dependencies</text>
<g id="clust1" class="cluster">
<title>cluster_DashboardShortcutWidgetModule</title>
<polygon fill="none" stroke="black" stroke-dasharray="1,5" points="8,-32.8 8,-230.8 522,-230.8 522,-32.8 8,-32.8"/>
</g>
<g id="clust5" class="cluster">
<title>cluster_DashboardShortcutWidgetModule_exports</title>
<polygon fill="none" stroke="black" points="198,-170.8 198,-222.8 448,-222.8 448,-170.8 198,-170.8"/>
</g>
<g id="clust4" class="cluster">
<title>cluster_DashboardShortcutWidgetModule_imports</title>
<polygon fill="none" stroke="black" points="270,-40.8 270,-92.8 514,-92.8 514,-40.8 270,-40.8"/>
</g>
<g id="clust2" class="cluster">
<title>cluster_DashboardShortcutWidgetModule_declarations</title>
<polygon fill="none" stroke="black" points="16,-40.8 16,-92.8 262,-92.8 262,-40.8 16,-40.8"/>
</g>
<!-- DashboardShortcutWidgetComponent -->
<g id="node1" class="node">
<title>DashboardShortcutWidgetComponent</title>
<polygon fill="#ffffb3" stroke="black" points="254.13,-84.8 23.87,-84.8 23.87,-48.8 254.13,-48.8 254.13,-84.8"/>
<text text-anchor="middle" x="139" y="-62.6" font-family="Times,serif" font-size="14.00">DashboardShortcutWidgetComponent</text>
</g>
<!-- DashboardShortcutWidgetModule -->
<g id="node2" class="node">
<title>DashboardShortcutWidgetModule</title>
<polygon fill="#8dd3c7" stroke="black" points="427.35,-149.8 424.35,-153.8 403.35,-153.8 400.35,-149.8 218.65,-149.8 218.65,-113.8 427.35,-113.8 427.35,-149.8"/>
<text text-anchor="middle" x="323" y="-127.6" font-family="Times,serif" font-size="14.00">DashboardShortcutWidgetModule</text>
</g>
<!-- DashboardShortcutWidgetComponent&#45;&gt;DashboardShortcutWidgetModule -->
<g id="edge1" class="edge">
<title>DashboardShortcutWidgetComponent&#45;&gt;DashboardShortcutWidgetModule</title>
<path fill="none" stroke="black" d="M236.44,-84.91C236.44,-84.91 236.44,-103.79 236.44,-103.79"/>
<polygon fill="black" stroke="black" points="232.94,-103.79 236.44,-113.79 239.94,-103.79 232.94,-103.79"/>
</g>
<!-- DashboardShortcutWidgetComponent  -->
<g id="node5" class="node">
<title>DashboardShortcutWidgetComponent </title>
<polygon fill="#fb8072" stroke="black" points="440.13,-214.8 205.87,-214.8 205.87,-178.8 440.13,-178.8 440.13,-214.8"/>
<text text-anchor="middle" x="323" y="-192.6" font-family="Times,serif" font-size="14.00">DashboardShortcutWidgetComponent </text>
</g>
<!-- DashboardShortcutWidgetModule&#45;&gt;DashboardShortcutWidgetComponent  -->
<g id="edge4" class="edge">
<title>DashboardShortcutWidgetModule&#45;&gt;DashboardShortcutWidgetComponent </title>
<path fill="none" stroke="black" stroke-dasharray="5,2" d="M323,-149.91C323,-149.91 323,-168.79 323,-168.79"/>
<polygon fill="black" stroke="black" points="319.5,-168.79 323,-178.79 326.5,-168.79 319.5,-168.79"/>
</g>
<!-- DashboardModule -->
<g id="node3" class="node">
<title>DashboardModule</title>
<polygon fill="#8dd3c7" stroke="black" points="506.2,-84.8 503.2,-88.8 482.2,-88.8 479.2,-84.8 385.8,-84.8 385.8,-48.8 506.2,-48.8 506.2,-84.8"/>
<text text-anchor="middle" x="446" y="-62.6" font-family="Times,serif" font-size="14.00">DashboardModule</text>
</g>
<!-- DashboardModule&#45;&gt;DashboardShortcutWidgetModule -->
<g id="edge2" class="edge">
<title>DashboardModule&#45;&gt;DashboardShortcutWidgetModule</title>
<path fill="none" stroke="black" d="M406.66,-84.91C406.66,-84.91 406.66,-103.79 406.66,-103.79"/>
<polygon fill="black" stroke="black" points="403.16,-103.79 406.66,-113.79 410.16,-103.79 403.16,-103.79"/>
</g>
<!-- ViewModule -->
<g id="node4" class="node">
<title>ViewModule</title>
<polygon fill="#8dd3c7" stroke="black" points="367.88,-84.8 364.88,-88.8 343.88,-88.8 340.88,-84.8 278.12,-84.8 278.12,-48.8 367.88,-48.8 367.88,-84.8"/>
<text text-anchor="middle" x="323" y="-62.6" font-family="Times,serif" font-size="14.00">ViewModule</text>
</g>
<!-- ViewModule&#45;&gt;DashboardShortcutWidgetModule -->
<g id="edge3" class="edge">
<title>ViewModule&#45;&gt;DashboardShortcutWidgetModule</title>
<path fill="none" stroke="black" d="M323,-84.91C323,-84.91 323,-103.79 323,-103.79"/>
<polygon fill="black" stroke="black" points="319.5,-103.79 323,-113.79 326.5,-103.79 319.5,-103.79"/>
</g>
</g>
</svg>
