<?xml version="1.0" encoding="UTF-8" standalone="no"?>
<!DOCTYPE svg PUBLIC "-//W3C//DTD SVG 1.1//EN"
 "http://www.w3.org/Graphics/SVG/1.1/DTD/svg11.dtd">
<!-- Generated by graphviz version 5.0.0 (20220707.1540)
 -->
<!-- Title: dependencies Pages: 1 -->
<svg width="1010pt" height="174pt"
 viewBox="0.00 0.00 1010.00 173.80" xmlns="http://www.w3.org/2000/svg" xmlns:xlink="http://www.w3.org/1999/xlink">
<g id="graph0" class="graph" transform="scale(1 1) rotate(0) translate(4 169.8)">
<title>dependencies</title>
<polygon fill="white" stroke="transparent" points="-4,4 -4,-169.8 1006,-169.8 1006,4 -4,4"/>
<text text-anchor="middle" x="501" y="-8.2" font-family="sans-serif" font-size="14.00">dependencies</text>
<g id="clust1" class="cluster">
<title>cluster_DatabaseTestingModule</title>
<polygon fill="none" stroke="black" stroke-dasharray="1,5" points="8,-32.8 8,-157.8 994,-157.8 994,-32.8 8,-32.8"/>
</g>
<g id="clust6" class="cluster">
<title>cluster_DatabaseTestingModule_providers</title>
<polygon fill="none" stroke="black" points="16,-40.8 16,-92.8 986,-92.8 986,-40.8 16,-40.8"/>
</g>
<!-- DatabaseIndexingService -->
<g id="node1" class="node">
<title>DatabaseIndexingService</title>
<ellipse fill="#fdb462" stroke="black" cx="868" cy="-66.8" rx="109.92" ry="18"/>
<text text-anchor="middle" x="868" y="-62.6" font-family="Times,serif" font-size="14.00">DatabaseIndexingService</text>
</g>
<!-- DatabaseTestingModule -->
<g id="node6" class="node">
<title>DatabaseTestingModule</title>
<polygon fill="#8dd3c7" stroke="black" points="517.35,-149.8 514.35,-153.8 493.35,-153.8 490.35,-149.8 364.65,-149.8 364.65,-113.8 517.35,-113.8 517.35,-149.8"/>
<text text-anchor="middle" x="441" y="-127.6" font-family="Times,serif" font-size="14.00">DatabaseTestingModule</text>
</g>
<!-- DatabaseIndexingService&#45;&gt;DatabaseTestingModule -->
<g id="edge1" class="edge">
<title>DatabaseIndexingService&#45;&gt;DatabaseTestingModule</title>
<path fill="none" stroke="black" d="M868,-85.08C868,-106.12 868,-137.8 868,-137.8 868,-137.8 527.83,-137.8 527.83,-137.8"/>
<polygon fill="black" stroke="black" points="527.83,-134.3 517.83,-137.8 527.83,-141.3 527.83,-134.3"/>
</g>
<!-- EntityMapperService -->
<g id="node2" class="node">
<title>EntityMapperService</title>
<ellipse fill="#fdb462" stroke="black" cx="647" cy="-66.8" rx="93.76" ry="18"/>
<text text-anchor="middle" x="647" y="-62.6" font-family="Times,serif" font-size="14.00">EntityMapperService</text>
</g>
<!-- EntityMapperService&#45;&gt;DatabaseTestingModule -->
<g id="edge2" class="edge">
<title>EntityMapperService&#45;&gt;DatabaseTestingModule</title>
<path fill="none" stroke="black" d="M647,-84.82C647,-102.17 647,-125.8 647,-125.8 647,-125.8 527.41,-125.8 527.41,-125.8"/>
<polygon fill="black" stroke="black" points="527.41,-122.3 517.41,-125.8 527.41,-129.3 527.41,-122.3"/>
</g>
<!-- EntitySchemaService -->
<g id="node3" class="node">
<title>EntitySchemaService</title>
<ellipse fill="#fdb462" stroke="black" cx="441" cy="-66.8" rx="94.33" ry="18"/>
<text text-anchor="middle" x="441" y="-62.6" font-family="Times,serif" font-size="14.00">EntitySchemaService</text>
</g>
<!-- EntitySchemaService&#45;&gt;DatabaseTestingModule -->
<g id="edge3" class="edge">
<title>EntitySchemaService&#45;&gt;DatabaseTestingModule</title>
<path fill="none" stroke="black" d="M441,-84.91C441,-84.91 441,-103.79 441,-103.79"/>
<polygon fill="black" stroke="black" points="437.5,-103.79 441,-113.79 444.5,-103.79 437.5,-103.79"/>
</g>
<!-- LoggingService -->
<g id="node4" class="node">
<title>LoggingService</title>
<ellipse fill="#fdb462" stroke="black" cx="256" cy="-66.8" rx="72.94" ry="18"/>
<text text-anchor="middle" x="256" y="-62.6" font-family="Times,serif" font-size="14.00">LoggingService</text>
</g>
<!-- LoggingService&#45;&gt;DatabaseTestingModule -->
<g id="edge4" class="edge">
<title>LoggingService&#45;&gt;DatabaseTestingModule</title>
<path fill="none" stroke="black" d="M256,-84.82C256,-102.17 256,-125.8 256,-125.8 256,-125.8 354.42,-125.8 354.42,-125.8"/>
<polygon fill="black" stroke="black" points="354.42,-129.3 364.42,-125.8 354.42,-122.3 354.42,-129.3"/>
</g>
<!-- PouchDatabase -->
<g id="node5" class="node">
<title>PouchDatabase</title>
<ellipse fill="#fdb462" stroke="black" cx="95" cy="-66.8" rx="70.63" ry="18"/>
<text text-anchor="middle" x="95" y="-62.6" font-family="Times,serif" font-size="14.00">PouchDatabase</text>
</g>
<!-- PouchDatabase&#45;&gt;DatabaseTestingModule -->
<g id="edge5" class="edge">
<title>PouchDatabase&#45;&gt;DatabaseTestingModule</title>
<path fill="none" stroke="black" d="M95,-85.08C95,-106.12 95,-137.8 95,-137.8 95,-137.8 354.64,-137.8 354.64,-137.8"/>
<polygon fill="black" stroke="black" points="354.64,-141.3 364.64,-137.8 354.64,-134.3 354.64,-141.3"/>
</g>
</g>
</svg>
