<?xml version="1.0" encoding="UTF-8" standalone="no"?>
<!DOCTYPE svg PUBLIC "-//W3C//DTD SVG 1.1//EN"
 "http://www.w3.org/Graphics/SVG/1.1/DTD/svg11.dtd">
<!-- Generated by graphviz version 5.0.0 (20220707.1540)
 -->
<!-- Title: dependencies Pages: 1 -->
<svg width="310pt" height="247pt"
 viewBox="0.00 0.00 310.00 246.80" xmlns="http://www.w3.org/2000/svg" xmlns:xlink="http://www.w3.org/1999/xlink">
<g id="graph0" class="graph" transform="scale(1 1) rotate(0) translate(4 242.8)">
<title>dependencies</title>
<polygon fill="white" stroke="transparent" points="-4,4 -4,-242.8 306,-242.8 306,4 -4,4"/>
<text text-anchor="middle" x="151" y="-8.2" font-family="sans-serif" font-size="14.00">dependencies</text>
<g id="clust1" class="cluster">
<title>cluster_AlertsModule</title>
<polygon fill="none" stroke="black" stroke-dasharray="1,5" points="8,-32.8 8,-230.8 294,-230.8 294,-32.8 8,-32.8"/>
</g>
<g id="clust2" class="cluster">
<title>cluster_AlertsModule_declarations</title>
<polygon fill="none" stroke="black" points="160,-40.8 160,-92.8 286,-92.8 286,-40.8 160,-40.8"/>
</g>
<g id="clust7" class="cluster">
<title>cluster_AlertsModule_providers</title>
<polygon fill="none" stroke="black" points="16,-40.8 16,-92.8 152,-92.8 152,-40.8 16,-40.8"/>
</g>
<g id="clust5" class="cluster">
<title>cluster_AlertsModule_exports</title>
<polygon fill="none" stroke="black" points="87,-170.8 87,-222.8 217,-222.8 217,-170.8 87,-170.8"/>
</g>
<!-- AlertComponent -->
<g id="node1" class="node">
<title>AlertComponent</title>
<polygon fill="#ffffb3" stroke="black" points="278.1,-84.8 167.9,-84.8 167.9,-48.8 278.1,-48.8 278.1,-84.8"/>
<text text-anchor="middle" x="223" y="-62.6" font-family="Times,serif" font-size="14.00">AlertComponent</text>
</g>
<!-- AlertsModule -->
<g id="node2" class="node">
<title>AlertsModule</title>
<polygon fill="#8dd3c7" stroke="black" points="198.77,-149.8 195.77,-153.8 174.77,-153.8 171.77,-149.8 105.23,-149.8 105.23,-113.8 198.77,-113.8 198.77,-149.8"/>
<text text-anchor="middle" x="152" y="-127.6" font-family="Times,serif" font-size="14.00">AlertsModule</text>
</g>
<!-- AlertComponent&#45;&gt;AlertsModule -->
<g id="edge1" class="edge">
<title>AlertComponent&#45;&gt;AlertsModule</title>
<path fill="none" stroke="black" d="M183.42,-84.91C183.42,-84.91 183.42,-103.79 183.42,-103.79"/>
<polygon fill="black" stroke="black" points="179.92,-103.79 183.42,-113.79 186.92,-103.79 179.92,-103.79"/>
</g>
<!-- AlertComponent  -->
<g id="node3" class="node">
<title>AlertComponent </title>
<polygon fill="#fb8072" stroke="black" points="208.6,-214.8 95.4,-214.8 95.4,-178.8 208.6,-178.8 208.6,-214.8"/>
<text text-anchor="middle" x="152" y="-192.6" font-family="Times,serif" font-size="14.00">AlertComponent </text>
</g>
<!-- AlertsModule&#45;&gt;AlertComponent  -->
<g id="edge2" class="edge">
<title>AlertsModule&#45;&gt;AlertComponent </title>
<path fill="none" stroke="black" stroke-dasharray="5,2" d="M152,-149.91C152,-149.91 152,-168.79 152,-168.79"/>
<polygon fill="black" stroke="black" points="148.5,-168.79 152,-178.79 155.5,-168.79 148.5,-168.79"/>
</g>
<!-- AlertService -->
<g id="node4" class="node">
<title>AlertService</title>
<ellipse fill="#fdb462" stroke="black" cx="84" cy="-66.8" rx="59.67" ry="18"/>
<text text-anchor="middle" x="84" y="-62.6" font-family="Times,serif" font-size="14.00">AlertService</text>
</g>
<!-- AlertService&#45;&gt;AlertsModule -->
<g id="edge3" class="edge">
<title>AlertService&#45;&gt;AlertsModule</title>
<path fill="none" stroke="black" d="M124.48,-80.27C124.48,-80.27 124.48,-103.66 124.48,-103.66"/>
<polygon fill="black" stroke="black" points="120.98,-103.66 124.48,-113.66 127.98,-103.66 120.98,-103.66"/>
</g>
</g>
</svg>
