<?xml version="1.0" encoding="UTF-8" standalone="no"?>
<!DOCTYPE svg PUBLIC "-//W3C//DTD SVG 1.1//EN"
 "http://www.w3.org/Graphics/SVG/1.1/DTD/svg11.dtd">
<!-- Generated by graphviz version 5.0.0 (20220707.1540)
 -->
<!-- Title: dependencies Pages: 1 -->
<svg width="698pt" height="247pt"
 viewBox="0.00 0.00 698.00 246.80" xmlns="http://www.w3.org/2000/svg" xmlns:xlink="http://www.w3.org/1999/xlink">
<g id="graph0" class="graph" transform="scale(1 1) rotate(0) translate(4 242.8)">
<title>dependencies</title>
<polygon fill="white" stroke="transparent" points="-4,4 -4,-242.8 694,-242.8 694,4 -4,4"/>
<text text-anchor="middle" x="345" y="-8.2" font-family="sans-serif" font-size="14.00">dependencies</text>
<g id="clust1" class="cluster">
<title>cluster_DashboardModule</title>
<polygon fill="none" stroke="black" stroke-dasharray="1,5" points="8,-32.8 8,-230.8 682,-230.8 682,-32.8 8,-32.8"/>
</g>
<g id="clust7" class="cluster">
<title>cluster_DashboardModule_exports</title>
<polygon fill="none" stroke="black" points="147,-170.8 147,-222.8 538,-222.8 538,-170.8 147,-170.8"/>
</g>
<g id="clust6" class="cluster">
<title>cluster_DashboardModule_imports</title>
<polygon fill="none" stroke="black" points="568,-40.8 568,-92.8 674,-92.8 674,-40.8 568,-40.8"/>
</g>
<g id="clust2" class="cluster">
<title>cluster_DashboardModule_declarations</title>
<polygon fill="none" stroke="black" points="16,-40.8 16,-92.8 560,-92.8 560,-40.8 16,-40.8"/>
</g>
<!-- DashboardComponent -->
<g id="node1" class="node">
<title>DashboardComponent</title>
<polygon fill="#ffffb3" stroke="black" points="551.98,-84.8 410.02,-84.8 410.02,-48.8 551.98,-48.8 551.98,-84.8"/>
<text text-anchor="middle" x="481" y="-62.6" font-family="Times,serif" font-size="14.00">DashboardComponent</text>
</g>
<!-- DashboardModule -->
<g id="node4" class="node">
<title>DashboardModule</title>
<polygon fill="#8dd3c7" stroke="black" points="398.2,-149.8 395.2,-153.8 374.2,-153.8 371.2,-149.8 277.8,-149.8 277.8,-113.8 398.2,-113.8 398.2,-149.8"/>
<text text-anchor="middle" x="338" y="-127.6" font-family="Times,serif" font-size="14.00">DashboardModule</text>
</g>
<!-- DashboardComponent&#45;&gt;DashboardModule -->
<g id="edge1" class="edge">
<title>DashboardComponent&#45;&gt;DashboardModule</title>
<path fill="none" stroke="black" d="M470.18,-84.82C470.18,-102.17 470.18,-125.8 470.18,-125.8 470.18,-125.8 408.29,-125.8 408.29,-125.8"/>
<polygon fill="black" stroke="black" points="408.29,-122.3 398.29,-125.8 408.29,-129.3 408.29,-122.3"/>
</g>
<!-- DashboardWidgetComponent -->
<g id="node2" class="node">
<title>DashboardWidgetComponent</title>
<polygon fill="#ffffb3" stroke="black" points="391.69,-84.8 208.31,-84.8 208.31,-48.8 391.69,-48.8 391.69,-84.8"/>
<text text-anchor="middle" x="300" y="-62.6" font-family="Times,serif" font-size="14.00">DashboardWidgetComponent</text>
</g>
<!-- DashboardWidgetComponent&#45;&gt;DashboardModule -->
<g id="edge2" class="edge">
<title>DashboardWidgetComponent&#45;&gt;DashboardModule</title>
<path fill="none" stroke="black" d="M334.75,-84.91C334.75,-84.91 334.75,-103.79 334.75,-103.79"/>
<polygon fill="black" stroke="black" points="331.25,-103.79 334.75,-113.79 338.25,-103.79 331.25,-103.79"/>
</g>
<!-- WidgetContentComponent -->
<g id="node3" class="node">
<title>WidgetContentComponent</title>
<polygon fill="#ffffb3" stroke="black" points="190.37,-84.8 23.63,-84.8 23.63,-48.8 190.37,-48.8 190.37,-84.8"/>
<text text-anchor="middle" x="107" y="-62.6" font-family="Times,serif" font-size="14.00">WidgetContentComponent</text>
</g>
<!-- WidgetContentComponent&#45;&gt;DashboardModule -->
<g id="edge3" class="edge">
<title>WidgetContentComponent&#45;&gt;DashboardModule</title>
<path fill="none" stroke="black" d="M172.62,-84.91C172.62,-104.14 172.62,-131.8 172.62,-131.8 172.62,-131.8 267.83,-131.8 267.83,-131.8"/>
<polygon fill="black" stroke="black" points="267.83,-135.3 277.83,-131.8 267.83,-128.3 267.83,-135.3"/>
</g>
<!-- DashboardWidgetComponent  -->
<g id="node6" class="node">
<title>DashboardWidgetComponent </title>
<polygon fill="#fb8072" stroke="black" points="530.19,-214.8 343.81,-214.8 343.81,-178.8 530.19,-178.8 530.19,-214.8"/>
<text text-anchor="middle" x="437" y="-192.6" font-family="Times,serif" font-size="14.00">DashboardWidgetComponent </text>
</g>
<!-- DashboardModule&#45;&gt;DashboardWidgetComponent  -->
<g id="edge5" class="edge">
<title>DashboardModule&#45;&gt;DashboardWidgetComponent </title>
<path fill="none" stroke="black" stroke-dasharray="5,2" d="M370.88,-149.91C370.88,-149.91 370.88,-168.79 370.88,-168.79"/>
<polygon fill="black" stroke="black" points="367.38,-168.79 370.88,-178.79 374.38,-168.79 367.38,-168.79"/>
</g>
<!-- WidgetContentComponent  -->
<g id="node7" class="node">
<title>WidgetContentComponent </title>
<polygon fill="#fb8072" stroke="black" points="325.37,-214.8 154.63,-214.8 154.63,-178.8 325.37,-178.8 325.37,-214.8"/>
<text text-anchor="middle" x="240" y="-192.6" font-family="Times,serif" font-size="14.00">WidgetContentComponent </text>
</g>
<!-- DashboardModule&#45;&gt;WidgetContentComponent  -->
<g id="edge6" class="edge">
<title>DashboardModule&#45;&gt;WidgetContentComponent </title>
<path fill="none" stroke="black" stroke-dasharray="5,2" d="M301.54,-149.91C301.54,-149.91 301.54,-168.79 301.54,-168.79"/>
<polygon fill="black" stroke="black" points="298.04,-168.79 301.54,-178.79 305.04,-168.79 298.04,-168.79"/>
</g>
<!-- ViewModule -->
<g id="node5" class="node">
<title>ViewModule</title>
<polygon fill="#8dd3c7" stroke="black" points="665.88,-84.8 662.88,-88.8 641.88,-88.8 638.88,-84.8 576.12,-84.8 576.12,-48.8 665.88,-48.8 665.88,-84.8"/>
<text text-anchor="middle" x="621" y="-62.6" font-family="Times,serif" font-size="14.00">ViewModule</text>
</g>
<!-- ViewModule&#45;&gt;DashboardModule -->
<g id="edge4" class="edge">
<title>ViewModule&#45;&gt;DashboardModule</title>
<path fill="none" stroke="black" d="M621,-85.08C621,-106.12 621,-137.8 621,-137.8 621,-137.8 408.36,-137.8 408.36,-137.8"/>
<polygon fill="black" stroke="black" points="408.36,-134.3 398.36,-137.8 408.36,-141.3 408.36,-134.3"/>
</g>
</g>
</svg>
