<?xml version="1.0" encoding="UTF-8" standalone="no"?>
<!DOCTYPE svg PUBLIC "-//W3C//DTD SVG 1.1//EN"
 "http://www.w3.org/Graphics/SVG/1.1/DTD/svg11.dtd">
<!-- Generated by graphviz version 5.0.0 (20220707.1540)
 -->
<!-- Title: dependencies Pages: 1 -->
<svg width="346pt" height="174pt"
 viewBox="0.00 0.00 346.00 173.80" xmlns="http://www.w3.org/2000/svg" xmlns:xlink="http://www.w3.org/1999/xlink">
<g id="graph0" class="graph" transform="scale(1 1) rotate(0) translate(4 169.8)">
<title>dependencies</title>
<polygon fill="white" stroke="transparent" points="-4,4 -4,-169.8 342,-169.8 342,4 -4,4"/>
<text text-anchor="middle" x="169" y="-8.2" font-family="sans-serif" font-size="14.00">dependencies</text>
<g id="clust1" class="cluster">
<title>cluster_UserModule</title>
<polygon fill="none" stroke="black" stroke-dasharray="1,5" points="8,-32.8 8,-157.8 330,-157.8 330,-32.8 8,-32.8"/>
</g>
<g id="clust4" class="cluster">
<title>cluster_UserModule_imports</title>
<polygon fill="none" stroke="black" points="196,-40.8 196,-92.8 322,-92.8 322,-40.8 196,-40.8"/>
</g>
<g id="clust2" class="cluster">
<title>cluster_UserModule_declarations</title>
<polygon fill="none" stroke="black" points="16,-40.8 16,-92.8 188,-92.8 188,-40.8 16,-40.8"/>
</g>
<!-- UserAccountComponent -->
<g id="node1" class="node">
<title>UserAccountComponent</title>
<polygon fill="#ffffb3" stroke="black" points="179.69,-84.8 24.31,-84.8 24.31,-48.8 179.69,-48.8 179.69,-84.8"/>
<text text-anchor="middle" x="102" y="-62.6" font-family="Times,serif" font-size="14.00">UserAccountComponent</text>
</g>
<!-- UserModule -->
<g id="node2" class="node">
<title>UserModule</title>
<polygon fill="#8dd3c7" stroke="black" points="222.99,-149.8 219.99,-153.8 198.99,-153.8 195.99,-149.8 137.01,-149.8 137.01,-113.8 222.99,-113.8 222.99,-149.8"/>
<text text-anchor="middle" x="180" y="-127.6" font-family="Times,serif" font-size="14.00">UserModule</text>
</g>
<!-- UserAccountComponent&#45;&gt;UserModule -->
<g id="edge1" class="edge">
<title>UserAccountComponent&#45;&gt;UserModule</title>
<path fill="none" stroke="black" d="M158.3,-84.91C158.3,-84.91 158.3,-103.79 158.3,-103.79"/>
<polygon fill="black" stroke="black" points="154.8,-103.79 158.3,-113.79 161.8,-103.79 154.8,-103.79"/>
</g>
<!-- TabStateModule -->
<g id="node3" class="node">
<title>TabStateModule</title>
<polygon fill="#8dd3c7" stroke="black" points="313.81,-84.8 310.81,-88.8 289.81,-88.8 286.81,-84.8 204.19,-84.8 204.19,-48.8 313.81,-48.8 313.81,-84.8"/>
<text text-anchor="middle" x="259" y="-62.6" font-family="Times,serif" font-size="14.00">TabStateModule</text>
</g>
<!-- TabStateModule&#45;&gt;UserModule -->
<g id="edge2" class="edge">
<title>TabStateModule&#45;&gt;UserModule</title>
<path fill="none" stroke="black" d="M213.67,-84.91C213.67,-84.91 213.67,-103.79 213.67,-103.79"/>
<polygon fill="black" stroke="black" points="210.17,-103.79 213.67,-113.79 217.17,-103.79 210.17,-103.79"/>
</g>
</g>
</svg>
