<?xml version="1.0" encoding="UTF-8" standalone="no"?>
<!DOCTYPE svg PUBLIC "-//W3C//DTD SVG 1.1//EN"
 "http://www.w3.org/Graphics/SVG/1.1/DTD/svg11.dtd">
<!-- Generated by graphviz version 5.0.0 (20220707.1540)
 -->
<!-- Title: dependencies Pages: 1 -->
<svg width="1308pt" height="247pt"
 viewBox="0.00 0.00 1308.00 246.80" xmlns="http://www.w3.org/2000/svg" xmlns:xlink="http://www.w3.org/1999/xlink">
<g id="graph0" class="graph" transform="scale(1 1) rotate(0) translate(4 242.8)">
<title>dependencies</title>
<polygon fill="white" stroke="transparent" points="-4,4 -4,-242.8 1304,-242.8 1304,4 -4,4"/>
<text text-anchor="middle" x="650" y="-8.2" font-family="sans-serif" font-size="14.00">dependencies</text>
<g id="clust1" class="cluster">
<title>cluster_LatestChangesModule</title>
<polygon fill="none" stroke="black" stroke-dasharray="1,5" points="8,-32.8 8,-230.8 1292,-230.8 1292,-32.8 8,-32.8"/>
</g>
<g id="clust8" class="cluster">
<title>cluster_LatestChangesModule_providers</title>
<polygon fill="none" stroke="black" points="588,-40.8 588,-92.8 1284,-92.8 1284,-40.8 588,-40.8"/>
</g>
<g id="clust5" class="cluster">
<title>cluster_LatestChangesModule_imports</title>
<polygon fill="none" stroke="black" points="350,-40.8 350,-92.8 580,-92.8 580,-40.8 350,-40.8"/>
</g>
<g id="clust6" class="cluster">
<title>cluster_LatestChangesModule_exports</title>
<polygon fill="none" stroke="black" points="440,-170.8 440,-222.8 610,-222.8 610,-170.8 440,-170.8"/>
</g>
<g id="clust2" class="cluster">
<title>cluster_LatestChangesModule_declarations</title>
<polygon fill="none" stroke="black" points="16,-40.8 16,-92.8 342,-92.8 342,-40.8 16,-40.8"/>
</g>
<!-- AppVersionComponent -->
<g id="node1" class="node">
<title>AppVersionComponent</title>
<polygon fill="#ffffb3" stroke="black" points="333.77,-84.8 184.23,-84.8 184.23,-48.8 333.77,-48.8 333.77,-84.8"/>
<text text-anchor="middle" x="259" y="-62.6" font-family="Times,serif" font-size="14.00">AppVersionComponent</text>
</g>
<!-- LatestChangesModule -->
<g id="node3" class="node">
<title>LatestChangesModule</title>
<polygon fill="#8dd3c7" stroke="black" points="595.97,-149.8 592.97,-153.8 571.97,-153.8 568.97,-149.8 454.03,-149.8 454.03,-113.8 595.97,-113.8 595.97,-149.8"/>
<text text-anchor="middle" x="525" y="-127.6" font-family="Times,serif" font-size="14.00">LatestChangesModule</text>
</g>
<!-- AppVersionComponent&#45;&gt;LatestChangesModule -->
<g id="edge1" class="edge">
<title>AppVersionComponent&#45;&gt;LatestChangesModule</title>
<path fill="none" stroke="black" d="M259,-84.82C259,-102.17 259,-125.8 259,-125.8 259,-125.8 443.72,-125.8 443.72,-125.8"/>
<polygon fill="black" stroke="black" points="443.72,-129.3 453.72,-125.8 443.72,-122.3 443.72,-129.3"/>
</g>
<!-- ChangelogComponent -->
<g id="node2" class="node">
<title>ChangelogComponent</title>
<polygon fill="#ffffb3" stroke="black" points="165.99,-84.8 24.01,-84.8 24.01,-48.8 165.99,-48.8 165.99,-84.8"/>
<text text-anchor="middle" x="95" y="-62.6" font-family="Times,serif" font-size="14.00">ChangelogComponent</text>
</g>
<!-- ChangelogComponent&#45;&gt;LatestChangesModule -->
<g id="edge2" class="edge">
<title>ChangelogComponent&#45;&gt;LatestChangesModule</title>
<path fill="none" stroke="black" d="M95,-85.08C95,-106.12 95,-137.8 95,-137.8 95,-137.8 443.99,-137.8 443.99,-137.8"/>
<polygon fill="black" stroke="black" points="443.99,-141.3 453.99,-137.8 443.99,-134.3 443.99,-141.3"/>
</g>
<!-- AppVersionComponent  -->
<g id="node6" class="node">
<title>AppVersionComponent </title>
<polygon fill="#fb8072" stroke="black" points="601.77,-214.8 448.23,-214.8 448.23,-178.8 601.77,-178.8 601.77,-214.8"/>
<text text-anchor="middle" x="525" y="-192.6" font-family="Times,serif" font-size="14.00">AppVersionComponent </text>
</g>
<!-- LatestChangesModule&#45;&gt;AppVersionComponent  -->
<g id="edge5" class="edge">
<title>LatestChangesModule&#45;&gt;AppVersionComponent </title>
<path fill="none" stroke="black" stroke-dasharray="5,2" d="M525,-149.91C525,-149.91 525,-168.79 525,-168.79"/>
<polygon fill="black" stroke="black" points="521.5,-168.79 525,-178.79 528.5,-168.79 521.5,-168.79"/>
</g>
<!-- AlertsModule -->
<g id="node4" class="node">
<title>AlertsModule</title>
<polygon fill="#8dd3c7" stroke="black" points="571.77,-84.8 568.77,-88.8 547.77,-88.8 544.77,-84.8 478.23,-84.8 478.23,-48.8 571.77,-48.8 571.77,-84.8"/>
<text text-anchor="middle" x="525" y="-62.6" font-family="Times,serif" font-size="14.00">AlertsModule</text>
</g>
<!-- AlertsModule&#45;&gt;LatestChangesModule -->
<g id="edge3" class="edge">
<title>AlertsModule&#45;&gt;LatestChangesModule</title>
<path fill="none" stroke="black" d="M525,-84.91C525,-84.91 525,-103.79 525,-103.79"/>
<polygon fill="black" stroke="black" points="521.5,-103.79 525,-113.79 528.5,-103.79 521.5,-103.79"/>
</g>
<!-- SessionModule -->
<g id="node5" class="node">
<title>SessionModule</title>
<polygon fill="#8dd3c7" stroke="black" points="460.34,-84.8 457.34,-88.8 436.34,-88.8 433.34,-84.8 357.66,-84.8 357.66,-48.8 460.34,-48.8 460.34,-84.8"/>
<text text-anchor="middle" x="409" y="-62.6" font-family="Times,serif" font-size="14.00">SessionModule</text>
</g>
<!-- SessionModule&#45;&gt;LatestChangesModule -->
<g id="edge4" class="edge">
<title>SessionModule&#45;&gt;LatestChangesModule</title>
<path fill="none" stroke="black" d="M460.27,-66.8C465.62,-66.8 469.14,-66.8 469.14,-66.8 469.14,-66.8 469.14,-103.69 469.14,-103.69"/>
<polygon fill="black" stroke="black" points="465.64,-103.69 469.14,-113.69 472.64,-103.69 465.64,-103.69"/>
</g>
<!-- LatestChangesDialogService -->
<g id="node7" class="node">
<title>LatestChangesDialogService</title>
<ellipse fill="#fdb462" stroke="black" cx="1153" cy="-66.8" rx="123.26" ry="18"/>
<text text-anchor="middle" x="1153" y="-62.6" font-family="Times,serif" font-size="14.00">LatestChangesDialogService</text>
</g>
<!-- LatestChangesDialogService&#45;&gt;LatestChangesModule -->
<g id="edge6" class="edge">
<title>LatestChangesDialogService&#45;&gt;LatestChangesModule</title>
<path fill="none" stroke="black" d="M1153,-85.08C1153,-106.12 1153,-137.8 1153,-137.8 1153,-137.8 606.12,-137.8 606.12,-137.8"/>
<polygon fill="black" stroke="black" points="606.12,-134.3 596.12,-137.8 606.12,-141.3 606.12,-134.3"/>
</g>
<!-- LatestChangesService -->
<g id="node8" class="node">
<title>LatestChangesService</title>
<ellipse fill="#fdb462" stroke="black" cx="915" cy="-66.8" rx="96.69" ry="18"/>
<text text-anchor="middle" x="915" y="-62.6" font-family="Times,serif" font-size="14.00">LatestChangesService</text>
</g>
<!-- LatestChangesService&#45;&gt;LatestChangesModule -->
<g id="edge7" class="edge">
<title>LatestChangesService&#45;&gt;LatestChangesModule</title>
<path fill="none" stroke="black" d="M915,-84.82C915,-102.17 915,-125.8 915,-125.8 915,-125.8 606.08,-125.8 606.08,-125.8"/>
<polygon fill="black" stroke="black" points="606.08,-122.3 596.08,-125.8 606.08,-129.3 606.08,-122.3"/>
</g>
<!-- UpdateManagerService -->
<g id="node9" class="node">
<title>UpdateManagerService</title>
<ellipse fill="#fdb462" stroke="black" cx="698" cy="-66.8" rx="102.4" ry="18"/>
<text text-anchor="middle" x="698" y="-62.6" font-family="Times,serif" font-size="14.00">UpdateManagerService</text>
</g>
<!-- UpdateManagerService&#45;&gt;LatestChangesModule -->
<g id="edge8" class="edge">
<title>UpdateManagerService&#45;&gt;LatestChangesModule</title>
<path fill="none" stroke="black" d="M595.63,-66.8C588.37,-66.8 583.84,-66.8 583.84,-66.8 583.84,-66.8 583.84,-103.69 583.84,-103.69"/>
<polygon fill="black" stroke="black" points="580.34,-103.69 583.84,-113.69 587.34,-103.69 580.34,-103.69"/>
</g>
</g>
</svg>
