<?xml version="1.0" encoding="UTF-8" standalone="no"?>
<!DOCTYPE svg PUBLIC "-//W3C//DTD SVG 1.1//EN"
 "http://www.w3.org/Graphics/SVG/1.1/DTD/svg11.dtd">
<!-- Generated by graphviz version 5.0.0 (20220707.1540)
 -->
<!-- Title: dependencies Pages: 1 -->
<svg width="1949pt" height="247pt"
 viewBox="0.00 0.00 1949.00 246.80" xmlns="http://www.w3.org/2000/svg" xmlns:xlink="http://www.w3.org/1999/xlink">
<g id="graph0" class="graph" transform="scale(1 1) rotate(0) translate(4 242.8)">
<title>dependencies</title>
<polygon fill="white" stroke="transparent" points="-4,4 -4,-242.8 1945,-242.8 1945,4 -4,4"/>
<text text-anchor="middle" x="970.5" y="-8.2" font-family="sans-serif" font-size="14.00">dependencies</text>
<g id="clust1" class="cluster">
<title>cluster_UiModule</title>
<polygon fill="none" stroke="black" stroke-dasharray="1,5" points="8,-32.8 8,-230.8 1933,-230.8 1933,-32.8 8,-32.8"/>
</g>
<g id="clust2" class="cluster">
<title>cluster_UiModule_declarations</title>
<polygon fill="none" stroke="black" points="1494,-40.8 1494,-92.8 1925,-92.8 1925,-40.8 1494,-40.8"/>
</g>
<g id="clust7" class="cluster">
<title>cluster_UiModule_exports</title>
<polygon fill="none" stroke="black" points="877,-170.8 877,-222.8 991,-222.8 991,-170.8 877,-170.8"/>
</g>
<g id="clust6" class="cluster">
<title>cluster_UiModule_imports</title>
<polygon fill="none" stroke="black" points="16,-40.8 16,-92.8 1486,-92.8 1486,-40.8 16,-40.8"/>
</g>
<!-- PrimaryActionComponent -->
<g id="node1" class="node">
<title>PrimaryActionComponent</title>
<polygon fill="#ffffb3" stroke="black" points="1917.04,-84.8 1752.96,-84.8 1752.96,-48.8 1917.04,-48.8 1917.04,-84.8"/>
<text text-anchor="middle" x="1835" y="-62.6" font-family="Times,serif" font-size="14.00">PrimaryActionComponent</text>
</g>
<!-- UiModule -->
<g id="node4" class="node">
<title>UiModule</title>
<polygon fill="#8dd3c7" stroke="black" points="970.55,-149.8 967.55,-153.8 946.55,-153.8 943.55,-149.8 897.45,-149.8 897.45,-113.8 970.55,-113.8 970.55,-149.8"/>
<text text-anchor="middle" x="934" y="-127.6" font-family="Times,serif" font-size="14.00">UiModule</text>
</g>
<!-- PrimaryActionComponent&#45;&gt;UiModule -->
<g id="edge1" class="edge">
<title>PrimaryActionComponent&#45;&gt;UiModule</title>
<path fill="none" stroke="black" d="M1835,-84.89C1835,-107.93 1835,-144.8 1835,-144.8 1835,-144.8 980.72,-144.8 980.72,-144.8"/>
<polygon fill="black" stroke="black" points="980.72,-141.3 970.72,-144.8 980.72,-148.3 980.72,-141.3"/>
</g>
<!-- SearchComponent -->
<g id="node2" class="node">
<title>SearchComponent</title>
<polygon fill="#ffffb3" stroke="black" points="1734.92,-84.8 1615.08,-84.8 1615.08,-48.8 1734.92,-48.8 1734.92,-84.8"/>
<text text-anchor="middle" x="1675" y="-62.6" font-family="Times,serif" font-size="14.00">SearchComponent</text>
</g>
<!-- SearchComponent&#45;&gt;UiModule -->
<g id="edge2" class="edge">
<title>SearchComponent&#45;&gt;UiModule</title>
<path fill="none" stroke="black" d="M1675,-84.84C1675,-106.46 1675,-139.8 1675,-139.8 1675,-139.8 980.75,-139.8 980.75,-139.8"/>
<polygon fill="black" stroke="black" points="980.75,-136.3 970.75,-139.8 980.75,-143.3 980.75,-136.3"/>
</g>
<!-- UiComponent -->
<g id="node3" class="node">
<title>UiComponent</title>
<polygon fill="#ffffb3" stroke="black" points="1597.83,-84.8 1502.17,-84.8 1502.17,-48.8 1597.83,-48.8 1597.83,-84.8"/>
<text text-anchor="middle" x="1550" y="-62.6" font-family="Times,serif" font-size="14.00">UiComponent</text>
</g>
<!-- UiComponent&#45;&gt;UiModule -->
<g id="edge3" class="edge">
<title>UiComponent&#45;&gt;UiModule</title>
<path fill="none" stroke="black" d="M1550,-85.02C1550,-105.17 1550,-134.8 1550,-134.8 1550,-134.8 980.69,-134.8 980.69,-134.8"/>
<polygon fill="black" stroke="black" points="980.69,-131.3 970.69,-134.8 980.69,-138.3 980.69,-131.3"/>
</g>
<!-- UiComponent  -->
<g id="node16" class="node">
<title>UiComponent </title>
<polygon fill="#fb8072" stroke="black" points="983.33,-214.8 884.67,-214.8 884.67,-178.8 983.33,-178.8 983.33,-214.8"/>
<text text-anchor="middle" x="934" y="-192.6" font-family="Times,serif" font-size="14.00">UiComponent </text>
</g>
<!-- UiModule&#45;&gt;UiComponent  -->
<g id="edge15" class="edge">
<title>UiModule&#45;&gt;UiComponent </title>
<path fill="none" stroke="black" stroke-dasharray="5,2" d="M934,-149.91C934,-149.91 934,-168.79 934,-168.79"/>
<polygon fill="black" stroke="black" points="930.5,-168.79 934,-178.79 937.5,-168.79 930.5,-168.79"/>
</g>
<!-- ChildrenModule -->
<g id="node5" class="node">
<title>ChildrenModule</title>
<polygon fill="#8dd3c7" stroke="black" points="1478.05,-84.8 1475.05,-88.8 1454.05,-88.8 1451.05,-84.8 1369.95,-84.8 1369.95,-48.8 1478.05,-48.8 1478.05,-84.8"/>
<text text-anchor="middle" x="1424" y="-62.6" font-family="Times,serif" font-size="14.00">ChildrenModule</text>
</g>
<!-- ChildrenModule&#45;&gt;UiModule -->
<g id="edge4" class="edge">
<title>ChildrenModule&#45;&gt;UiModule</title>
<path fill="none" stroke="black" d="M1424,-85.02C1424,-103.63 1424,-129.8 1424,-129.8 1424,-129.8 980.83,-129.8 980.83,-129.8"/>
<polygon fill="black" stroke="black" points="980.83,-126.3 970.83,-129.8 980.83,-133.3 980.83,-126.3"/>
</g>
<!-- EntityUtilsModule -->
<g id="node6" class="node">
<title>EntityUtilsModule</title>
<polygon fill="#8dd3c7" stroke="black" points="1351.5,-84.8 1348.5,-88.8 1327.5,-88.8 1324.5,-84.8 1230.5,-84.8 1230.5,-48.8 1351.5,-48.8 1351.5,-84.8"/>
<text text-anchor="middle" x="1291" y="-62.6" font-family="Times,serif" font-size="14.00">EntityUtilsModule</text>
</g>
<!-- EntityUtilsModule&#45;&gt;UiModule -->
<g id="edge5" class="edge">
<title>EntityUtilsModule&#45;&gt;UiModule</title>
<path fill="none" stroke="black" d="M1291,-84.83C1291,-101.86 1291,-124.8 1291,-124.8 1291,-124.8 980.86,-124.8 980.86,-124.8"/>
<polygon fill="black" stroke="black" points="980.86,-121.3 970.86,-124.8 980.86,-128.3 980.86,-121.3"/>
</g>
<!-- LanguageModule -->
<g id="node7" class="node">
<title>LanguageModule</title>
<polygon fill="#8dd3c7" stroke="black" points="1212.25,-84.8 1209.25,-88.8 1188.25,-88.8 1185.25,-84.8 1097.75,-84.8 1097.75,-48.8 1212.25,-48.8 1212.25,-84.8"/>
<text text-anchor="middle" x="1155" y="-62.6" font-family="Times,serif" font-size="14.00">LanguageModule</text>
</g>
<!-- LanguageModule&#45;&gt;UiModule -->
<g id="edge6" class="edge">
<title>LanguageModule&#45;&gt;UiModule</title>
<path fill="none" stroke="black" d="M1155,-85.04C1155,-100.37 1155,-119.8 1155,-119.8 1155,-119.8 980.99,-119.8 980.99,-119.8"/>
<polygon fill="black" stroke="black" points="980.99,-116.3 970.99,-119.8 980.99,-123.3 980.99,-116.3"/>
</g>
<!-- LatestChangesModule -->
<g id="node8" class="node">
<title>LatestChangesModule</title>
<polygon fill="#8dd3c7" stroke="black" points="1079.97,-84.8 1076.97,-88.8 1055.97,-88.8 1052.97,-84.8 938.03,-84.8 938.03,-48.8 1079.97,-48.8 1079.97,-84.8"/>
<text text-anchor="middle" x="1009" y="-62.6" font-family="Times,serif" font-size="14.00">LatestChangesModule</text>
</g>
<!-- LatestChangesModule&#45;&gt;UiModule -->
<g id="edge7" class="edge">
<title>LatestChangesModule&#45;&gt;UiModule</title>
<path fill="none" stroke="black" d="M954.39,-84.91C954.39,-84.91 954.39,-103.79 954.39,-103.79"/>
<polygon fill="black" stroke="black" points="950.89,-103.79 954.39,-113.79 957.89,-103.79 950.89,-103.79"/>
</g>
<!-- NavigationModule -->
<g id="node9" class="node">
<title>NavigationModule</title>
<polygon fill="#8dd3c7" stroke="black" points="919.76,-84.8 916.76,-88.8 895.76,-88.8 892.76,-84.8 798.24,-84.8 798.24,-48.8 919.76,-48.8 919.76,-84.8"/>
<text text-anchor="middle" x="859" y="-62.6" font-family="Times,serif" font-size="14.00">NavigationModule</text>
</g>
<!-- NavigationModule&#45;&gt;UiModule -->
<g id="edge8" class="edge">
<title>NavigationModule&#45;&gt;UiModule</title>
<path fill="none" stroke="black" d="M908.55,-84.91C908.55,-84.91 908.55,-103.79 908.55,-103.79"/>
<polygon fill="black" stroke="black" points="905.05,-103.79 908.55,-113.79 912.05,-103.79 905.05,-103.79"/>
</g>
<!-- NotesModule -->
<g id="node10" class="node">
<title>NotesModule</title>
<polygon fill="#8dd3c7" stroke="black" points="780.21,-84.8 777.21,-88.8 756.21,-88.8 753.21,-84.8 687.79,-84.8 687.79,-48.8 780.21,-48.8 780.21,-84.8"/>
<text text-anchor="middle" x="734" y="-62.6" font-family="Times,serif" font-size="14.00">NotesModule</text>
</g>
<!-- NotesModule&#45;&gt;UiModule -->
<g id="edge9" class="edge">
<title>NotesModule&#45;&gt;UiModule</title>
<path fill="none" stroke="black" d="M734,-85.04C734,-100.37 734,-119.8 734,-119.8 734,-119.8 887.32,-119.8 887.32,-119.8"/>
<polygon fill="black" stroke="black" points="887.32,-123.3 897.32,-119.8 887.32,-116.3 887.32,-123.3"/>
</g>
<!-- PermissionsModule -->
<g id="node11" class="node">
<title>PermissionsModule</title>
<polygon fill="#8dd3c7" stroke="black" points="669.73,-84.8 666.73,-88.8 645.73,-88.8 642.73,-84.8 542.27,-84.8 542.27,-48.8 669.73,-48.8 669.73,-84.8"/>
<text text-anchor="middle" x="606" y="-62.6" font-family="Times,serif" font-size="14.00">PermissionsModule</text>
</g>
<!-- PermissionsModule&#45;&gt;UiModule -->
<g id="edge10" class="edge">
<title>PermissionsModule&#45;&gt;UiModule</title>
<path fill="none" stroke="black" d="M606,-84.83C606,-101.86 606,-124.8 606,-124.8 606,-124.8 887.33,-124.8 887.33,-124.8"/>
<polygon fill="black" stroke="black" points="887.33,-128.3 897.33,-124.8 887.33,-121.3 887.33,-128.3"/>
</g>
<!-- PwaInstallModule -->
<g id="node12" class="node">
<title>PwaInstallModule</title>
<polygon fill="#8dd3c7" stroke="black" points="524.16,-84.8 521.16,-88.8 500.16,-88.8 497.16,-84.8 405.84,-84.8 405.84,-48.8 524.16,-48.8 524.16,-84.8"/>
<text text-anchor="middle" x="465" y="-62.6" font-family="Times,serif" font-size="14.00">PwaInstallModule</text>
</g>
<!-- PwaInstallModule&#45;&gt;UiModule -->
<g id="edge11" class="edge">
<title>PwaInstallModule&#45;&gt;UiModule</title>
<path fill="none" stroke="black" d="M465,-85.02C465,-103.63 465,-129.8 465,-129.8 465,-129.8 887.2,-129.8 887.2,-129.8"/>
<polygon fill="black" stroke="black" points="887.2,-133.3 897.2,-129.8 887.2,-126.3 887.2,-133.3"/>
</g>
<!-- SchoolsModule -->
<g id="node13" class="node">
<title>SchoolsModule</title>
<polygon fill="#8dd3c7" stroke="black" points="387.89,-84.8 384.89,-88.8 363.89,-88.8 360.89,-84.8 284.11,-84.8 284.11,-48.8 387.89,-48.8 387.89,-84.8"/>
<text text-anchor="middle" x="336" y="-62.6" font-family="Times,serif" font-size="14.00">SchoolsModule</text>
</g>
<!-- SchoolsModule&#45;&gt;UiModule -->
<g id="edge12" class="edge">
<title>SchoolsModule&#45;&gt;UiModule</title>
<path fill="none" stroke="black" d="M336,-85.02C336,-105.17 336,-134.8 336,-134.8 336,-134.8 887.04,-134.8 887.04,-134.8"/>
<polygon fill="black" stroke="black" points="887.04,-138.3 897.04,-134.8 887.04,-131.3 887.04,-138.3"/>
</g>
<!-- SessionModule -->
<g id="node14" class="node">
<title>SessionModule</title>
<polygon fill="#8dd3c7" stroke="black" points="266.34,-84.8 263.34,-88.8 242.34,-88.8 239.34,-84.8 163.66,-84.8 163.66,-48.8 266.34,-48.8 266.34,-84.8"/>
<text text-anchor="middle" x="215" y="-62.6" font-family="Times,serif" font-size="14.00">SessionModule</text>
</g>
<!-- SessionModule&#45;&gt;UiModule -->
<g id="edge13" class="edge">
<title>SessionModule&#45;&gt;UiModule</title>
<path fill="none" stroke="black" d="M215,-84.84C215,-106.46 215,-139.8 215,-139.8 215,-139.8 887.36,-139.8 887.36,-139.8"/>
<polygon fill="black" stroke="black" points="887.36,-143.3 897.36,-139.8 887.36,-136.3 887.36,-143.3"/>
</g>
<!-- SyncStatusModule -->
<g id="node15" class="node">
<title>SyncStatusModule</title>
<polygon fill="#8dd3c7" stroke="black" points="145.78,-84.8 142.78,-88.8 121.78,-88.8 118.78,-84.8 24.22,-84.8 24.22,-48.8 145.78,-48.8 145.78,-84.8"/>
<text text-anchor="middle" x="85" y="-62.6" font-family="Times,serif" font-size="14.00">SyncStatusModule</text>
</g>
<!-- SyncStatusModule&#45;&gt;UiModule -->
<g id="edge14" class="edge">
<title>SyncStatusModule&#45;&gt;UiModule</title>
<path fill="none" stroke="black" d="M85,-84.89C85,-107.93 85,-144.8 85,-144.8 85,-144.8 887.25,-144.8 887.25,-144.8"/>
<polygon fill="black" stroke="black" points="887.25,-148.3 897.25,-144.8 887.25,-141.3 887.25,-148.3"/>
</g>
</g>
</svg>
