<?xml version="1.0" encoding="UTF-8" standalone="no"?>
<!DOCTYPE svg PUBLIC "-//W3C//DTD SVG 1.1//EN"
 "http://www.w3.org/Graphics/SVG/1.1/DTD/svg11.dtd">
<!-- Generated by graphviz version 5.0.0 (20220707.1540)
 -->
<!-- Title: dependencies Pages: 1 -->
<svg width="372pt" height="247pt"
 viewBox="0.00 0.00 372.00 246.80" xmlns="http://www.w3.org/2000/svg" xmlns:xlink="http://www.w3.org/1999/xlink">
<g id="graph0" class="graph" transform="scale(1 1) rotate(0) translate(4 242.8)">
<title>dependencies</title>
<polygon fill="white" stroke="transparent" points="-4,4 -4,-242.8 368,-242.8 368,4 -4,4"/>
<text text-anchor="middle" x="182" y="-8.2" font-family="sans-serif" font-size="14.00">dependencies</text>
<g id="clust1" class="cluster">
<title>cluster_ExportModule</title>
<polygon fill="none" stroke="black" stroke-dasharray="1,5" points="8,-32.8 8,-230.8 356,-230.8 356,-32.8 8,-32.8"/>
</g>
<g id="clust7" class="cluster">
<title>cluster_ExportModule_providers</title>
<polygon fill="none" stroke="black" points="172,-40.8 172,-92.8 348,-92.8 348,-40.8 172,-40.8"/>
</g>
<g id="clust2" class="cluster">
<title>cluster_ExportModule_declarations</title>
<polygon fill="none" stroke="black" points="16,-40.8 16,-92.8 164,-92.8 164,-40.8 16,-40.8"/>
</g>
<g id="clust5" class="cluster">
<title>cluster_ExportModule_exports</title>
<polygon fill="none" stroke="black" points="100,-170.8 100,-222.8 252,-222.8 252,-170.8 100,-170.8"/>
</g>
<!-- ExportDataDirective -->
<g id="node1" class="node">
<title>ExportDataDirective</title>
<polygon fill="#ffffb3" stroke="black" points="156.11,-84.8 23.89,-84.8 23.89,-48.8 156.11,-48.8 156.11,-84.8"/>
<text text-anchor="middle" x="90" y="-62.6" font-family="Times,serif" font-size="14.00">ExportDataDirective</text>
</g>
<!-- ExportModule -->
<g id="node2" class="node">
<title>ExportModule</title>
<polygon fill="#8dd3c7" stroke="black" points="224.66,-149.8 221.66,-153.8 200.66,-153.8 197.66,-149.8 127.34,-149.8 127.34,-113.8 224.66,-113.8 224.66,-149.8"/>
<text text-anchor="middle" x="176" y="-127.6" font-family="Times,serif" font-size="14.00">ExportModule</text>
</g>
<!-- ExportDataDirective&#45;&gt;ExportModule -->
<g id="edge1" class="edge">
<title>ExportDataDirective&#45;&gt;ExportModule</title>
<path fill="none" stroke="black" d="M141.74,-84.91C141.74,-84.91 141.74,-103.79 141.74,-103.79"/>
<polygon fill="black" stroke="black" points="138.24,-103.79 141.74,-113.79 145.24,-103.79 138.24,-103.79"/>
</g>
<!-- ExportDataDirective  -->
<g id="node3" class="node">
<title>ExportDataDirective </title>
<polygon fill="#fb8072" stroke="black" points="244.11,-214.8 107.89,-214.8 107.89,-178.8 244.11,-178.8 244.11,-214.8"/>
<text text-anchor="middle" x="176" y="-192.6" font-family="Times,serif" font-size="14.00">ExportDataDirective </text>
</g>
<!-- ExportModule&#45;&gt;ExportDataDirective  -->
<g id="edge2" class="edge">
<title>ExportModule&#45;&gt;ExportDataDirective </title>
<path fill="none" stroke="black" stroke-dasharray="5,2" d="M176,-149.91C176,-149.91 176,-168.79 176,-168.79"/>
<polygon fill="black" stroke="black" points="172.5,-168.79 176,-178.79 179.5,-168.79 172.5,-168.79"/>
</g>
<!-- DownloadService -->
<g id="node4" class="node">
<title>DownloadService</title>
<ellipse fill="#fdb462" stroke="black" cx="260" cy="-66.8" rx="80.45" ry="18"/>
<text text-anchor="middle" x="260" y="-62.6" font-family="Times,serif" font-size="14.00">DownloadService</text>
</g>
<!-- DownloadService&#45;&gt;ExportModule -->
<g id="edge3" class="edge">
<title>DownloadService&#45;&gt;ExportModule</title>
<path fill="none" stroke="black" d="M202.3,-79.33C202.3,-79.33 202.3,-103.65 202.3,-103.65"/>
<polygon fill="black" stroke="black" points="198.8,-103.65 202.3,-113.65 205.8,-103.65 198.8,-103.65"/>
</g>
</g>
</svg>
