<?xml version="1.0" encoding="UTF-8" standalone="no"?>
<!DOCTYPE svg PUBLIC "-//W3C//DTD SVG 1.1//EN"
 "http://www.w3.org/Graphics/SVG/1.1/DTD/svg11.dtd">
<!-- Generated by graphviz version 5.0.0 (20220707.1540)
 -->
<!-- Title: dependencies Pages: 1 -->
<svg width="608pt" height="247pt"
 viewBox="0.00 0.00 608.00 246.80" xmlns="http://www.w3.org/2000/svg" xmlns:xlink="http://www.w3.org/1999/xlink">
<g id="graph0" class="graph" transform="scale(1 1) rotate(0) translate(4 242.8)">
<title>dependencies</title>
<polygon fill="white" stroke="transparent" points="-4,4 -4,-242.8 604,-242.8 604,4 -4,4"/>
<text text-anchor="middle" x="300" y="-8.2" font-family="sans-serif" font-size="14.00">dependencies</text>
<g id="clust1" class="cluster">
<title>cluster_DemoDataModule</title>
<polygon fill="none" stroke="black" stroke-dasharray="1,5" points="8,-32.8 8,-230.8 592,-230.8 592,-32.8 8,-32.8"/>
</g>
<g id="clust5" class="cluster">
<title>cluster_DemoDataModule_exports</title>
<polygon fill="none" stroke="black" points="145,-170.8 145,-222.8 455,-222.8 455,-170.8 145,-170.8"/>
</g>
<g id="clust2" class="cluster">
<title>cluster_DemoDataModule_declarations</title>
<polygon fill="none" stroke="black" points="278,-40.8 278,-92.8 584,-92.8 584,-40.8 278,-40.8"/>
</g>
<g id="clust7" class="cluster">
<title>cluster_DemoDataModule_providers</title>
<polygon fill="none" stroke="black" points="16,-40.8 16,-92.8 270,-92.8 270,-40.8 16,-40.8"/>
</g>
<!-- DemoDataGeneratingProgressDialogComponent -->
<g id="node1" class="node">
<title>DemoDataGeneratingProgressDialogComponent</title>
<polygon fill="#ffffb3" stroke="black" points="576.49,-84.8 285.51,-84.8 285.51,-48.8 576.49,-48.8 576.49,-84.8"/>
<text text-anchor="middle" x="431" y="-62.6" font-family="Times,serif" font-size="14.00">DemoDataGeneratingProgressDialogComponent</text>
</g>
<!-- DemoDataModule -->
<g id="node2" class="node">
<title>DemoDataModule</title>
<polygon fill="#8dd3c7" stroke="black" points="360.19,-149.8 357.19,-153.8 336.19,-153.8 333.19,-149.8 239.81,-149.8 239.81,-113.8 360.19,-113.8 360.19,-149.8"/>
<text text-anchor="middle" x="300" y="-127.6" font-family="Times,serif" font-size="14.00">DemoDataModule</text>
</g>
<!-- DemoDataGeneratingProgressDialogComponent&#45;&gt;DemoDataModule -->
<g id="edge1" class="edge">
<title>DemoDataGeneratingProgressDialogComponent&#45;&gt;DemoDataModule</title>
<path fill="none" stroke="black" d="M322.93,-84.91C322.93,-84.91 322.93,-103.79 322.93,-103.79"/>
<polygon fill="black" stroke="black" points="319.43,-103.79 322.93,-113.79 326.43,-103.79 319.43,-103.79"/>
</g>
<!-- DemoDataGeneratingProgressDialogComponent  -->
<g id="node3" class="node">
<title>DemoDataGeneratingProgressDialogComponent </title>
<polygon fill="#fb8072" stroke="black" points="446.99,-214.8 153.01,-214.8 153.01,-178.8 446.99,-178.8 446.99,-214.8"/>
<text text-anchor="middle" x="300" y="-192.6" font-family="Times,serif" font-size="14.00">DemoDataGeneratingProgressDialogComponent </text>
</g>
<!-- DemoDataModule&#45;&gt;DemoDataGeneratingProgressDialogComponent  -->
<g id="edge2" class="edge">
<title>DemoDataModule&#45;&gt;DemoDataGeneratingProgressDialogComponent </title>
<path fill="none" stroke="black" stroke-dasharray="5,2" d="M300,-149.91C300,-149.91 300,-168.79 300,-168.79"/>
<polygon fill="black" stroke="black" points="296.5,-168.79 300,-178.79 303.5,-168.79 296.5,-168.79"/>
</g>
<!-- DemoDataInitializerService -->
<g id="node4" class="node">
<title>DemoDataInitializerService</title>
<ellipse fill="#fdb462" stroke="black" cx="143" cy="-66.8" rx="119.21" ry="18"/>
<text text-anchor="middle" x="143" y="-62.6" font-family="Times,serif" font-size="14.00">DemoDataInitializerService</text>
</g>
<!-- DemoDataInitializerService&#45;&gt;DemoDataModule -->
<g id="edge3" class="edge">
<title>DemoDataInitializerService&#45;&gt;DemoDataModule</title>
<path fill="none" stroke="black" d="M251.13,-74.51C251.13,-74.51 251.13,-103.79 251.13,-103.79"/>
<polygon fill="black" stroke="black" points="247.63,-103.79 251.13,-113.79 254.63,-103.79 247.63,-103.79"/>
</g>
</g>
</svg>
