<?xml version="1.0" encoding="UTF-8" standalone="no"?>
<!DOCTYPE svg PUBLIC "-//W3C//DTD SVG 1.1//EN"
 "http://www.w3.org/Graphics/SVG/1.1/DTD/svg11.dtd">
<!-- Generated by graphviz version 5.0.0 (20220707.1540)
 -->
<!-- Title: dependencies Pages: 1 -->
<svg width="550pt" height="247pt"
 viewBox="0.00 0.00 550.00 246.80" xmlns="http://www.w3.org/2000/svg" xmlns:xlink="http://www.w3.org/1999/xlink">
<g id="graph0" class="graph" transform="scale(1 1) rotate(0) translate(4 242.8)">
<title>dependencies</title>
<polygon fill="white" stroke="transparent" points="-4,4 -4,-242.8 546,-242.8 546,4 -4,4"/>
<text text-anchor="middle" x="271" y="-8.2" font-family="sans-serif" font-size="14.00">dependencies</text>
<g id="clust1" class="cluster">
<title>cluster_NavigationModule</title>
<polygon fill="none" stroke="black" stroke-dasharray="1,5" points="8,-32.8 8,-230.8 534,-230.8 534,-32.8 8,-32.8"/>
</g>
<g id="clust2" class="cluster">
<title>cluster_NavigationModule_declarations</title>
<polygon fill="none" stroke="black" points="366,-40.8 366,-92.8 526,-92.8 526,-40.8 366,-40.8"/>
</g>
<g id="clust5" class="cluster">
<title>cluster_NavigationModule_exports</title>
<polygon fill="none" stroke="black" points="160,-170.8 160,-222.8 324,-222.8 324,-170.8 160,-170.8"/>
</g>
<g id="clust4" class="cluster">
<title>cluster_NavigationModule_imports</title>
<polygon fill="none" stroke="black" points="16,-40.8 16,-92.8 358,-92.8 358,-40.8 16,-40.8"/>
</g>
<!-- NavigationComponent -->
<g id="node1" class="node">
<title>NavigationComponent</title>
<polygon fill="#ffffb3" stroke="black" points="517.54,-84.8 374.46,-84.8 374.46,-48.8 517.54,-48.8 517.54,-84.8"/>
<text text-anchor="middle" x="446" y="-62.6" font-family="Times,serif" font-size="14.00">NavigationComponent</text>
</g>
<!-- NavigationModule -->
<g id="node2" class="node">
<title>NavigationModule</title>
<polygon fill="#8dd3c7" stroke="black" points="302.76,-149.8 299.76,-153.8 278.76,-153.8 275.76,-149.8 181.24,-149.8 181.24,-113.8 302.76,-113.8 302.76,-149.8"/>
<text text-anchor="middle" x="242" y="-127.6" font-family="Times,serif" font-size="14.00">NavigationModule</text>
</g>
<!-- NavigationComponent&#45;&gt;NavigationModule -->
<g id="edge1" class="edge">
<title>NavigationComponent&#45;&gt;NavigationModule</title>
<path fill="none" stroke="black" d="M446,-84.91C446,-104.14 446,-131.8 446,-131.8 446,-131.8 312.93,-131.8 312.93,-131.8"/>
<polygon fill="black" stroke="black" points="312.93,-128.3 302.93,-131.8 312.93,-135.3 312.93,-128.3"/>
</g>
<!-- NavigationComponent  -->
<g id="node6" class="node">
<title>NavigationComponent </title>
<polygon fill="#fb8072" stroke="black" points="315.54,-214.8 168.46,-214.8 168.46,-178.8 315.54,-178.8 315.54,-214.8"/>
<text text-anchor="middle" x="242" y="-192.6" font-family="Times,serif" font-size="14.00">NavigationComponent </text>
</g>
<!-- NavigationModule&#45;&gt;NavigationComponent  -->
<g id="edge5" class="edge">
<title>NavigationModule&#45;&gt;NavigationComponent </title>
<path fill="none" stroke="black" stroke-dasharray="5,2" d="M242,-149.91C242,-149.91 242,-168.79 242,-168.79"/>
<polygon fill="black" stroke="black" points="238.5,-168.79 242,-178.79 245.5,-168.79 238.5,-168.79"/>
</g>
<!-- ConfigModule -->
<g id="node3" class="node">
<title>ConfigModule</title>
<polygon fill="#8dd3c7" stroke="black" points="350.44,-84.8 347.44,-88.8 326.44,-88.8 323.44,-84.8 251.56,-84.8 251.56,-48.8 350.44,-48.8 350.44,-84.8"/>
<text text-anchor="middle" x="301" y="-62.6" font-family="Times,serif" font-size="14.00">ConfigModule</text>
</g>
<!-- ConfigModule&#45;&gt;NavigationModule -->
<g id="edge2" class="edge">
<title>ConfigModule&#45;&gt;NavigationModule</title>
<path fill="none" stroke="black" d="M277.33,-84.91C277.33,-84.91 277.33,-103.79 277.33,-103.79"/>
<polygon fill="black" stroke="black" points="273.83,-103.79 277.33,-113.79 280.83,-103.79 273.83,-103.79"/>
</g>
<!-- SessionModule -->
<g id="node4" class="node">
<title>SessionModule</title>
<polygon fill="#8dd3c7" stroke="black" points="234.34,-84.8 231.34,-88.8 210.34,-88.8 207.34,-84.8 131.66,-84.8 131.66,-48.8 234.34,-48.8 234.34,-84.8"/>
<text text-anchor="middle" x="183" y="-62.6" font-family="Times,serif" font-size="14.00">SessionModule</text>
</g>
<!-- SessionModule&#45;&gt;NavigationModule -->
<g id="edge3" class="edge">
<title>SessionModule&#45;&gt;NavigationModule</title>
<path fill="none" stroke="black" d="M207.64,-84.91C207.64,-84.91 207.64,-103.79 207.64,-103.79"/>
<polygon fill="black" stroke="black" points="204.14,-103.79 207.64,-113.79 211.14,-103.79 204.14,-103.79"/>
</g>
<!-- ViewModule -->
<g id="node5" class="node">
<title>ViewModule</title>
<polygon fill="#8dd3c7" stroke="black" points="113.88,-84.8 110.88,-88.8 89.88,-88.8 86.88,-84.8 24.12,-84.8 24.12,-48.8 113.88,-48.8 113.88,-84.8"/>
<text text-anchor="middle" x="69" y="-62.6" font-family="Times,serif" font-size="14.00">ViewModule</text>
</g>
<!-- ViewModule&#45;&gt;NavigationModule -->
<g id="edge4" class="edge">
<title>ViewModule&#45;&gt;NavigationModule</title>
<path fill="none" stroke="black" d="M69,-84.91C69,-104.14 69,-131.8 69,-131.8 69,-131.8 171.01,-131.8 171.01,-131.8"/>
<polygon fill="black" stroke="black" points="171.01,-135.3 181.01,-131.8 171.01,-128.3 171.01,-135.3"/>
</g>
</g>
</svg>
