<?xml version="1.0" encoding="UTF-8" standalone="no"?>
<!DOCTYPE svg PUBLIC "-//W3C//DTD SVG 1.1//EN"
 "http://www.w3.org/Graphics/SVG/1.1/DTD/svg11.dtd">
<!-- Generated by graphviz version 5.0.0 (20220707.1540)
 -->
<!-- Title: dependencies Pages: 1 -->
<svg width="3973pt" height="247pt"
 viewBox="0.00 0.00 3973.00 246.80" xmlns="http://www.w3.org/2000/svg" xmlns:xlink="http://www.w3.org/1999/xlink">
<g id="graph0" class="graph" transform="scale(1 1) rotate(0) translate(4 242.8)">
<title>dependencies</title>
<polygon fill="white" stroke="transparent" points="-4,4 -4,-242.8 3969,-242.8 3969,4 -4,4"/>
<text text-anchor="middle" x="1982.5" y="-8.2" font-family="sans-serif" font-size="14.00">dependencies</text>
<g id="clust1" class="cluster">
<title>cluster_EntityUtilsModule</title>
<polygon fill="none" stroke="black" stroke-dasharray="1,5" points="8,-32.8 8,-230.8 3957,-230.8 3957,-32.8 8,-32.8"/>
</g>
<g id="clust2" class="cluster">
<title>cluster_EntityUtilsModule_declarations</title>
<polygon fill="none" stroke="black" points="484,-40.8 484,-92.8 3949,-92.8 3949,-40.8 484,-40.8"/>
</g>
<g id="clust23" class="cluster">
<title>cluster_EntityUtilsModule_imports</title>
<polygon fill="none" stroke="black" points="16,-40.8 16,-92.8 476,-92.8 476,-40.8 16,-40.8"/>
</g>
<g id="clust24" class="cluster">
<title>cluster_EntityUtilsModule_exports</title>
<polygon fill="none" stroke="black" points="1540,-170.8 1540,-222.8 2300,-222.8 2300,-170.8 1540,-170.8"/>
</g>
<!-- DisplayCheckmarkComponent -->
<g id="node1" class="node">
<title>DisplayCheckmarkComponent</title>
<polygon fill="#ffffb3" stroke="black" points="3940.91,-84.8 3751.09,-84.8 3751.09,-48.8 3940.91,-48.8 3940.91,-84.8"/>
<text text-anchor="middle" x="3846" y="-62.6" font-family="Times,serif" font-size="14.00">DisplayCheckmarkComponent</text>
</g>
<!-- EntityUtilsModule -->
<g id="node21" class="node">
<title>EntityUtilsModule</title>
<polygon fill="#8dd3c7" stroke="black" points="1963.5,-149.8 1960.5,-153.8 1939.5,-153.8 1936.5,-149.8 1842.5,-149.8 1842.5,-113.8 1963.5,-113.8 1963.5,-149.8"/>
<text text-anchor="middle" x="1903" y="-127.6" font-family="Times,serif" font-size="14.00">EntityUtilsModule</text>
</g>
<!-- DisplayCheckmarkComponent&#45;&gt;EntityUtilsModule -->
<g id="edge1" class="edge">
<title>DisplayCheckmarkComponent&#45;&gt;EntityUtilsModule</title>
<path fill="none" stroke="black" d="M3846,-84.89C3846,-107.93 3846,-144.8 3846,-144.8 3846,-144.8 1973.55,-144.8 1973.55,-144.8"/>
<polygon fill="black" stroke="black" points="1973.55,-141.3 1963.55,-144.8 1973.55,-148.3 1973.55,-141.3"/>
</g>
<!-- DisplayDateComponent -->
<g id="node2" class="node">
<title>DisplayDateComponent</title>
<polygon fill="#ffffb3" stroke="black" points="3733.81,-84.8 3582.19,-84.8 3582.19,-48.8 3733.81,-48.8 3733.81,-84.8"/>
<text text-anchor="middle" x="3658" y="-62.6" font-family="Times,serif" font-size="14.00">DisplayDateComponent</text>
</g>
<!-- DisplayDateComponent&#45;&gt;EntityUtilsModule -->
<g id="edge2" class="edge">
<title>DisplayDateComponent&#45;&gt;EntityUtilsModule</title>
<path fill="none" stroke="black" d="M3658,-84.96C3658,-107.15 3658,-141.8 3658,-141.8 3658,-141.8 1973.67,-141.8 1973.67,-141.8"/>
<polygon fill="black" stroke="black" points="1973.67,-138.3 1963.67,-141.8 1973.67,-145.3 1973.67,-138.3"/>
</g>
<!-- DisplayEntityArrayComponent -->
<g id="node3" class="node">
<title>DisplayEntityArrayComponent</title>
<polygon fill="#ffffb3" stroke="black" points="3563.75,-84.8 3372.25,-84.8 3372.25,-48.8 3563.75,-48.8 3563.75,-84.8"/>
<text text-anchor="middle" x="3468" y="-62.6" font-family="Times,serif" font-size="14.00">DisplayEntityArrayComponent</text>
</g>
<!-- DisplayEntityArrayComponent&#45;&gt;EntityUtilsModule -->
<g id="edge3" class="edge">
<title>DisplayEntityArrayComponent&#45;&gt;EntityUtilsModule</title>
<path fill="none" stroke="black" d="M3468,-84.97C3468,-106.3 3468,-138.8 3468,-138.8 3468,-138.8 1973.87,-138.8 1973.87,-138.8"/>
<polygon fill="black" stroke="black" points="1973.87,-135.3 1963.87,-138.8 1973.87,-142.3 1973.87,-135.3"/>
</g>
<!-- DisplayEntityComponent -->
<g id="node4" class="node">
<title>DisplayEntityComponent</title>
<polygon fill="#ffffb3" stroke="black" points="3354.6,-84.8 3195.4,-84.8 3195.4,-48.8 3354.6,-48.8 3354.6,-84.8"/>
<text text-anchor="middle" x="3275" y="-62.6" font-family="Times,serif" font-size="14.00">DisplayEntityComponent</text>
</g>
<!-- DisplayEntityComponent&#45;&gt;EntityUtilsModule -->
<g id="edge4" class="edge">
<title>DisplayEntityComponent&#45;&gt;EntityUtilsModule</title>
<path fill="none" stroke="black" d="M3275,-84.83C3275,-105.57 3275,-136.8 3275,-136.8 3275,-136.8 1973.72,-136.8 1973.72,-136.8"/>
<polygon fill="black" stroke="black" points="1973.72,-133.3 1963.72,-136.8 1973.72,-140.3 1973.72,-133.3"/>
</g>
<!-- DisplayPercentageComponent -->
<g id="node5" class="node">
<title>DisplayPercentageComponent</title>
<polygon fill="#ffffb3" stroke="black" points="3177.29,-84.8 2990.71,-84.8 2990.71,-48.8 3177.29,-48.8 3177.29,-84.8"/>
<text text-anchor="middle" x="3084" y="-62.6" font-family="Times,serif" font-size="14.00">DisplayPercentageComponent</text>
</g>
<!-- DisplayPercentageComponent&#45;&gt;EntityUtilsModule -->
<g id="edge5" class="edge">
<title>DisplayPercentageComponent&#45;&gt;EntityUtilsModule</title>
<path fill="none" stroke="black" d="M3084,-85.11C3084,-104.95 3084,-133.8 3084,-133.8 3084,-133.8 1973.6,-133.8 1973.6,-133.8"/>
<polygon fill="black" stroke="black" points="1973.6,-130.3 1963.6,-133.8 1973.6,-137.3 1973.6,-130.3"/>
</g>
<!-- DisplayTextComponent -->
<g id="node6" class="node">
<title>DisplayTextComponent</title>
<polygon fill="#ffffb3" stroke="black" points="2973.04,-84.8 2822.96,-84.8 2822.96,-48.8 2973.04,-48.8 2973.04,-84.8"/>
<text text-anchor="middle" x="2898" y="-62.6" font-family="Times,serif" font-size="14.00">DisplayTextComponent</text>
</g>
<!-- DisplayTextComponent&#45;&gt;EntityUtilsModule -->
<g id="edge6" class="edge">
<title>DisplayTextComponent&#45;&gt;EntityUtilsModule</title>
<path fill="none" stroke="black" d="M2898,-84.97C2898,-103.89 2898,-130.8 2898,-130.8 2898,-130.8 1973.74,-130.8 1973.74,-130.8"/>
<polygon fill="black" stroke="black" points="1973.74,-127.3 1963.74,-130.8 1973.74,-134.3 1973.74,-127.3"/>
</g>
<!-- DisplayUnitComponent -->
<g id="node7" class="node">
<title>DisplayUnitComponent</title>
<polygon fill="#ffffb3" stroke="black" points="2804.77,-84.8 2655.23,-84.8 2655.23,-48.8 2804.77,-48.8 2804.77,-84.8"/>
<text text-anchor="middle" x="2730" y="-62.6" font-family="Times,serif" font-size="14.00">DisplayUnitComponent</text>
</g>
<!-- DisplayUnitComponent&#45;&gt;EntityUtilsModule -->
<g id="edge7" class="edge">
<title>DisplayUnitComponent&#45;&gt;EntityUtilsModule</title>
<path fill="none" stroke="black" d="M2730,-85.1C2730,-103.07 2730,-127.8 2730,-127.8 2730,-127.8 1973.81,-127.8 1973.81,-127.8"/>
<polygon fill="black" stroke="black" points="1973.81,-124.3 1963.81,-127.8 1973.81,-131.3 1973.81,-124.3"/>
</g>
<!-- EditAgeComponent -->
<g id="node8" class="node">
<title>EditAgeComponent</title>
<polygon fill="#ffffb3" stroke="black" points="2636.99,-84.8 2509.01,-84.8 2509.01,-48.8 2636.99,-48.8 2636.99,-84.8"/>
<text text-anchor="middle" x="2573" y="-62.6" font-family="Times,serif" font-size="14.00">EditAgeComponent</text>
</g>
<!-- EditAgeComponent&#45;&gt;EntityUtilsModule -->
<g id="edge8" class="edge">
<title>EditAgeComponent&#45;&gt;EntityUtilsModule</title>
<path fill="none" stroke="black" d="M2573,-84.82C2573,-102.17 2573,-125.8 2573,-125.8 2573,-125.8 1973.64,-125.8 1973.64,-125.8"/>
<polygon fill="black" stroke="black" points="1973.64,-122.3 1963.64,-125.8 1973.64,-129.3 1973.64,-122.3"/>
</g>
<!-- EditBooleanComponent -->
<g id="node9" class="node">
<title>EditBooleanComponent</title>
<polygon fill="#ffffb3" stroke="black" points="2490.82,-84.8 2339.18,-84.8 2339.18,-48.8 2490.82,-48.8 2490.82,-84.8"/>
<text text-anchor="middle" x="2415" y="-62.6" font-family="Times,serif" font-size="14.00">EditBooleanComponent</text>
</g>
<!-- EditBooleanComponent&#45;&gt;EntityUtilsModule -->
<g id="edge9" class="edge">
<title>EditBooleanComponent&#45;&gt;EntityUtilsModule</title>
<path fill="none" stroke="black" d="M2415,-84.83C2415,-101.2 2415,-122.8 2415,-122.8 2415,-122.8 1973.74,-122.8 1973.74,-122.8"/>
<polygon fill="black" stroke="black" points="1973.74,-119.3 1963.74,-122.8 1973.74,-126.3 1973.74,-119.3"/>
</g>
<!-- EditDateComponent -->
<g id="node10" class="node">
<title>EditDateComponent</title>
<polygon fill="#ffffb3" stroke="black" points="2321.59,-84.8 2190.41,-84.8 2190.41,-48.8 2321.59,-48.8 2321.59,-84.8"/>
<text text-anchor="middle" x="2256" y="-62.6" font-family="Times,serif" font-size="14.00">EditDateComponent</text>
</g>
<!-- EditDateComponent&#45;&gt;EntityUtilsModule -->
<g id="edge10" class="edge">
<title>EditDateComponent&#45;&gt;EntityUtilsModule</title>
<path fill="none" stroke="black" d="M2241.04,-85.04C2241.04,-100.37 2241.04,-119.8 2241.04,-119.8 2241.04,-119.8 1973.83,-119.8 1973.83,-119.8"/>
<polygon fill="black" stroke="black" points="1973.83,-116.3 1963.83,-119.8 1973.83,-123.3 1973.83,-116.3"/>
</g>
<!-- EditEntityArrayComponent -->
<g id="node11" class="node">
<title>EditEntityArrayComponent</title>
<polygon fill="#ffffb3" stroke="black" points="2172.53,-84.8 2001.47,-84.8 2001.47,-48.8 2172.53,-48.8 2172.53,-84.8"/>
<text text-anchor="middle" x="2087" y="-62.6" font-family="Times,serif" font-size="14.00">EditEntityArrayComponent</text>
</g>
<!-- EditEntityArrayComponent&#45;&gt;EntityUtilsModule -->
<g id="edge11" class="edge">
<title>EditEntityArrayComponent&#45;&gt;EntityUtilsModule</title>
<path fill="none" stroke="black" d="M2039.77,-84.85C2039.77,-99.17 2039.77,-116.8 2039.77,-116.8 2039.77,-116.8 1973.78,-116.8 1973.78,-116.8"/>
<polygon fill="black" stroke="black" points="1973.78,-113.3 1963.78,-116.8 1973.78,-120.3 1973.78,-113.3"/>
</g>
<!-- EditLongTextComponent -->
<g id="node12" class="node">
<title>EditLongTextComponent</title>
<polygon fill="#ffffb3" stroke="black" points="1982.87,-84.8 1823.13,-84.8 1823.13,-48.8 1982.87,-48.8 1982.87,-84.8"/>
<text text-anchor="middle" x="1903" y="-62.6" font-family="Times,serif" font-size="14.00">EditLongTextComponent</text>
</g>
<!-- EditLongTextComponent&#45;&gt;EntityUtilsModule -->
<g id="edge12" class="edge">
<title>EditLongTextComponent&#45;&gt;EntityUtilsModule</title>
<path fill="none" stroke="black" d="M1903,-84.91C1903,-84.91 1903,-103.79 1903,-103.79"/>
<polygon fill="black" stroke="black" points="1899.5,-103.79 1903,-113.79 1906.5,-103.79 1899.5,-103.79"/>
</g>
<!-- EditNumberComponent -->
<g id="node13" class="node">
<title>EditNumberComponent</title>
<polygon fill="#ffffb3" stroke="black" points="1805.04,-84.8 1654.96,-84.8 1654.96,-48.8 1805.04,-48.8 1805.04,-84.8"/>
<text text-anchor="middle" x="1730" y="-62.6" font-family="Times,serif" font-size="14.00">EditNumberComponent</text>
</g>
<!-- EditNumberComponent&#45;&gt;EntityUtilsModule -->
<g id="edge13" class="edge">
<title>EditNumberComponent&#45;&gt;EntityUtilsModule</title>
<path fill="none" stroke="black" d="M1762.59,-84.85C1762.59,-99.17 1762.59,-116.8 1762.59,-116.8 1762.59,-116.8 1832.23,-116.8 1832.23,-116.8"/>
<polygon fill="black" stroke="black" points="1832.23,-120.3 1842.23,-116.8 1832.23,-113.3 1832.23,-120.3"/>
</g>
<!-- EditPhotoComponent -->
<g id="node14" class="node">
<title>EditPhotoComponent</title>
<polygon fill="#ffffb3" stroke="black" points="1636.84,-84.8 1499.16,-84.8 1499.16,-48.8 1636.84,-48.8 1636.84,-84.8"/>
<text text-anchor="middle" x="1568" y="-62.6" font-family="Times,serif" font-size="14.00">EditPhotoComponent</text>
</g>
<!-- EditPhotoComponent&#45;&gt;EntityUtilsModule -->
<g id="edge14" class="edge">
<title>EditPhotoComponent&#45;&gt;EntityUtilsModule</title>
<path fill="none" stroke="black" d="M1592.52,-85.04C1592.52,-100.37 1592.52,-119.8 1592.52,-119.8 1592.52,-119.8 1832.4,-119.8 1832.4,-119.8"/>
<polygon fill="black" stroke="black" points="1832.4,-123.3 1842.4,-119.8 1832.4,-116.3 1832.4,-123.3"/>
</g>
<!-- EditSingleEntityComponent -->
<g id="node15" class="node">
<title>EditSingleEntityComponent</title>
<polygon fill="#ffffb3" stroke="black" points="1481.16,-84.8 1306.84,-84.8 1306.84,-48.8 1481.16,-48.8 1481.16,-84.8"/>
<text text-anchor="middle" x="1394" y="-62.6" font-family="Times,serif" font-size="14.00">EditSingleEntityComponent</text>
</g>
<!-- EditSingleEntityComponent&#45;&gt;EntityUtilsModule -->
<g id="edge15" class="edge">
<title>EditSingleEntityComponent&#45;&gt;EntityUtilsModule</title>
<path fill="none" stroke="black" d="M1394,-84.83C1394,-101.2 1394,-122.8 1394,-122.8 1394,-122.8 1832.36,-122.8 1832.36,-122.8"/>
<polygon fill="black" stroke="black" points="1832.36,-126.3 1842.36,-122.8 1832.36,-119.3 1832.36,-126.3"/>
</g>
<!-- EditTextComponent -->
<g id="node16" class="node">
<title>EditTextComponent</title>
<polygon fill="#ffffb3" stroke="black" points="1289.32,-84.8 1158.68,-84.8 1158.68,-48.8 1289.32,-48.8 1289.32,-84.8"/>
<text text-anchor="middle" x="1224" y="-62.6" font-family="Times,serif" font-size="14.00">EditTextComponent</text>
</g>
<!-- EditTextComponent&#45;&gt;EntityUtilsModule -->
<g id="edge16" class="edge">
<title>EditTextComponent&#45;&gt;EntityUtilsModule</title>
<path fill="none" stroke="black" d="M1224,-84.82C1224,-102.17 1224,-125.8 1224,-125.8 1224,-125.8 1832.44,-125.8 1832.44,-125.8"/>
<polygon fill="black" stroke="black" points="1832.44,-129.3 1842.44,-125.8 1832.44,-122.3 1832.44,-129.3"/>
</g>
<!-- EntityFunctionPipe -->
<g id="node17" class="node">
<title>EntityFunctionPipe</title>
<polygon fill="#ffffb3" stroke="black" points="1140.39,-84.8 1015.61,-84.8 1015.61,-48.8 1140.39,-48.8 1140.39,-84.8"/>
<text text-anchor="middle" x="1078" y="-62.6" font-family="Times,serif" font-size="14.00">EntityFunctionPipe</text>
</g>
<!-- EntityFunctionPipe&#45;&gt;EntityUtilsModule -->
<g id="edge17" class="edge">
<title>EntityFunctionPipe&#45;&gt;EntityUtilsModule</title>
<path fill="none" stroke="black" d="M1078,-85.1C1078,-103.07 1078,-127.8 1078,-127.8 1078,-127.8 1832.34,-127.8 1832.34,-127.8"/>
<polygon fill="black" stroke="black" points="1832.34,-131.3 1842.34,-127.8 1832.34,-124.3 1832.34,-131.3"/>
</g>
<!-- EntitySelectComponent -->
<g id="node18" class="node">
<title>EntitySelectComponent</title>
<polygon fill="#ffffb3" stroke="black" points="997.76,-84.8 848.24,-84.8 848.24,-48.8 997.76,-48.8 997.76,-84.8"/>
<text text-anchor="middle" x="923" y="-62.6" font-family="Times,serif" font-size="14.00">EntitySelectComponent</text>
</g>
<!-- EntitySelectComponent&#45;&gt;EntityUtilsModule -->
<g id="edge18" class="edge">
<title>EntitySelectComponent&#45;&gt;EntityUtilsModule</title>
<path fill="none" stroke="black" d="M923,-84.97C923,-103.89 923,-130.8 923,-130.8 923,-130.8 1832.44,-130.8 1832.44,-130.8"/>
<polygon fill="black" stroke="black" points="1832.44,-134.3 1842.44,-130.8 1832.44,-127.3 1832.44,-134.3"/>
</g>
<!-- ErrorHintComponent -->
<g id="node19" class="node">
<title>ErrorHintComponent</title>
<polygon fill="#ffffb3" stroke="black" points="829.76,-84.8 694.24,-84.8 694.24,-48.8 829.76,-48.8 829.76,-84.8"/>
<text text-anchor="middle" x="762" y="-62.6" font-family="Times,serif" font-size="14.00">ErrorHintComponent</text>
</g>
<!-- ErrorHintComponent&#45;&gt;EntityUtilsModule -->
<g id="edge19" class="edge">
<title>ErrorHintComponent&#45;&gt;EntityUtilsModule</title>
<path fill="none" stroke="black" d="M762,-85.11C762,-104.95 762,-133.8 762,-133.8 762,-133.8 1832.46,-133.8 1832.46,-133.8"/>
<polygon fill="black" stroke="black" points="1832.46,-137.3 1842.46,-133.8 1832.46,-130.3 1832.46,-137.3"/>
</g>
<!-- ReadonlyFunctionComponent -->
<g id="node20" class="node">
<title>ReadonlyFunctionComponent</title>
<polygon fill="#ffffb3" stroke="black" points="676.27,-84.8 491.73,-84.8 491.73,-48.8 676.27,-48.8 676.27,-84.8"/>
<text text-anchor="middle" x="584" y="-62.6" font-family="Times,serif" font-size="14.00">ReadonlyFunctionComponent</text>
</g>
<!-- ReadonlyFunctionComponent&#45;&gt;EntityUtilsModule -->
<g id="edge20" class="edge">
<title>ReadonlyFunctionComponent&#45;&gt;EntityUtilsModule</title>
<path fill="none" stroke="black" d="M584,-84.83C584,-105.57 584,-136.8 584,-136.8 584,-136.8 1832.46,-136.8 1832.46,-136.8"/>
<polygon fill="black" stroke="black" points="1832.46,-140.3 1842.46,-136.8 1832.46,-133.3 1832.46,-140.3"/>
</g>
<!-- DisplayEntityArrayComponent  -->
<g id="node25" class="node">
<title>DisplayEntityArrayComponent </title>
<polygon fill="#fb8072" stroke="black" points="2291.75,-214.8 2096.25,-214.8 2096.25,-178.8 2291.75,-178.8 2291.75,-214.8"/>
<text text-anchor="middle" x="2194" y="-192.6" font-family="Times,serif" font-size="14.00">DisplayEntityArrayComponent </text>
</g>
<!-- EntityUtilsModule&#45;&gt;DisplayEntityArrayComponent  -->
<g id="edge24" class="edge">
<title>EntityUtilsModule&#45;&gt;DisplayEntityArrayComponent </title>
<path fill="none" stroke="black" stroke-dasharray="5,2" d="M1963.54,-147.8C2032.15,-147.8 2134.57,-147.8 2134.57,-147.8 2134.57,-147.8 2134.57,-168.55 2134.57,-168.55"/>
<polygon fill="black" stroke="black" points="2131.07,-168.55 2134.57,-178.55 2138.07,-168.55 2131.07,-168.55"/>
</g>
<!-- DisplayEntityComponent  -->
<g id="node26" class="node">
<title>DisplayEntityComponent </title>
<polygon fill="#fb8072" stroke="black" points="2078.1,-214.8 1915.9,-214.8 1915.9,-178.8 2078.1,-178.8 2078.1,-214.8"/>
<text text-anchor="middle" x="1997" y="-192.6" font-family="Times,serif" font-size="14.00">DisplayEntityComponent </text>
</g>
<!-- EntityUtilsModule&#45;&gt;DisplayEntityComponent  -->
<g id="edge25" class="edge">
<title>EntityUtilsModule&#45;&gt;DisplayEntityComponent </title>
<path fill="none" stroke="black" stroke-dasharray="5,2" d="M1939.6,-149.91C1939.6,-149.91 1939.6,-168.79 1939.6,-168.79"/>
<polygon fill="black" stroke="black" points="1936.1,-168.79 1939.6,-178.79 1943.1,-168.79 1936.1,-168.79"/>
</g>
<!-- EditSingleEntityComponent  -->
<g id="node27" class="node">
<title>EditSingleEntityComponent </title>
<polygon fill="#fb8072" stroke="black" points="1898.16,-214.8 1719.84,-214.8 1719.84,-178.8 1898.16,-178.8 1898.16,-214.8"/>
<text text-anchor="middle" x="1809" y="-192.6" font-family="Times,serif" font-size="14.00">EditSingleEntityComponent </text>
</g>
<!-- EntityUtilsModule&#45;&gt;EditSingleEntityComponent  -->
<g id="edge26" class="edge">
<title>EntityUtilsModule&#45;&gt;EditSingleEntityComponent </title>
<path fill="none" stroke="black" stroke-dasharray="5,2" d="M1870.29,-149.91C1870.29,-149.91 1870.29,-168.79 1870.29,-168.79"/>
<polygon fill="black" stroke="black" points="1866.79,-168.79 1870.29,-178.79 1873.79,-168.79 1866.79,-168.79"/>
</g>
<!-- EntitySelectComponent  -->
<g id="node28" class="node">
<title>EntitySelectComponent </title>
<polygon fill="#fb8072" stroke="black" points="1701.76,-214.8 1548.24,-214.8 1548.24,-178.8 1701.76,-178.8 1701.76,-214.8"/>
<text text-anchor="middle" x="1625" y="-192.6" font-family="Times,serif" font-size="14.00">EntitySelectComponent </text>
</g>
<!-- EntityUtilsModule&#45;&gt;EntitySelectComponent  -->
<g id="edge27" class="edge">
<title>EntityUtilsModule&#45;&gt;EntitySelectComponent </title>
<path fill="none" stroke="black" stroke-dasharray="5,2" d="M1842.46,-147.8C1775.87,-147.8 1678.18,-147.8 1678.18,-147.8 1678.18,-147.8 1678.18,-168.55 1678.18,-168.55"/>
<polygon fill="black" stroke="black" points="1674.68,-168.55 1678.18,-178.55 1681.68,-168.55 1674.68,-168.55"/>
</g>
<!-- ConfigurableEnumModule -->
<g id="node22" class="node">
<title>ConfigurableEnumModule</title>
<polygon fill="#8dd3c7" stroke="black" points="468.36,-84.8 465.36,-88.8 444.36,-88.8 441.36,-84.8 301.64,-84.8 301.64,-48.8 468.36,-48.8 468.36,-84.8"/>
<text text-anchor="middle" x="385" y="-62.6" font-family="Times,serif" font-size="14.00">ConfigurableEnumModule</text>
</g>
<!-- ConfigurableEnumModule&#45;&gt;EntityUtilsModule -->
<g id="edge21" class="edge">
<title>ConfigurableEnumModule&#45;&gt;EntityUtilsModule</title>
<path fill="none" stroke="black" d="M385,-84.97C385,-106.3 385,-138.8 385,-138.8 385,-138.8 1832.08,-138.8 1832.08,-138.8"/>
<polygon fill="black" stroke="black" points="1832.09,-142.3 1842.08,-138.8 1832.08,-135.3 1832.09,-142.3"/>
</g>
<!-- EntitySubrecordModule -->
<g id="node23" class="node">
<title>EntitySubrecordModule</title>
<polygon fill="#8dd3c7" stroke="black" points="283.81,-84.8 280.81,-88.8 259.81,-88.8 256.81,-84.8 132.19,-84.8 132.19,-48.8 283.81,-48.8 283.81,-84.8"/>
<text text-anchor="middle" x="208" y="-62.6" font-family="Times,serif" font-size="14.00">EntitySubrecordModule</text>
</g>
<!-- EntitySubrecordModule&#45;&gt;EntityUtilsModule -->
<g id="edge22" class="edge">
<title>EntitySubrecordModule&#45;&gt;EntityUtilsModule</title>
<path fill="none" stroke="black" d="M208,-84.96C208,-107.15 208,-141.8 208,-141.8 208,-141.8 1832.42,-141.8 1832.42,-141.8"/>
<polygon fill="black" stroke="black" points="1832.42,-145.3 1842.42,-141.8 1832.42,-138.3 1832.42,-145.3"/>
</g>
<!-- ViewModule -->
<g id="node24" class="node">
<title>ViewModule</title>
<polygon fill="#8dd3c7" stroke="black" points="113.88,-84.8 110.88,-88.8 89.88,-88.8 86.88,-84.8 24.12,-84.8 24.12,-48.8 113.88,-48.8 113.88,-84.8"/>
<text text-anchor="middle" x="69" y="-62.6" font-family="Times,serif" font-size="14.00">ViewModule</text>
</g>
<!-- ViewModule&#45;&gt;EntityUtilsModule -->
<g id="edge23" class="edge">
<title>ViewModule&#45;&gt;EntityUtilsModule</title>
<path fill="none" stroke="black" d="M69,-84.89C69,-107.93 69,-144.8 69,-144.8 69,-144.8 1832.24,-144.8 1832.24,-144.8"/>
<polygon fill="black" stroke="black" points="1832.24,-148.3 1842.24,-144.8 1832.24,-141.3 1832.24,-148.3"/>
</g>
</g>
</svg>
