<?xml version="1.0" encoding="UTF-8" standalone="no"?>
<!DOCTYPE svg PUBLIC "-//W3C//DTD SVG 1.1//EN"
 "http://www.w3.org/Graphics/SVG/1.1/DTD/svg11.dtd">
<!-- Generated by graphviz version 5.0.0 (20220707.1540)
 -->
<!-- Title: dependencies Pages: 1 -->
<svg width="675pt" height="174pt"
 viewBox="0.00 0.00 675.00 173.80" xmlns="http://www.w3.org/2000/svg" xmlns:xlink="http://www.w3.org/1999/xlink">
<g id="graph0" class="graph" transform="scale(1 1) rotate(0) translate(4 169.8)">
<title>dependencies</title>
<polygon fill="white" stroke="transparent" points="-4,4 -4,-169.8 671,-169.8 671,4 -4,4"/>
<text text-anchor="middle" x="333.5" y="-8.2" font-family="sans-serif" font-size="14.00">dependencies</text>
<g id="clust1" class="cluster">
<title>cluster_ConflictResolutionModule</title>
<polygon fill="none" stroke="black" stroke-dasharray="1,5" points="8,-32.8 8,-157.8 659,-157.8 659,-32.8 8,-32.8"/>
</g>
<g id="clust2" class="cluster">
<title>cluster_ConflictResolutionModule_declarations</title>
<polygon fill="none" stroke="black" points="252,-40.8 252,-92.8 651,-92.8 651,-40.8 252,-40.8"/>
</g>
<g id="clust5" class="cluster">
<title>cluster_ConflictResolutionModule_imports</title>
<polygon fill="none" stroke="black" points="16,-40.8 16,-92.8 244,-92.8 244,-40.8 16,-40.8"/>
</g>
<!-- CompareRevComponent -->
<g id="node1" class="node">
<title>CompareRevComponent</title>
<polygon fill="#ffffb3" stroke="black" points="642.7,-84.8 487.3,-84.8 487.3,-48.8 642.7,-48.8 642.7,-84.8"/>
<text text-anchor="middle" x="565" y="-62.6" font-family="Times,serif" font-size="14.00">CompareRevComponent</text>
</g>
<!-- ConflictResolutionModule -->
<g id="node3" class="node">
<title>ConflictResolutionModule</title>
<polygon fill="#8dd3c7" stroke="black" points="448.1,-149.8 445.1,-153.8 424.1,-153.8 421.1,-149.8 281.9,-149.8 281.9,-113.8 448.1,-113.8 448.1,-149.8"/>
<text text-anchor="middle" x="365" y="-127.6" font-family="Times,serif" font-size="14.00">ConflictResolutionModule</text>
</g>
<!-- CompareRevComponent&#45;&gt;ConflictResolutionModule -->
<g id="edge1" class="edge">
<title>CompareRevComponent&#45;&gt;ConflictResolutionModule</title>
<path fill="none" stroke="black" d="M565,-84.91C565,-104.14 565,-131.8 565,-131.8 565,-131.8 458.08,-131.8 458.08,-131.8"/>
<polygon fill="black" stroke="black" points="458.08,-128.3 448.08,-131.8 458.08,-135.3 458.08,-128.3"/>
</g>
<!-- ConflictResolutionListComponent -->
<g id="node2" class="node">
<title>ConflictResolutionListComponent</title>
<polygon fill="#ffffb3" stroke="black" points="469.66,-84.8 260.34,-84.8 260.34,-48.8 469.66,-48.8 469.66,-84.8"/>
<text text-anchor="middle" x="365" y="-62.6" font-family="Times,serif" font-size="14.00">ConflictResolutionListComponent</text>
</g>
<!-- ConflictResolutionListComponent&#45;&gt;ConflictResolutionModule -->
<g id="edge2" class="edge">
<title>ConflictResolutionListComponent&#45;&gt;ConflictResolutionModule</title>
<path fill="none" stroke="black" d="M365,-84.91C365,-84.91 365,-103.79 365,-103.79"/>
<polygon fill="black" stroke="black" points="361.5,-103.79 365,-113.79 368.5,-103.79 361.5,-103.79"/>
</g>
<!-- ConflictResolutionRoutingModule -->
<g id="node4" class="node">
<title>ConflictResolutionRoutingModule</title>
<polygon fill="#8dd3c7" stroke="black" points="235.72,-84.8 232.72,-88.8 211.72,-88.8 208.72,-84.8 24.28,-84.8 24.28,-48.8 235.72,-48.8 235.72,-84.8"/>
<text text-anchor="middle" x="130" y="-62.6" font-family="Times,serif" font-size="14.00">ConflictResolutionRoutingModule</text>
</g>
<!-- ConflictResolutionRoutingModule&#45;&gt;ConflictResolutionModule -->
<g id="edge3" class="edge">
<title>ConflictResolutionRoutingModule&#45;&gt;ConflictResolutionModule</title>
<path fill="none" stroke="black" d="M130,-84.91C130,-104.14 130,-131.8 130,-131.8 130,-131.8 271.82,-131.8 271.82,-131.8"/>
<polygon fill="black" stroke="black" points="271.82,-135.3 281.82,-131.8 271.82,-128.3 271.82,-135.3"/>
</g>
</g>
</svg>
