<?xml version="1.0" encoding="UTF-8" standalone="no"?>
<!DOCTYPE svg PUBLIC "-//W3C//DTD SVG 1.1//EN"
 "http://www.w3.org/Graphics/SVG/1.1/DTD/svg11.dtd">
<!-- Generated by graphviz version 5.0.0 (20220707.1540)
 -->
<!-- Title: dependencies Pages: 1 -->
<svg width="954pt" height="247pt"
 viewBox="0.00 0.00 954.00 246.80" xmlns="http://www.w3.org/2000/svg" xmlns:xlink="http://www.w3.org/1999/xlink">
<g id="graph0" class="graph" transform="scale(1 1) rotate(0) translate(4 242.8)">
<title>dependencies</title>
<polygon fill="white" stroke="transparent" points="-4,4 -4,-242.8 950,-242.8 950,4 -4,4"/>
<text text-anchor="middle" x="473" y="-8.2" font-family="sans-serif" font-size="14.00">dependencies</text>
<g id="clust1" class="cluster">
<title>cluster_ViewModule</title>
<polygon fill="none" stroke="black" stroke-dasharray="1,5" points="8,-32.8 8,-230.8 938,-230.8 938,-32.8 8,-32.8"/>
</g>
<g id="clust2" class="cluster">
<title>cluster_ViewModule_declarations</title>
<polygon fill="none" stroke="black" points="16,-40.8 16,-92.8 930,-92.8 930,-40.8 16,-40.8"/>
</g>
<g id="clust9" class="cluster">
<title>cluster_ViewModule_exports</title>
<polygon fill="none" stroke="black" points="87,-170.8 87,-222.8 860,-222.8 860,-170.8 87,-170.8"/>
</g>
<!-- ApplicationLoadingComponent -->
<g id="node1" class="node">
<title>ApplicationLoadingComponent</title>
<polygon fill="#ffffb3" stroke="black" points="922.08,-84.8 727.92,-84.8 727.92,-48.8 922.08,-48.8 922.08,-84.8"/>
<text text-anchor="middle" x="825" y="-62.6" font-family="Times,serif" font-size="14.00">ApplicationLoadingComponent</text>
</g>
<!-- ViewModule -->
<g id="node6" class="node">
<title>ViewModule</title>
<polygon fill="#8dd3c7" stroke="black" points="466.88,-149.8 463.88,-153.8 442.88,-153.8 439.88,-149.8 377.12,-149.8 377.12,-113.8 466.88,-113.8 466.88,-149.8"/>
<text text-anchor="middle" x="422" y="-127.6" font-family="Times,serif" font-size="14.00">ViewModule</text>
</g>
<!-- ApplicationLoadingComponent&#45;&gt;ViewModule -->
<g id="edge1" class="edge">
<title>ApplicationLoadingComponent&#45;&gt;ViewModule</title>
<path fill="none" stroke="black" d="M789.88,-84.91C789.88,-104.14 789.88,-131.8 789.88,-131.8 789.88,-131.8 477.11,-131.8 477.11,-131.8"/>
<polygon fill="black" stroke="black" points="477.11,-128.3 467.11,-131.8 477.11,-135.3 477.11,-128.3"/>
</g>
<!-- DynamicComponentDirective -->
<g id="node2" class="node">
<title>DynamicComponentDirective</title>
<polygon fill="#ffffb3" stroke="black" points="710.23,-84.8 525.77,-84.8 525.77,-48.8 710.23,-48.8 710.23,-84.8"/>
<text text-anchor="middle" x="618" y="-62.6" font-family="Times,serif" font-size="14.00">DynamicComponentDirective</text>
</g>
<!-- DynamicComponentDirective&#45;&gt;ViewModule -->
<g id="edge2" class="edge">
<title>DynamicComponentDirective&#45;&gt;ViewModule</title>
<path fill="none" stroke="black" d="M580.88,-84.83C580.88,-101.2 580.88,-122.8 580.88,-122.8 580.88,-122.8 477.1,-122.8 477.1,-122.8"/>
<polygon fill="black" stroke="black" points="477.1,-119.3 467.1,-122.8 477.1,-126.3 477.1,-119.3"/>
</g>
<!-- FaDynamicIconComponent -->
<g id="node3" class="node">
<title>FaDynamicIconComponent</title>
<polygon fill="#ffffb3" stroke="black" points="507.53,-84.8 336.47,-84.8 336.47,-48.8 507.53,-48.8 507.53,-84.8"/>
<text text-anchor="middle" x="422" y="-62.6" font-family="Times,serif" font-size="14.00">FaDynamicIconComponent</text>
</g>
<!-- FaDynamicIconComponent&#45;&gt;ViewModule -->
<g id="edge3" class="edge">
<title>FaDynamicIconComponent&#45;&gt;ViewModule</title>
<path fill="none" stroke="black" d="M422,-84.91C422,-84.91 422,-103.79 422,-103.79"/>
<polygon fill="black" stroke="black" points="418.5,-103.79 422,-113.79 425.5,-103.79 418.5,-103.79"/>
</g>
<!-- NotFoundComponent -->
<g id="node4" class="node">
<title>NotFoundComponent</title>
<polygon fill="#ffffb3" stroke="black" points="318.12,-84.8 179.88,-84.8 179.88,-48.8 318.12,-48.8 318.12,-84.8"/>
<text text-anchor="middle" x="249" y="-62.6" font-family="Times,serif" font-size="14.00">NotFoundComponent</text>
</g>
<!-- NotFoundComponent&#45;&gt;ViewModule -->
<g id="edge4" class="edge">
<title>NotFoundComponent&#45;&gt;ViewModule</title>
<path fill="none" stroke="black" d="M286.27,-84.83C286.27,-101.2 286.27,-122.8 286.27,-122.8 286.27,-122.8 366.8,-122.8 366.8,-122.8"/>
<polygon fill="black" stroke="black" points="366.8,-126.3 376.8,-122.8 366.8,-119.3 366.8,-126.3"/>
</g>
<!-- ViewTitleComponent -->
<g id="node5" class="node">
<title>ViewTitleComponent</title>
<polygon fill="#ffffb3" stroke="black" points="162.09,-84.8 23.91,-84.8 23.91,-48.8 162.09,-48.8 162.09,-84.8"/>
<text text-anchor="middle" x="93" y="-62.6" font-family="Times,serif" font-size="14.00">ViewTitleComponent</text>
</g>
<!-- ViewTitleComponent&#45;&gt;ViewModule -->
<g id="edge5" class="edge">
<title>ViewTitleComponent&#45;&gt;ViewModule</title>
<path fill="none" stroke="black" d="M128.62,-84.91C128.62,-104.14 128.62,-131.8 128.62,-131.8 128.62,-131.8 367.12,-131.8 367.12,-131.8"/>
<polygon fill="black" stroke="black" points="367.12,-135.3 377.12,-131.8 367.12,-128.3 367.12,-135.3"/>
</g>
<!-- ApplicationLoadingComponent  -->
<g id="node7" class="node">
<title>ApplicationLoadingComponent </title>
<polygon fill="#fb8072" stroke="black" points="851.58,-214.8 654.42,-214.8 654.42,-178.8 851.58,-178.8 851.58,-214.8"/>
<text text-anchor="middle" x="753" y="-192.6" font-family="Times,serif" font-size="14.00">ApplicationLoadingComponent </text>
</g>
<!-- ViewModule&#45;&gt;ApplicationLoadingComponent  -->
<g id="edge6" class="edge">
<title>ViewModule&#45;&gt;ApplicationLoadingComponent </title>
<path fill="none" stroke="black" stroke-dasharray="5,2" d="M467.04,-140.8C541.54,-140.8 682.29,-140.8 682.29,-140.8 682.29,-140.8 682.29,-168.77 682.29,-168.77"/>
<polygon fill="black" stroke="black" points="678.79,-168.77 682.29,-178.77 685.79,-168.77 678.79,-168.77"/>
</g>
<!-- DynamicComponentDirective  -->
<g id="node8" class="node">
<title>DynamicComponentDirective </title>
<polygon fill="#fb8072" stroke="black" points="636.23,-214.8 447.77,-214.8 447.77,-178.8 636.23,-178.8 636.23,-214.8"/>
<text text-anchor="middle" x="542" y="-192.6" font-family="Times,serif" font-size="14.00">DynamicComponentDirective </text>
</g>
<!-- ViewModule&#45;&gt;DynamicComponentDirective  -->
<g id="edge7" class="edge">
<title>ViewModule&#45;&gt;DynamicComponentDirective </title>
<path fill="none" stroke="black" stroke-dasharray="5,2" d="M457.41,-149.91C457.41,-149.91 457.41,-168.79 457.41,-168.79"/>
<polygon fill="black" stroke="black" points="453.91,-168.79 457.41,-178.79 460.91,-168.79 453.91,-168.79"/>
</g>
<!-- FaDynamicIconComponent  -->
<g id="node9" class="node">
<title>FaDynamicIconComponent </title>
<polygon fill="#fb8072" stroke="black" points="429.52,-214.8 254.48,-214.8 254.48,-178.8 429.52,-178.8 429.52,-214.8"/>
<text text-anchor="middle" x="342" y="-192.6" font-family="Times,serif" font-size="14.00">FaDynamicIconComponent </text>
</g>
<!-- ViewModule&#45;&gt;FaDynamicIconComponent  -->
<g id="edge8" class="edge">
<title>ViewModule&#45;&gt;FaDynamicIconComponent </title>
<path fill="none" stroke="black" stroke-dasharray="5,2" d="M403.29,-149.91C403.29,-149.91 403.29,-168.79 403.29,-168.79"/>
<polygon fill="black" stroke="black" points="399.79,-168.79 403.29,-178.79 406.79,-168.79 399.79,-168.79"/>
</g>
<!-- ViewTitleComponent  -->
<g id="node10" class="node">
<title>ViewTitleComponent </title>
<polygon fill="#fb8072" stroke="black" points="236.59,-214.8 95.41,-214.8 95.41,-178.8 236.59,-178.8 236.59,-214.8"/>
<text text-anchor="middle" x="166" y="-192.6" font-family="Times,serif" font-size="14.00">ViewTitleComponent </text>
</g>
<!-- ViewModule&#45;&gt;ViewTitleComponent  -->
<g id="edge9" class="edge">
<title>ViewModule&#45;&gt;ViewTitleComponent </title>
<path fill="none" stroke="black" stroke-dasharray="5,2" d="M376.96,-140.8C314.28,-140.8 208.37,-140.8 208.37,-140.8 208.37,-140.8 208.37,-168.77 208.37,-168.77"/>
<polygon fill="black" stroke="black" points="204.87,-168.77 208.37,-178.77 211.87,-168.77 204.87,-168.77"/>
</g>
</g>
</svg>
