<?xml version="1.0" encoding="UTF-8" standalone="no"?>
<!DOCTYPE svg PUBLIC "-//W3C//DTD SVG 1.1//EN"
 "http://www.w3.org/Graphics/SVG/1.1/DTD/svg11.dtd">
<!-- Generated by graphviz version 5.0.0 (20220707.1540)
 -->
<!-- Title: dependencies Pages: 1 -->
<svg width="380pt" height="247pt"
 viewBox="0.00 0.00 380.00 246.80" xmlns="http://www.w3.org/2000/svg" xmlns:xlink="http://www.w3.org/1999/xlink">
<g id="graph0" class="graph" transform="scale(1 1) rotate(0) translate(4 242.8)">
<title>dependencies</title>
<polygon fill="white" stroke="transparent" points="-4,4 -4,-242.8 376,-242.8 376,4 -4,4"/>
<text text-anchor="middle" x="186" y="-8.2" font-family="sans-serif" font-size="14.00">dependencies</text>
<g id="clust1" class="cluster">
<title>cluster_SupportModule</title>
<polygon fill="none" stroke="black" stroke-dasharray="1,5" points="8,-32.8 8,-230.8 364,-230.8 364,-32.8 8,-32.8"/>
</g>
<g id="clust5" class="cluster">
<title>cluster_SupportModule_exports</title>
<polygon fill="none" stroke="black" points="124,-170.8 124,-222.8 270,-222.8 270,-170.8 124,-170.8"/>
</g>
<g id="clust2" class="cluster">
<title>cluster_SupportModule_declarations</title>
<polygon fill="none" stroke="black" points="214,-40.8 214,-92.8 356,-92.8 356,-40.8 214,-40.8"/>
</g>
<g id="clust4" class="cluster">
<title>cluster_SupportModule_imports</title>
<polygon fill="none" stroke="black" points="16,-40.8 16,-92.8 206,-92.8 206,-40.8 16,-40.8"/>
</g>
<!-- SupportComponent -->
<g id="node1" class="node">
<title>SupportComponent</title>
<polygon fill="#ffffb3" stroke="black" points="347.67,-84.8 222.33,-84.8 222.33,-48.8 347.67,-48.8 347.67,-84.8"/>
<text text-anchor="middle" x="285" y="-62.6" font-family="Times,serif" font-size="14.00">SupportComponent</text>
</g>
<!-- SupportModule -->
<g id="node2" class="node">
<title>SupportModule</title>
<polygon fill="#8dd3c7" stroke="black" points="248.89,-149.8 245.89,-153.8 224.89,-153.8 221.89,-149.8 145.11,-149.8 145.11,-113.8 248.89,-113.8 248.89,-149.8"/>
<text text-anchor="middle" x="197" y="-127.6" font-family="Times,serif" font-size="14.00">SupportModule</text>
</g>
<!-- SupportComponent&#45;&gt;SupportModule -->
<g id="edge1" class="edge">
<title>SupportComponent&#45;&gt;SupportModule</title>
<path fill="none" stroke="black" d="M235.56,-84.91C235.56,-84.91 235.56,-103.79 235.56,-103.79"/>
<polygon fill="black" stroke="black" points="232.06,-103.79 235.56,-113.79 239.06,-103.79 232.06,-103.79"/>
</g>
<!-- SupportComponent  -->
<g id="node4" class="node">
<title>SupportComponent </title>
<polygon fill="#fb8072" stroke="black" points="261.67,-214.8 132.33,-214.8 132.33,-178.8 261.67,-178.8 261.67,-214.8"/>
<text text-anchor="middle" x="197" y="-192.6" font-family="Times,serif" font-size="14.00">SupportComponent </text>
</g>
<!-- SupportModule&#45;&gt;SupportComponent  -->
<g id="edge3" class="edge">
<title>SupportModule&#45;&gt;SupportComponent </title>
<path fill="none" stroke="black" stroke-dasharray="5,2" d="M197,-149.91C197,-149.91 197,-168.79 197,-168.79"/>
<polygon fill="black" stroke="black" points="193.5,-168.79 197,-178.79 200.5,-168.79 193.5,-168.79"/>
</g>
<!-- ConfirmationDialogModule -->
<g id="node3" class="node">
<title>ConfirmationDialogModule</title>
<polygon fill="#8dd3c7" stroke="black" points="197.59,-84.8 194.59,-88.8 173.59,-88.8 170.59,-84.8 24.41,-84.8 24.41,-48.8 197.59,-48.8 197.59,-84.8"/>
<text text-anchor="middle" x="111" y="-62.6" font-family="Times,serif" font-size="14.00">ConfirmationDialogModule</text>
</g>
<!-- ConfirmationDialogModule&#45;&gt;SupportModule -->
<g id="edge2" class="edge">
<title>ConfirmationDialogModule&#45;&gt;SupportModule</title>
<path fill="none" stroke="black" d="M171.3,-84.91C171.3,-84.91 171.3,-103.79 171.3,-103.79"/>
<polygon fill="black" stroke="black" points="167.8,-103.79 171.3,-113.79 174.8,-103.79 167.8,-103.79"/>
</g>
</g>
</svg>
