<?xml version="1.0" encoding="UTF-8" standalone="no"?>
<!DOCTYPE svg PUBLIC "-//W3C//DTD SVG 1.1//EN"
 "http://www.w3.org/Graphics/SVG/1.1/DTD/svg11.dtd">
<!-- Generated by graphviz version 5.0.0 (20220707.1540)
 -->
<!-- Title: dependencies Pages: 1 -->
<svg width="648pt" height="174pt"
 viewBox="0.00 0.00 648.00 173.80" xmlns="http://www.w3.org/2000/svg" xmlns:xlink="http://www.w3.org/1999/xlink">
<g id="graph0" class="graph" transform="scale(1 1) rotate(0) translate(4 169.8)">
<title>dependencies</title>
<polygon fill="white" stroke="transparent" points="-4,4 -4,-169.8 644,-169.8 644,4 -4,4"/>
<text text-anchor="middle" x="320" y="-8.2" font-family="sans-serif" font-size="14.00">dependencies</text>
<g id="clust1" class="cluster">
<title>cluster_EntityModule</title>
<polygon fill="none" stroke="black" stroke-dasharray="1,5" points="8,-32.8 8,-157.8 632,-157.8 632,-32.8 8,-32.8"/>
</g>
<g id="clust6" class="cluster">
<title>cluster_EntityModule_providers</title>
<polygon fill="none" stroke="black" points="16,-40.8 16,-92.8 624,-92.8 624,-40.8 16,-40.8"/>
</g>
<!-- EntityConfigService -->
<g id="node1" class="node">
<title>EntityConfigService</title>
<ellipse fill="#fdb462" stroke="black" cx="526" cy="-66.8" rx="90.35" ry="18"/>
<text text-anchor="middle" x="526" y="-62.6" font-family="Times,serif" font-size="14.00">EntityConfigService</text>
</g>
<!-- EntityModule -->
<g id="node4" class="node">
<title>EntityModule</title>
<polygon fill="#8dd3c7" stroke="black" points="370.77,-149.8 367.77,-153.8 346.77,-153.8 343.77,-149.8 277.23,-149.8 277.23,-113.8 370.77,-113.8 370.77,-149.8"/>
<text text-anchor="middle" x="324" y="-127.6" font-family="Times,serif" font-size="14.00">EntityModule</text>
</g>
<!-- EntityConfigService&#45;&gt;EntityModule -->
<g id="edge1" class="edge">
<title>EntityConfigService&#45;&gt;EntityModule</title>
<path fill="none" stroke="black" d="M526,-84.91C526,-104.14 526,-131.8 526,-131.8 526,-131.8 380.85,-131.8 380.85,-131.8"/>
<polygon fill="black" stroke="black" points="380.85,-128.3 370.85,-131.8 380.85,-135.3 380.85,-128.3"/>
</g>
<!-- EntityMapperService -->
<g id="node2" class="node">
<title>EntityMapperService</title>
<ellipse fill="#fdb462" stroke="black" cx="324" cy="-66.8" rx="93.76" ry="18"/>
<text text-anchor="middle" x="324" y="-62.6" font-family="Times,serif" font-size="14.00">EntityMapperService</text>
</g>
<!-- EntityMapperService&#45;&gt;EntityModule -->
<g id="edge2" class="edge">
<title>EntityMapperService&#45;&gt;EntityModule</title>
<path fill="none" stroke="black" d="M324,-84.91C324,-84.91 324,-103.79 324,-103.79"/>
<polygon fill="black" stroke="black" points="320.5,-103.79 324,-113.79 327.5,-103.79 320.5,-103.79"/>
</g>
<!-- EntitySchemaService -->
<g id="node3" class="node">
<title>EntitySchemaService</title>
<ellipse fill="#fdb462" stroke="black" cx="118" cy="-66.8" rx="94.33" ry="18"/>
<text text-anchor="middle" x="118" y="-62.6" font-family="Times,serif" font-size="14.00">EntitySchemaService</text>
</g>
<!-- EntitySchemaService&#45;&gt;EntityModule -->
<g id="edge3" class="edge">
<title>EntitySchemaService&#45;&gt;EntityModule</title>
<path fill="none" stroke="black" d="M118,-84.91C118,-104.14 118,-131.8 118,-131.8 118,-131.8 267,-131.8 267,-131.8"/>
<polygon fill="black" stroke="black" points="267,-135.3 277,-131.8 267,-128.3 267,-135.3"/>
</g>
</g>
</svg>
