<?xml version="1.0" encoding="UTF-8" standalone="no"?>
<!DOCTYPE svg PUBLIC "-//W3C//DTD SVG 1.1//EN"
 "http://www.w3.org/Graphics/SVG/1.1/DTD/svg11.dtd">
<!-- Generated by graphviz version 5.0.0 (20220707.1540)
 -->
<!-- Title: dependencies Pages: 1 -->
<svg width="927pt" height="247pt"
 viewBox="0.00 0.00 927.00 246.80" xmlns="http://www.w3.org/2000/svg" xmlns:xlink="http://www.w3.org/1999/xlink">
<g id="graph0" class="graph" transform="scale(1 1) rotate(0) translate(4 242.8)">
<title>dependencies</title>
<polygon fill="white" stroke="transparent" points="-4,4 -4,-242.8 923,-242.8 923,4 -4,4"/>
<text text-anchor="middle" x="459.5" y="-8.2" font-family="sans-serif" font-size="14.00">dependencies</text>
<g id="clust1" class="cluster">
<title>cluster_ReportingModule</title>
<polygon fill="none" stroke="black" stroke-dasharray="1,5" points="8,-32.8 8,-230.8 911,-230.8 911,-32.8 8,-32.8"/>
</g>
<g id="clust8" class="cluster">
<title>cluster_ReportingModule_exports</title>
<polygon fill="none" stroke="black" points="337,-170.8 337,-222.8 669,-222.8 669,-170.8 337,-170.8"/>
</g>
<g id="clust7" class="cluster">
<title>cluster_ReportingModule_imports</title>
<polygon fill="none" stroke="black" points="681,-40.8 681,-92.8 903,-92.8 903,-40.8 681,-40.8"/>
</g>
<g id="clust2" class="cluster">
<title>cluster_ReportingModule_declarations</title>
<polygon fill="none" stroke="black" points="16,-40.8 16,-92.8 673,-92.8 673,-40.8 16,-40.8"/>
</g>
<!-- ObjectTableComponent -->
<g id="node1" class="node">
<title>ObjectTableComponent</title>
<polygon fill="#ffffb3" stroke="black" points="665.02,-84.8 514.98,-84.8 514.98,-48.8 665.02,-48.8 665.02,-84.8"/>
<text text-anchor="middle" x="590" y="-62.6" font-family="Times,serif" font-size="14.00">ObjectTableComponent</text>
</g>
<!-- ReportingModule -->
<g id="node5" class="node">
<title>ReportingModule</title>
<polygon fill="#8dd3c7" stroke="black" points="564.55,-149.8 561.55,-153.8 540.55,-153.8 537.55,-149.8 449.45,-149.8 449.45,-113.8 564.55,-113.8 564.55,-149.8"/>
<text text-anchor="middle" x="507" y="-127.6" font-family="Times,serif" font-size="14.00">ReportingModule</text>
</g>
<!-- ObjectTableComponent&#45;&gt;ReportingModule -->
<g id="edge1" class="edge">
<title>ObjectTableComponent&#45;&gt;ReportingModule</title>
<path fill="none" stroke="black" d="M539.76,-84.91C539.76,-84.91 539.76,-103.79 539.76,-103.79"/>
<polygon fill="black" stroke="black" points="536.26,-103.79 539.76,-113.79 543.26,-103.79 536.26,-103.79"/>
</g>
<!-- ReportRowComponent -->
<g id="node2" class="node">
<title>ReportRowComponent</title>
<polygon fill="#ffffb3" stroke="black" points="496.88,-84.8 351.12,-84.8 351.12,-48.8 496.88,-48.8 496.88,-84.8"/>
<text text-anchor="middle" x="424" y="-62.6" font-family="Times,serif" font-size="14.00">ReportRowComponent</text>
</g>
<!-- ReportRowComponent&#45;&gt;ReportingModule -->
<g id="edge2" class="edge">
<title>ReportRowComponent&#45;&gt;ReportingModule</title>
<path fill="none" stroke="black" d="M473.08,-84.91C473.08,-84.91 473.08,-103.79 473.08,-103.79"/>
<polygon fill="black" stroke="black" points="469.58,-103.79 473.08,-113.79 476.58,-103.79 469.58,-103.79"/>
</g>
<!-- ReportingComponent -->
<g id="node3" class="node">
<title>ReportingComponent</title>
<polygon fill="#ffffb3" stroke="black" points="332.82,-84.8 195.18,-84.8 195.18,-48.8 332.82,-48.8 332.82,-84.8"/>
<text text-anchor="middle" x="264" y="-62.6" font-family="Times,serif" font-size="14.00">ReportingComponent</text>
</g>
<!-- ReportingComponent&#45;&gt;ReportingModule -->
<g id="edge3" class="edge">
<title>ReportingComponent&#45;&gt;ReportingModule</title>
<path fill="none" stroke="black" d="M264,-84.82C264,-102.17 264,-125.8 264,-125.8 264,-125.8 439.41,-125.8 439.41,-125.8"/>
<polygon fill="black" stroke="black" points="439.41,-129.3 449.41,-125.8 439.41,-122.3 439.41,-129.3"/>
</g>
<!-- SelectReportComponent -->
<g id="node4" class="node">
<title>SelectReportComponent</title>
<polygon fill="#ffffb3" stroke="black" points="177.64,-84.8 24.36,-84.8 24.36,-48.8 177.64,-48.8 177.64,-84.8"/>
<text text-anchor="middle" x="101" y="-62.6" font-family="Times,serif" font-size="14.00">SelectReportComponent</text>
</g>
<!-- SelectReportComponent&#45;&gt;ReportingModule -->
<g id="edge4" class="edge">
<title>SelectReportComponent&#45;&gt;ReportingModule</title>
<path fill="none" stroke="black" d="M101,-85.08C101,-106.12 101,-137.8 101,-137.8 101,-137.8 439.26,-137.8 439.26,-137.8"/>
<polygon fill="black" stroke="black" points="439.26,-141.3 449.26,-137.8 439.26,-134.3 439.26,-141.3"/>
</g>
<!-- ReportingComponent  -->
<g id="node8" class="node">
<title>ReportingComponent </title>
<polygon fill="#fb8072" stroke="black" points="661.32,-214.8 520.68,-214.8 520.68,-178.8 661.32,-178.8 661.32,-214.8"/>
<text text-anchor="middle" x="591" y="-192.6" font-family="Times,serif" font-size="14.00">ReportingComponent </text>
</g>
<!-- ReportingModule&#45;&gt;ReportingComponent  -->
<g id="edge7" class="edge">
<title>ReportingModule&#45;&gt;ReportingComponent </title>
<path fill="none" stroke="black" stroke-dasharray="5,2" d="M542.68,-149.91C542.68,-149.91 542.68,-168.79 542.68,-168.79"/>
<polygon fill="black" stroke="black" points="539.18,-168.79 542.68,-178.79 546.18,-168.79 539.18,-168.79"/>
</g>
<!-- SelectReportComponent  -->
<g id="node9" class="node">
<title>SelectReportComponent </title>
<polygon fill="#fb8072" stroke="black" points="502.64,-214.8 345.36,-214.8 345.36,-178.8 502.64,-178.8 502.64,-214.8"/>
<text text-anchor="middle" x="424" y="-192.6" font-family="Times,serif" font-size="14.00">SelectReportComponent </text>
</g>
<!-- ReportingModule&#45;&gt;SelectReportComponent  -->
<g id="edge8" class="edge">
<title>ReportingModule&#45;&gt;SelectReportComponent </title>
<path fill="none" stroke="black" stroke-dasharray="5,2" d="M475.9,-149.91C475.9,-149.91 475.9,-168.79 475.9,-168.79"/>
<polygon fill="black" stroke="black" points="472.4,-168.79 475.9,-178.79 479.4,-168.79 472.4,-168.79"/>
</g>
<!-- ExportModule -->
<g id="node6" class="node">
<title>ExportModule</title>
<polygon fill="#8dd3c7" stroke="black" points="894.66,-84.8 891.66,-88.8 870.66,-88.8 867.66,-84.8 797.34,-84.8 797.34,-48.8 894.66,-48.8 894.66,-84.8"/>
<text text-anchor="middle" x="846" y="-62.6" font-family="Times,serif" font-size="14.00">ExportModule</text>
</g>
<!-- ExportModule&#45;&gt;ReportingModule -->
<g id="edge5" class="edge">
<title>ExportModule&#45;&gt;ReportingModule</title>
<path fill="none" stroke="black" d="M846,-85.08C846,-106.12 846,-137.8 846,-137.8 846,-137.8 574.89,-137.8 574.89,-137.8"/>
<polygon fill="black" stroke="black" points="574.89,-134.3 564.89,-137.8 574.89,-141.3 574.89,-134.3"/>
</g>
<!-- ViewModule -->
<g id="node7" class="node">
<title>ViewModule</title>
<polygon fill="#8dd3c7" stroke="black" points="778.88,-84.8 775.88,-88.8 754.88,-88.8 751.88,-84.8 689.12,-84.8 689.12,-48.8 778.88,-48.8 778.88,-84.8"/>
<text text-anchor="middle" x="734" y="-62.6" font-family="Times,serif" font-size="14.00">ViewModule</text>
</g>
<!-- ViewModule&#45;&gt;ReportingModule -->
<g id="edge6" class="edge">
<title>ViewModule&#45;&gt;ReportingModule</title>
<path fill="none" stroke="black" d="M734,-84.82C734,-102.17 734,-125.8 734,-125.8 734,-125.8 574.58,-125.8 574.58,-125.8"/>
<polygon fill="black" stroke="black" points="574.58,-122.3 564.58,-125.8 574.58,-129.3 574.58,-122.3"/>
</g>
</g>
</svg>
