<?xml version="1.0" encoding="UTF-8" standalone="no"?>
<!DOCTYPE svg PUBLIC "-//W3C//DTD SVG 1.1//EN"
 "http://www.w3.org/Graphics/SVG/1.1/DTD/svg11.dtd">
<!-- Generated by graphviz version 5.0.0 (20220707.1540)
 -->
<!-- Title: dependencies Pages: 1 -->
<svg width="712pt" height="247pt"
 viewBox="0.00 0.00 712.00 246.80" xmlns="http://www.w3.org/2000/svg" xmlns:xlink="http://www.w3.org/1999/xlink">
<g id="graph0" class="graph" transform="scale(1 1) rotate(0) translate(4 242.8)">
<title>dependencies</title>
<polygon fill="white" stroke="transparent" points="-4,4 -4,-242.8 708,-242.8 708,4 -4,4"/>
<text text-anchor="middle" x="352" y="-8.2" font-family="sans-serif" font-size="14.00">dependencies</text>
<g id="clust1" class="cluster">
<title>cluster_ConfigurableEnumModule</title>
<polygon fill="none" stroke="black" stroke-dasharray="1,5" points="8,-32.8 8,-230.8 696,-230.8 696,-32.8 8,-32.8"/>
</g>
<g id="clust2" class="cluster">
<title>cluster_ConfigurableEnumModule_declarations</title>
<polygon fill="none" stroke="black" points="16,-40.8 16,-92.8 688,-92.8 688,-40.8 16,-40.8"/>
</g>
<g id="clust7" class="cluster">
<title>cluster_ConfigurableEnumModule_exports</title>
<polygon fill="none" stroke="black" points="273,-170.8 273,-222.8 467,-222.8 467,-170.8 273,-170.8"/>
</g>
<!-- ConfigurableEnumDirective -->
<g id="node1" class="node">
<title>ConfigurableEnumDirective</title>
<polygon fill="#ffffb3" stroke="black" points="679.89,-84.8 504.11,-84.8 504.11,-48.8 679.89,-48.8 679.89,-84.8"/>
<text text-anchor="middle" x="592" y="-62.6" font-family="Times,serif" font-size="14.00">ConfigurableEnumDirective</text>
</g>
<!-- ConfigurableEnumModule -->
<g id="node4" class="node">
<title>ConfigurableEnumModule</title>
<polygon fill="#8dd3c7" stroke="black" points="453.36,-149.8 450.36,-153.8 429.36,-153.8 426.36,-149.8 286.64,-149.8 286.64,-113.8 453.36,-113.8 453.36,-149.8"/>
<text text-anchor="middle" x="370" y="-127.6" font-family="Times,serif" font-size="14.00">ConfigurableEnumModule</text>
</g>
<!-- ConfigurableEnumDirective&#45;&gt;ConfigurableEnumModule -->
<g id="edge1" class="edge">
<title>ConfigurableEnumDirective&#45;&gt;ConfigurableEnumModule</title>
<path fill="none" stroke="black" d="M592,-84.91C592,-104.14 592,-131.8 592,-131.8 592,-131.8 463.61,-131.8 463.61,-131.8"/>
<polygon fill="black" stroke="black" points="463.61,-128.3 453.61,-131.8 463.61,-135.3 463.61,-128.3"/>
</g>
<!-- DisplayConfigurableEnumComponent -->
<g id="node2" class="node">
<title>DisplayConfigurableEnumComponent</title>
<polygon fill="#ffffb3" stroke="black" points="486.19,-84.8 253.81,-84.8 253.81,-48.8 486.19,-48.8 486.19,-84.8"/>
<text text-anchor="middle" x="370" y="-62.6" font-family="Times,serif" font-size="14.00">DisplayConfigurableEnumComponent</text>
</g>
<!-- DisplayConfigurableEnumComponent&#45;&gt;ConfigurableEnumModule -->
<g id="edge2" class="edge">
<title>DisplayConfigurableEnumComponent&#45;&gt;ConfigurableEnumModule</title>
<path fill="none" stroke="black" d="M370,-84.91C370,-84.91 370,-103.79 370,-103.79"/>
<polygon fill="black" stroke="black" points="366.5,-103.79 370,-113.79 373.5,-103.79 366.5,-103.79"/>
</g>
<!-- EditConfigurableEnumComponent -->
<g id="node3" class="node">
<title>EditConfigurableEnumComponent</title>
<polygon fill="#ffffb3" stroke="black" points="235.97,-84.8 24.03,-84.8 24.03,-48.8 235.97,-48.8 235.97,-84.8"/>
<text text-anchor="middle" x="130" y="-62.6" font-family="Times,serif" font-size="14.00">EditConfigurableEnumComponent</text>
</g>
<!-- EditConfigurableEnumComponent&#45;&gt;ConfigurableEnumModule -->
<g id="edge3" class="edge">
<title>EditConfigurableEnumComponent&#45;&gt;ConfigurableEnumModule</title>
<path fill="none" stroke="black" d="M130,-84.91C130,-104.14 130,-131.8 130,-131.8 130,-131.8 276.4,-131.8 276.4,-131.8"/>
<polygon fill="black" stroke="black" points="276.4,-135.3 286.4,-131.8 276.4,-128.3 276.4,-135.3"/>
</g>
<!-- ConfigurableEnumDirective  -->
<g id="node5" class="node">
<title>ConfigurableEnumDirective </title>
<polygon fill="#fb8072" stroke="black" points="459.39,-214.8 280.61,-214.8 280.61,-178.8 459.39,-178.8 459.39,-214.8"/>
<text text-anchor="middle" x="370" y="-192.6" font-family="Times,serif" font-size="14.00">ConfigurableEnumDirective </text>
</g>
<!-- ConfigurableEnumModule&#45;&gt;ConfigurableEnumDirective  -->
<g id="edge4" class="edge">
<title>ConfigurableEnumModule&#45;&gt;ConfigurableEnumDirective </title>
<path fill="none" stroke="black" stroke-dasharray="5,2" d="M370,-149.91C370,-149.91 370,-168.79 370,-168.79"/>
<polygon fill="black" stroke="black" points="366.5,-168.79 370,-178.79 373.5,-168.79 366.5,-168.79"/>
</g>
</g>
</svg>
