<?xml version="1.0" encoding="UTF-8" standalone="no"?>
<!DOCTYPE svg PUBLIC "-//W3C//DTD SVG 1.1//EN"
 "http://www.w3.org/Graphics/SVG/1.1/DTD/svg11.dtd">
<!-- Generated by graphviz version 5.0.0 (20220707.1540)
 -->
<!-- Title: dependencies Pages: 1 -->
<svg width="630pt" height="247pt"
 viewBox="0.00 0.00 630.00 246.80" xmlns="http://www.w3.org/2000/svg" xmlns:xlink="http://www.w3.org/1999/xlink">
<g id="graph0" class="graph" transform="scale(1 1) rotate(0) translate(4 242.8)">
<title>dependencies</title>
<polygon fill="white" stroke="transparent" points="-4,4 -4,-242.8 626,-242.8 626,4 -4,4"/>
<text text-anchor="middle" x="311" y="-8.2" font-family="sans-serif" font-size="14.00">dependencies</text>
<g id="clust1" class="cluster">
<title>cluster_DataImportModule</title>
<polygon fill="none" stroke="black" stroke-dasharray="1,5" points="8,-32.8 8,-230.8 614,-230.8 614,-32.8 8,-32.8"/>
</g>
<g id="clust7" class="cluster">
<title>cluster_DataImportModule_providers</title>
<polygon fill="none" stroke="black" points="420,-40.8 420,-92.8 606,-92.8 606,-40.8 420,-40.8"/>
</g>
<g id="clust5" class="cluster">
<title>cluster_DataImportModule_exports</title>
<polygon fill="none" stroke="black" points="217,-170.8 217,-222.8 383,-222.8 383,-170.8 217,-170.8"/>
</g>
<g id="clust4" class="cluster">
<title>cluster_DataImportModule_imports</title>
<polygon fill="none" stroke="black" points="186,-40.8 186,-92.8 412,-92.8 412,-40.8 186,-40.8"/>
</g>
<g id="clust2" class="cluster">
<title>cluster_DataImportModule_declarations</title>
<polygon fill="none" stroke="black" points="16,-40.8 16,-92.8 178,-92.8 178,-40.8 16,-40.8"/>
</g>
<!-- DataImportComponent -->
<g id="node1" class="node">
<title>DataImportComponent</title>
<polygon fill="#ffffb3" stroke="black" points="169.86,-84.8 24.14,-84.8 24.14,-48.8 169.86,-48.8 169.86,-84.8"/>
<text text-anchor="middle" x="97" y="-62.6" font-family="Times,serif" font-size="14.00">DataImportComponent</text>
</g>
<!-- DataImportModule -->
<g id="node2" class="node">
<title>DataImportModule</title>
<polygon fill="#8dd3c7" stroke="black" points="362.08,-149.8 359.08,-153.8 338.08,-153.8 335.08,-149.8 237.92,-149.8 237.92,-113.8 362.08,-113.8 362.08,-149.8"/>
<text text-anchor="middle" x="300" y="-127.6" font-family="Times,serif" font-size="14.00">DataImportModule</text>
</g>
<!-- DataImportComponent&#45;&gt;DataImportModule -->
<g id="edge1" class="edge">
<title>DataImportComponent&#45;&gt;DataImportModule</title>
<path fill="none" stroke="black" d="M97,-84.91C97,-104.14 97,-131.8 97,-131.8 97,-131.8 227.71,-131.8 227.71,-131.8"/>
<polygon fill="black" stroke="black" points="227.71,-135.3 237.71,-131.8 227.71,-128.3 227.71,-135.3"/>
</g>
<!-- DataImportComponent  -->
<g id="node5" class="node">
<title>DataImportComponent </title>
<polygon fill="#fb8072" stroke="black" points="374.86,-214.8 225.14,-214.8 225.14,-178.8 374.86,-178.8 374.86,-214.8"/>
<text text-anchor="middle" x="300" y="-192.6" font-family="Times,serif" font-size="14.00">DataImportComponent </text>
</g>
<!-- DataImportModule&#45;&gt;DataImportComponent  -->
<g id="edge4" class="edge">
<title>DataImportModule&#45;&gt;DataImportComponent </title>
<path fill="none" stroke="black" stroke-dasharray="5,2" d="M300,-149.91C300,-149.91 300,-168.79 300,-168.79"/>
<polygon fill="black" stroke="black" points="296.5,-168.79 300,-178.79 303.5,-168.79 296.5,-168.79"/>
</g>
<!-- AlertsModule -->
<g id="node3" class="node">
<title>AlertsModule</title>
<polygon fill="#8dd3c7" stroke="black" points="403.77,-84.8 400.77,-88.8 379.77,-88.8 376.77,-84.8 310.23,-84.8 310.23,-48.8 403.77,-48.8 403.77,-84.8"/>
<text text-anchor="middle" x="357" y="-62.6" font-family="Times,serif" font-size="14.00">AlertsModule</text>
</g>
<!-- AlertsModule&#45;&gt;DataImportModule -->
<g id="edge2" class="edge">
<title>AlertsModule&#45;&gt;DataImportModule</title>
<path fill="none" stroke="black" d="M336.08,-84.91C336.08,-84.91 336.08,-103.79 336.08,-103.79"/>
<polygon fill="black" stroke="black" points="332.58,-103.79 336.08,-113.79 339.58,-103.79 332.58,-103.79"/>
</g>
<!-- ExportModule -->
<g id="node4" class="node">
<title>ExportModule</title>
<polygon fill="#8dd3c7" stroke="black" points="291.66,-84.8 288.66,-88.8 267.66,-88.8 264.66,-84.8 194.34,-84.8 194.34,-48.8 291.66,-48.8 291.66,-84.8"/>
<text text-anchor="middle" x="243" y="-62.6" font-family="Times,serif" font-size="14.00">ExportModule</text>
</g>
<!-- ExportModule&#45;&gt;DataImportModule -->
<g id="edge3" class="edge">
<title>ExportModule&#45;&gt;DataImportModule</title>
<path fill="none" stroke="black" d="M264.89,-84.91C264.89,-84.91 264.89,-103.79 264.89,-103.79"/>
<polygon fill="black" stroke="black" points="261.39,-103.79 264.89,-113.79 268.39,-103.79 261.39,-103.79"/>
</g>
<!-- DataImportService -->
<g id="node6" class="node">
<title>DataImportService</title>
<ellipse fill="#fdb462" stroke="black" cx="513" cy="-66.8" rx="84.51" ry="18"/>
<text text-anchor="middle" x="513" y="-62.6" font-family="Times,serif" font-size="14.00">DataImportService</text>
</g>
<!-- DataImportService&#45;&gt;DataImportModule -->
<g id="edge5" class="edge">
<title>DataImportService&#45;&gt;DataImportModule</title>
<path fill="none" stroke="black" d="M513,-84.91C513,-104.14 513,-131.8 513,-131.8 513,-131.8 372.18,-131.8 372.18,-131.8"/>
<polygon fill="black" stroke="black" points="372.18,-128.3 362.18,-131.8 372.18,-135.3 372.18,-128.3"/>
</g>
</g>
</svg>
