<?xml version="1.0" encoding="UTF-8" standalone="no"?>
<!DOCTYPE svg PUBLIC "-//W3C//DTD SVG 1.1//EN"
 "http://www.w3.org/Graphics/SVG/1.1/DTD/svg11.dtd">
<!-- Generated by graphviz version 5.0.0 (20220707.1540)
 -->
<!-- Title: dependencies Pages: 1 -->
<svg width="856pt" height="247pt"
 viewBox="0.00 0.00 856.00 246.80" xmlns="http://www.w3.org/2000/svg" xmlns:xlink="http://www.w3.org/1999/xlink">
<g id="graph0" class="graph" transform="scale(1 1) rotate(0) translate(4 242.8)">
<title>dependencies</title>
<polygon fill="white" stroke="transparent" points="-4,4 -4,-242.8 852,-242.8 852,4 -4,4"/>
<text text-anchor="middle" x="424" y="-8.2" font-family="sans-serif" font-size="14.00">dependencies</text>
<g id="clust1" class="cluster">
<title>cluster_ProgressDashboardWidgetModule</title>
<polygon fill="none" stroke="black" stroke-dasharray="1,5" points="8,-32.8 8,-230.8 840,-230.8 840,-32.8 8,-32.8"/>
</g>
<g id="clust6" class="cluster">
<title>cluster_ProgressDashboardWidgetModule_exports</title>
<polygon fill="none" stroke="black" points="410,-170.8 410,-222.8 620,-222.8 620,-170.8 410,-170.8"/>
</g>
<g id="clust5" class="cluster">
<title>cluster_ProgressDashboardWidgetModule_imports</title>
<polygon fill="none" stroke="black" points="462,-40.8 462,-92.8 832,-92.8 832,-40.8 462,-40.8"/>
</g>
<g id="clust2" class="cluster">
<title>cluster_ProgressDashboardWidgetModule_declarations</title>
<polygon fill="none" stroke="black" points="16,-40.8 16,-92.8 454,-92.8 454,-40.8 16,-40.8"/>
</g>
<!-- EditProgressDashboardComponent -->
<g id="node1" class="node">
<title>EditProgressDashboardComponent</title>
<polygon fill="#ffffb3" stroke="black" points="445.53,-84.8 232.47,-84.8 232.47,-48.8 445.53,-48.8 445.53,-84.8"/>
<text text-anchor="middle" x="339" y="-62.6" font-family="Times,serif" font-size="14.00">EditProgressDashboardComponent</text>
</g>
<!-- ProgressDashboardWidgetModule -->
<g id="node3" class="node">
<title>ProgressDashboardWidgetModule</title>
<polygon fill="#8dd3c7" stroke="black" points="619.63,-149.8 616.63,-153.8 595.63,-153.8 592.63,-149.8 410.37,-149.8 410.37,-113.8 619.63,-113.8 619.63,-149.8"/>
<text text-anchor="middle" x="515" y="-127.6" font-family="Times,serif" font-size="14.00">ProgressDashboardWidgetModule</text>
</g>
<!-- EditProgressDashboardComponent&#45;&gt;ProgressDashboardWidgetModule -->
<g id="edge1" class="edge">
<title>EditProgressDashboardComponent&#45;&gt;ProgressDashboardWidgetModule</title>
<path fill="none" stroke="black" d="M427.98,-84.91C427.98,-84.91 427.98,-103.79 427.98,-103.79"/>
<polygon fill="black" stroke="black" points="424.48,-103.79 427.98,-113.79 431.48,-103.79 424.48,-103.79"/>
</g>
<!-- ProgressDashboardComponent -->
<g id="node2" class="node">
<title>ProgressDashboardComponent</title>
<polygon fill="#ffffb3" stroke="black" points="214.2,-84.8 23.8,-84.8 23.8,-48.8 214.2,-48.8 214.2,-84.8"/>
<text text-anchor="middle" x="119" y="-62.6" font-family="Times,serif" font-size="14.00">ProgressDashboardComponent</text>
</g>
<!-- ProgressDashboardComponent&#45;&gt;ProgressDashboardWidgetModule -->
<g id="edge2" class="edge">
<title>ProgressDashboardComponent&#45;&gt;ProgressDashboardWidgetModule</title>
<path fill="none" stroke="black" d="M119,-84.91C119,-104.14 119,-131.8 119,-131.8 119,-131.8 400.18,-131.8 400.18,-131.8"/>
<polygon fill="black" stroke="black" points="400.18,-135.3 410.18,-131.8 400.18,-128.3 400.18,-135.3"/>
</g>
<!-- ProgressDashboardComponent  -->
<g id="node7" class="node">
<title>ProgressDashboardComponent </title>
<polygon fill="#fb8072" stroke="black" points="611.7,-214.8 418.3,-214.8 418.3,-178.8 611.7,-178.8 611.7,-214.8"/>
<text text-anchor="middle" x="515" y="-192.6" font-family="Times,serif" font-size="14.00">ProgressDashboardComponent </text>
</g>
<!-- ProgressDashboardWidgetModule&#45;&gt;ProgressDashboardComponent  -->
<g id="edge6" class="edge">
<title>ProgressDashboardWidgetModule&#45;&gt;ProgressDashboardComponent </title>
<path fill="none" stroke="black" stroke-dasharray="5,2" d="M515,-149.91C515,-149.91 515,-168.79 515,-168.79"/>
<polygon fill="black" stroke="black" points="511.5,-168.79 515,-178.79 518.5,-168.79 511.5,-168.79"/>
</g>
<!-- ChildrenModule -->
<g id="node4" class="node">
<title>ChildrenModule</title>
<polygon fill="#8dd3c7" stroke="black" points="824.05,-84.8 821.05,-88.8 800.05,-88.8 797.05,-84.8 715.95,-84.8 715.95,-48.8 824.05,-48.8 824.05,-84.8"/>
<text text-anchor="middle" x="770" y="-62.6" font-family="Times,serif" font-size="14.00">ChildrenModule</text>
</g>
<!-- ChildrenModule&#45;&gt;ProgressDashboardWidgetModule -->
<g id="edge3" class="edge">
<title>ChildrenModule&#45;&gt;ProgressDashboardWidgetModule</title>
<path fill="none" stroke="black" d="M770,-84.91C770,-104.14 770,-131.8 770,-131.8 770,-131.8 629.82,-131.8 629.82,-131.8"/>
<polygon fill="black" stroke="black" points="629.82,-128.3 619.82,-131.8 629.82,-135.3 629.82,-128.3"/>
</g>
<!-- DashboardModule -->
<g id="node5" class="node">
<title>DashboardModule</title>
<polygon fill="#8dd3c7" stroke="black" points="698.2,-84.8 695.2,-88.8 674.2,-88.8 671.2,-84.8 577.8,-84.8 577.8,-48.8 698.2,-48.8 698.2,-84.8"/>
<text text-anchor="middle" x="638" y="-62.6" font-family="Times,serif" font-size="14.00">DashboardModule</text>
</g>
<!-- DashboardModule&#45;&gt;ProgressDashboardWidgetModule -->
<g id="edge4" class="edge">
<title>DashboardModule&#45;&gt;ProgressDashboardWidgetModule</title>
<path fill="none" stroke="black" d="M598.86,-84.91C598.86,-84.91 598.86,-103.79 598.86,-103.79"/>
<polygon fill="black" stroke="black" points="595.36,-103.79 598.86,-113.79 602.36,-103.79 595.36,-103.79"/>
</g>
<!-- ViewModule -->
<g id="node6" class="node">
<title>ViewModule</title>
<polygon fill="#8dd3c7" stroke="black" points="559.88,-84.8 556.88,-88.8 535.88,-88.8 532.88,-84.8 470.12,-84.8 470.12,-48.8 559.88,-48.8 559.88,-84.8"/>
<text text-anchor="middle" x="515" y="-62.6" font-family="Times,serif" font-size="14.00">ViewModule</text>
</g>
<!-- ViewModule&#45;&gt;ProgressDashboardWidgetModule -->
<g id="edge5" class="edge">
<title>ViewModule&#45;&gt;ProgressDashboardWidgetModule</title>
<path fill="none" stroke="black" d="M515,-84.91C515,-84.91 515,-103.79 515,-103.79"/>
<polygon fill="black" stroke="black" points="511.5,-103.79 515,-113.79 518.5,-103.79 511.5,-103.79"/>
</g>
</g>
</svg>
