<?xml version="1.0" encoding="UTF-8" standalone="no"?>
<!DOCTYPE svg PUBLIC "-//W3C//DTD SVG 1.1//EN"
 "http://www.w3.org/Graphics/SVG/1.1/DTD/svg11.dtd">
<!-- Generated by graphviz version 5.0.0 (20220707.1540)
 -->
<!-- Title: dependencies Pages: 1 -->
<svg width="1039pt" height="247pt"
 viewBox="0.00 0.00 1039.00 246.80" xmlns="http://www.w3.org/2000/svg" xmlns:xlink="http://www.w3.org/1999/xlink">
<g id="graph0" class="graph" transform="scale(1 1) rotate(0) translate(4 242.8)">
<title>dependencies</title>
<polygon fill="white" stroke="transparent" points="-4,4 -4,-242.8 1035,-242.8 1035,4 -4,4"/>
<text text-anchor="middle" x="515.5" y="-8.2" font-family="sans-serif" font-size="14.00">dependencies</text>
<g id="clust1" class="cluster">
<title>cluster_SchoolsModule</title>
<polygon fill="none" stroke="black" stroke-dasharray="1,5" points="8,-32.8 8,-230.8 1023,-230.8 1023,-32.8 8,-32.8"/>
</g>
<g id="clust6" class="cluster">
<title>cluster_SchoolsModule_imports</title>
<polygon fill="none" stroke="black" points="606,-40.8 606,-92.8 1015,-92.8 1015,-40.8 606,-40.8"/>
</g>
<g id="clust2" class="cluster">
<title>cluster_SchoolsModule_declarations</title>
<polygon fill="none" stroke="black" points="16,-40.8 16,-92.8 598,-92.8 598,-40.8 16,-40.8"/>
</g>
<g id="clust7" class="cluster">
<title>cluster_SchoolsModule_exports</title>
<polygon fill="none" stroke="black" points="490,-170.8 490,-222.8 664,-222.8 664,-170.8 490,-170.8"/>
</g>
<!-- ActivitiesOverviewComponent -->
<g id="node1" class="node">
<title>ActivitiesOverviewComponent</title>
<polygon fill="#ffffb3" stroke="black" points="590.47,-84.8 399.53,-84.8 399.53,-48.8 590.47,-48.8 590.47,-84.8"/>
<text text-anchor="middle" x="495" y="-62.6" font-family="Times,serif" font-size="14.00">ActivitiesOverviewComponent</text>
</g>
<!-- SchoolsModule -->
<g id="node4" class="node">
<title>SchoolsModule</title>
<polygon fill="#8dd3c7" stroke="black" points="628.89,-149.8 625.89,-153.8 604.89,-153.8 601.89,-149.8 525.11,-149.8 525.11,-113.8 628.89,-113.8 628.89,-149.8"/>
<text text-anchor="middle" x="577" y="-127.6" font-family="Times,serif" font-size="14.00">SchoolsModule</text>
</g>
<!-- ActivitiesOverviewComponent&#45;&gt;SchoolsModule -->
<g id="edge1" class="edge">
<title>ActivitiesOverviewComponent&#45;&gt;SchoolsModule</title>
<path fill="none" stroke="black" d="M557.77,-84.91C557.77,-84.91 557.77,-103.79 557.77,-103.79"/>
<polygon fill="black" stroke="black" points="554.27,-103.79 557.77,-113.79 561.27,-103.79 554.27,-103.79"/>
</g>
<!-- ChildrenOverviewComponent -->
<g id="node2" class="node">
<title>ChildrenOverviewComponent</title>
<polygon fill="#ffffb3" stroke="black" points="381.53,-84.8 196.47,-84.8 196.47,-48.8 381.53,-48.8 381.53,-84.8"/>
<text text-anchor="middle" x="289" y="-62.6" font-family="Times,serif" font-size="14.00">ChildrenOverviewComponent</text>
</g>
<!-- ChildrenOverviewComponent&#45;&gt;SchoolsModule -->
<g id="edge2" class="edge">
<title>ChildrenOverviewComponent&#45;&gt;SchoolsModule</title>
<path fill="none" stroke="black" d="M289,-84.82C289,-102.17 289,-125.8 289,-125.8 289,-125.8 514.85,-125.8 514.85,-125.8"/>
<polygon fill="black" stroke="black" points="514.85,-129.3 524.85,-125.8 514.85,-122.3 514.85,-129.3"/>
</g>
<!-- SchoolBlockComponent -->
<g id="node3" class="node">
<title>SchoolBlockComponent</title>
<polygon fill="#ffffb3" stroke="black" points="177.66,-84.8 24.34,-84.8 24.34,-48.8 177.66,-48.8 177.66,-84.8"/>
<text text-anchor="middle" x="101" y="-62.6" font-family="Times,serif" font-size="14.00">SchoolBlockComponent</text>
</g>
<!-- SchoolBlockComponent&#45;&gt;SchoolsModule -->
<g id="edge3" class="edge">
<title>SchoolBlockComponent&#45;&gt;SchoolsModule</title>
<path fill="none" stroke="black" d="M101,-85.08C101,-106.12 101,-137.8 101,-137.8 101,-137.8 514.7,-137.8 514.7,-137.8"/>
<polygon fill="black" stroke="black" points="514.7,-141.3 524.7,-137.8 514.7,-134.3 514.7,-141.3"/>
</g>
<!-- SchoolBlockComponent  -->
<g id="node8" class="node">
<title>SchoolBlockComponent </title>
<polygon fill="#fb8072" stroke="black" points="655.66,-214.8 498.34,-214.8 498.34,-178.8 655.66,-178.8 655.66,-214.8"/>
<text text-anchor="middle" x="577" y="-192.6" font-family="Times,serif" font-size="14.00">SchoolBlockComponent </text>
</g>
<!-- SchoolsModule&#45;&gt;SchoolBlockComponent  -->
<g id="edge7" class="edge">
<title>SchoolsModule&#45;&gt;SchoolBlockComponent </title>
<path fill="none" stroke="black" stroke-dasharray="5,2" d="M577,-149.91C577,-149.91 577,-168.79 577,-168.79"/>
<polygon fill="black" stroke="black" points="573.5,-168.79 577,-178.79 580.5,-168.79 573.5,-168.79"/>
</g>
<!-- EntityListModule -->
<g id="node5" class="node">
<title>EntityListModule</title>
<polygon fill="#8dd3c7" stroke="black" points="1006.55,-84.8 1003.55,-88.8 982.55,-88.8 979.55,-84.8 891.45,-84.8 891.45,-48.8 1006.55,-48.8 1006.55,-84.8"/>
<text text-anchor="middle" x="949" y="-62.6" font-family="Times,serif" font-size="14.00">EntityListModule</text>
</g>
<!-- EntityListModule&#45;&gt;SchoolsModule -->
<g id="edge4" class="edge">
<title>EntityListModule&#45;&gt;SchoolsModule</title>
<path fill="none" stroke="black" d="M949,-85.08C949,-106.12 949,-137.8 949,-137.8 949,-137.8 639.12,-137.8 639.12,-137.8"/>
<polygon fill="black" stroke="black" points="639.12,-134.3 629.12,-137.8 639.12,-141.3 639.12,-134.3"/>
</g>
<!-- EntitySubrecordModule -->
<g id="node6" class="node">
<title>EntitySubrecordModule</title>
<polygon fill="#8dd3c7" stroke="black" points="873.81,-84.8 870.81,-88.8 849.81,-88.8 846.81,-84.8 722.19,-84.8 722.19,-48.8 873.81,-48.8 873.81,-84.8"/>
<text text-anchor="middle" x="798" y="-62.6" font-family="Times,serif" font-size="14.00">EntitySubrecordModule</text>
</g>
<!-- EntitySubrecordModule&#45;&gt;SchoolsModule -->
<g id="edge5" class="edge">
<title>EntitySubrecordModule&#45;&gt;SchoolsModule</title>
<path fill="none" stroke="black" d="M798,-84.82C798,-102.17 798,-125.8 798,-125.8 798,-125.8 639.09,-125.8 639.09,-125.8"/>
<polygon fill="black" stroke="black" points="639.09,-122.3 629.09,-125.8 639.09,-129.3 639.09,-122.3"/>
</g>
<!-- ViewModule -->
<g id="node7" class="node">
<title>ViewModule</title>
<polygon fill="#8dd3c7" stroke="black" points="703.88,-84.8 700.88,-88.8 679.88,-88.8 676.88,-84.8 614.12,-84.8 614.12,-48.8 703.88,-48.8 703.88,-84.8"/>
<text text-anchor="middle" x="659" y="-62.6" font-family="Times,serif" font-size="14.00">ViewModule</text>
</g>
<!-- ViewModule&#45;&gt;SchoolsModule -->
<g id="edge6" class="edge">
<title>ViewModule&#45;&gt;SchoolsModule</title>
<path fill="none" stroke="black" d="M621.5,-84.91C621.5,-84.91 621.5,-103.79 621.5,-103.79"/>
<polygon fill="black" stroke="black" points="618,-103.79 621.5,-113.79 625,-103.79 618,-103.79"/>
</g>
</g>
</svg>
