<?xml version="1.0" encoding="UTF-8" standalone="no"?>
<!DOCTYPE svg PUBLIC "-//W3C//DTD SVG 1.1//EN"
 "http://www.w3.org/Graphics/SVG/1.1/DTD/svg11.dtd">
<!-- Generated by graphviz version 5.0.0 (20220707.1540)
 -->
<!-- Title: dependencies Pages: 1 -->
<svg width="510pt" height="174pt"
 viewBox="0.00 0.00 510.00 173.80" xmlns="http://www.w3.org/2000/svg" xmlns:xlink="http://www.w3.org/1999/xlink">
<g id="graph0" class="graph" transform="scale(1 1) rotate(0) translate(4 169.8)">
<title>dependencies</title>
<polygon fill="white" stroke="transparent" points="-4,4 -4,-169.8 506,-169.8 506,4 -4,4"/>
<text text-anchor="middle" x="251" y="-8.2" font-family="sans-serif" font-size="14.00">dependencies</text>
<g id="clust1" class="cluster">
<title>cluster_ConfirmationDialogModule</title>
<polygon fill="none" stroke="black" stroke-dasharray="1,5" points="8,-32.8 8,-157.8 494,-157.8 494,-32.8 8,-32.8"/>
</g>
<g id="clust2" class="cluster">
<title>cluster_ConfirmationDialogModule_declarations</title>
<polygon fill="none" stroke="black" points="276,-40.8 276,-92.8 486,-92.8 486,-40.8 276,-40.8"/>
</g>
<g id="clust7" class="cluster">
<title>cluster_ConfirmationDialogModule_providers</title>
<polygon fill="none" stroke="black" points="16,-40.8 16,-92.8 268,-92.8 268,-40.8 16,-40.8"/>
</g>
<!-- ConfirmationDialogComponent -->
<g id="node1" class="node">
<title>ConfirmationDialogComponent</title>
<polygon fill="#ffffb3" stroke="black" points="478.37,-84.8 283.63,-84.8 283.63,-48.8 478.37,-48.8 478.37,-84.8"/>
<text text-anchor="middle" x="381" y="-62.6" font-family="Times,serif" font-size="14.00">ConfirmationDialogComponent</text>
</g>
<!-- ConfirmationDialogModule -->
<g id="node2" class="node">
<title>ConfirmationDialogModule</title>
<polygon fill="#8dd3c7" stroke="black" points="347.59,-149.8 344.59,-153.8 323.59,-153.8 320.59,-149.8 174.41,-149.8 174.41,-113.8 347.59,-113.8 347.59,-149.8"/>
<text text-anchor="middle" x="261" y="-127.6" font-family="Times,serif" font-size="14.00">ConfirmationDialogModule</text>
</g>
<!-- ConfirmationDialogComponent&#45;&gt;ConfirmationDialogModule -->
<g id="edge1" class="edge">
<title>ConfirmationDialogComponent&#45;&gt;ConfirmationDialogModule</title>
<path fill="none" stroke="black" d="M315.56,-84.91C315.56,-84.91 315.56,-103.79 315.56,-103.79"/>
<polygon fill="black" stroke="black" points="312.06,-103.79 315.56,-113.79 319.06,-103.79 312.06,-103.79"/>
</g>
<!-- ConfirmationDialogService -->
<g id="node3" class="node">
<title>ConfirmationDialogService</title>
<ellipse fill="#fdb462" stroke="black" cx="142" cy="-66.8" rx="118.12" ry="18"/>
<text text-anchor="middle" x="142" y="-62.6" font-family="Times,serif" font-size="14.00">ConfirmationDialogService</text>
</g>
<!-- ConfirmationDialogService&#45;&gt;ConfirmationDialogModule -->
<g id="edge2" class="edge">
<title>ConfirmationDialogService&#45;&gt;ConfirmationDialogModule</title>
<path fill="none" stroke="black" d="M217.38,-80.9C217.38,-80.9 217.38,-103.52 217.38,-103.52"/>
<polygon fill="black" stroke="black" points="213.88,-103.52 217.38,-113.52 220.88,-103.52 213.88,-103.52"/>
</g>
</g>
</svg>
