<?xml version="1.0" encoding="UTF-8" standalone="no"?>
<!DOCTYPE svg PUBLIC "-//W3C//DTD SVG 1.1//EN"
 "http://www.w3.org/Graphics/SVG/1.1/DTD/svg11.dtd">
<!-- Generated by graphviz version 5.0.0 (20220707.1540)
 -->
<!-- Title: dependencies Pages: 1 -->
<svg width="795pt" height="247pt"
 viewBox="0.00 0.00 795.00 246.80" xmlns="http://www.w3.org/2000/svg" xmlns:xlink="http://www.w3.org/1999/xlink">
<g id="graph0" class="graph" transform="scale(1 1) rotate(0) translate(4 242.8)">
<title>dependencies</title>
<polygon fill="white" stroke="transparent" points="-4,4 -4,-242.8 791,-242.8 791,4 -4,4"/>
<text text-anchor="middle" x="393.5" y="-8.2" font-family="sans-serif" font-size="14.00">dependencies</text>
<g id="clust1" class="cluster">
<title>cluster_FormDialogModule</title>
<polygon fill="none" stroke="black" stroke-dasharray="1,5" points="8,-32.8 8,-230.8 779,-230.8 779,-32.8 8,-32.8"/>
</g>
<g id="clust4" class="cluster">
<title>cluster_FormDialogModule_imports</title>
<polygon fill="none" stroke="black" points="436,-40.8 436,-92.8 771,-92.8 771,-40.8 436,-40.8"/>
</g>
<g id="clust7" class="cluster">
<title>cluster_FormDialogModule_providers</title>
<polygon fill="none" stroke="black" points="238,-40.8 238,-92.8 428,-92.8 428,-40.8 238,-40.8"/>
</g>
<g id="clust2" class="cluster">
<title>cluster_FormDialogModule_declarations</title>
<polygon fill="none" stroke="black" points="16,-40.8 16,-92.8 230,-92.8 230,-40.8 16,-40.8"/>
</g>
<g id="clust5" class="cluster">
<title>cluster_FormDialogModule_exports</title>
<polygon fill="none" stroke="black" points="311,-170.8 311,-222.8 529,-222.8 529,-170.8 311,-170.8"/>
</g>
<!-- FormDialogWrapperComponent -->
<g id="node1" class="node">
<title>FormDialogWrapperComponent</title>
<polygon fill="#ffffb3" stroke="black" points="222.24,-84.8 23.76,-84.8 23.76,-48.8 222.24,-48.8 222.24,-84.8"/>
<text text-anchor="middle" x="123" y="-62.6" font-family="Times,serif" font-size="14.00">FormDialogWrapperComponent</text>
</g>
<!-- FormDialogModule -->
<g id="node2" class="node">
<title>FormDialogModule</title>
<polygon fill="#8dd3c7" stroke="black" points="483.99,-149.8 480.99,-153.8 459.99,-153.8 456.99,-149.8 356.01,-149.8 356.01,-113.8 483.99,-113.8 483.99,-149.8"/>
<text text-anchor="middle" x="420" y="-127.6" font-family="Times,serif" font-size="14.00">FormDialogModule</text>
</g>
<!-- FormDialogWrapperComponent&#45;&gt;FormDialogModule -->
<g id="edge1" class="edge">
<title>FormDialogWrapperComponent&#45;&gt;FormDialogModule</title>
<path fill="none" stroke="black" d="M123,-84.91C123,-104.14 123,-131.8 123,-131.8 123,-131.8 345.92,-131.8 345.92,-131.8"/>
<polygon fill="black" stroke="black" points="345.92,-135.3 355.92,-131.8 345.92,-128.3 345.92,-135.3"/>
</g>
<!-- FormDialogWrapperComponent  -->
<g id="node5" class="node">
<title>FormDialogWrapperComponent </title>
<polygon fill="#fb8072" stroke="black" points="521.24,-214.8 318.76,-214.8 318.76,-178.8 521.24,-178.8 521.24,-214.8"/>
<text text-anchor="middle" x="420" y="-192.6" font-family="Times,serif" font-size="14.00">FormDialogWrapperComponent </text>
</g>
<!-- FormDialogModule&#45;&gt;FormDialogWrapperComponent  -->
<g id="edge4" class="edge">
<title>FormDialogModule&#45;&gt;FormDialogWrapperComponent </title>
<path fill="none" stroke="black" stroke-dasharray="5,2" d="M420,-149.91C420,-149.91 420,-168.79 420,-168.79"/>
<polygon fill="black" stroke="black" points="416.5,-168.79 420,-178.79 423.5,-168.79 416.5,-168.79"/>
</g>
<!-- ConfirmationDialogModule -->
<g id="node3" class="node">
<title>ConfirmationDialogModule</title>
<polygon fill="#8dd3c7" stroke="black" points="762.59,-84.8 759.59,-88.8 738.59,-88.8 735.59,-84.8 589.41,-84.8 589.41,-48.8 762.59,-48.8 762.59,-84.8"/>
<text text-anchor="middle" x="676" y="-62.6" font-family="Times,serif" font-size="14.00">ConfirmationDialogModule</text>
</g>
<!-- ConfirmationDialogModule&#45;&gt;FormDialogModule -->
<g id="edge2" class="edge">
<title>ConfirmationDialogModule&#45;&gt;FormDialogModule</title>
<path fill="none" stroke="black" d="M676,-84.91C676,-104.14 676,-131.8 676,-131.8 676,-131.8 494.27,-131.8 494.27,-131.8"/>
<polygon fill="black" stroke="black" points="494.27,-128.3 484.27,-131.8 494.27,-135.3 494.27,-128.3"/>
</g>
<!-- PermissionsModule -->
<g id="node4" class="node">
<title>PermissionsModule</title>
<polygon fill="#8dd3c7" stroke="black" points="571.73,-84.8 568.73,-88.8 547.73,-88.8 544.73,-84.8 444.27,-84.8 444.27,-48.8 571.73,-48.8 571.73,-84.8"/>
<text text-anchor="middle" x="508" y="-62.6" font-family="Times,serif" font-size="14.00">PermissionsModule</text>
</g>
<!-- PermissionsModule&#45;&gt;FormDialogModule -->
<g id="edge3" class="edge">
<title>PermissionsModule&#45;&gt;FormDialogModule</title>
<path fill="none" stroke="black" d="M464.19,-84.91C464.19,-84.91 464.19,-103.79 464.19,-103.79"/>
<polygon fill="black" stroke="black" points="460.69,-103.79 464.19,-113.79 467.69,-103.79 460.69,-103.79"/>
</g>
<!-- FormDialogService -->
<g id="node6" class="node">
<title>FormDialogService</title>
<ellipse fill="#fdb462" stroke="black" cx="333" cy="-66.8" rx="87.41" ry="18"/>
<text text-anchor="middle" x="333" y="-62.6" font-family="Times,serif" font-size="14.00">FormDialogService</text>
</g>
<!-- FormDialogService&#45;&gt;FormDialogModule -->
<g id="edge5" class="edge">
<title>FormDialogService&#45;&gt;FormDialogModule</title>
<path fill="none" stroke="black" d="M388.1,-80.9C388.1,-80.9 388.1,-103.52 388.1,-103.52"/>
<polygon fill="black" stroke="black" points="384.6,-103.52 388.1,-113.52 391.6,-103.52 384.6,-103.52"/>
</g>
</g>
</svg>
