<?xml version="1.0" encoding="UTF-8" standalone="no"?>
<!DOCTYPE svg PUBLIC "-//W3C//DTD SVG 1.1//EN"
 "http://www.w3.org/Graphics/SVG/1.1/DTD/svg11.dtd">
<!-- Generated by graphviz version 5.0.0 (20220707.1540)
 -->
<!-- Title: dependencies Pages: 1 -->
<svg width="1472pt" height="247pt"
 viewBox="0.00 0.00 1472.00 246.80" xmlns="http://www.w3.org/2000/svg" xmlns:xlink="http://www.w3.org/1999/xlink">
<g id="graph0" class="graph" transform="scale(1 1) rotate(0) translate(4 242.8)">
<title>dependencies</title>
<polygon fill="white" stroke="transparent" points="-4,4 -4,-242.8 1468,-242.8 1468,4 -4,4"/>
<text text-anchor="middle" x="732" y="-8.2" font-family="sans-serif" font-size="14.00">dependencies</text>
<g id="clust1" class="cluster">
<title>cluster_EntityListModule</title>
<polygon fill="none" stroke="black" stroke-dasharray="1,5" points="8,-32.8 8,-230.8 1456,-230.8 1456,-32.8 8,-32.8"/>
</g>
<g id="clust2" class="cluster">
<title>cluster_EntityListModule_declarations</title>
<polygon fill="none" stroke="black" points="968,-40.8 968,-92.8 1448,-92.8 1448,-40.8 968,-40.8"/>
</g>
<g id="clust6" class="cluster">
<title>cluster_EntityListModule_imports</title>
<polygon fill="none" stroke="black" points="16,-40.8 16,-92.8 960,-92.8 960,-40.8 16,-40.8"/>
</g>
<g id="clust7" class="cluster">
<title>cluster_EntityListModule_exports</title>
<polygon fill="none" stroke="black" points="503,-170.8 503,-222.8 814,-222.8 814,-170.8 503,-170.8"/>
</g>
<!-- EntityListComponent -->
<g id="node1" class="node">
<title>EntityListComponent</title>
<polygon fill="#ffffb3" stroke="black" points="1439.83,-84.8 1302.17,-84.8 1302.17,-48.8 1439.83,-48.8 1439.83,-84.8"/>
<text text-anchor="middle" x="1371" y="-62.6" font-family="Times,serif" font-size="14.00">EntityListComponent</text>
</g>
<!-- EntityListModule -->
<g id="node4" class="node">
<title>EntityListModule</title>
<polygon fill="#8dd3c7" stroke="black" points="714.55,-149.8 711.55,-153.8 690.55,-153.8 687.55,-149.8 599.45,-149.8 599.45,-113.8 714.55,-113.8 714.55,-149.8"/>
<text text-anchor="middle" x="657" y="-127.6" font-family="Times,serif" font-size="14.00">EntityListModule</text>
</g>
<!-- EntityListComponent&#45;&gt;EntityListModule -->
<g id="edge1" class="edge">
<title>EntityListComponent&#45;&gt;EntityListModule</title>
<path fill="none" stroke="black" d="M1371,-84.81C1371,-107.29 1371,-142.8 1371,-142.8 1371,-142.8 724.82,-142.8 724.82,-142.8"/>
<polygon fill="black" stroke="black" points="724.82,-139.3 714.82,-142.8 724.82,-146.3 724.82,-139.3"/>
</g>
<!-- FilterOverlayComponent -->
<g id="node2" class="node">
<title>FilterOverlayComponent</title>
<polygon fill="#ffffb3" stroke="black" points="1284.25,-84.8 1127.75,-84.8 1127.75,-48.8 1284.25,-48.8 1284.25,-84.8"/>
<text text-anchor="middle" x="1206" y="-62.6" font-family="Times,serif" font-size="14.00">FilterOverlayComponent</text>
</g>
<!-- FilterOverlayComponent&#45;&gt;EntityListModule -->
<g id="edge2" class="edge">
<title>FilterOverlayComponent&#45;&gt;EntityListModule</title>
<path fill="none" stroke="black" d="M1206,-84.93C1206,-105.37 1206,-135.8 1206,-135.8 1206,-135.8 724.71,-135.8 724.71,-135.8"/>
<polygon fill="black" stroke="black" points="724.72,-132.3 714.71,-135.8 724.71,-139.3 724.72,-132.3"/>
</g>
<!-- ListFilterComponent -->
<g id="node3" class="node">
<title>ListFilterComponent</title>
<polygon fill="#ffffb3" stroke="black" points="1109.94,-84.8 976.06,-84.8 976.06,-48.8 1109.94,-48.8 1109.94,-84.8"/>
<text text-anchor="middle" x="1043" y="-62.6" font-family="Times,serif" font-size="14.00">ListFilterComponent</text>
</g>
<!-- ListFilterComponent&#45;&gt;EntityListModule -->
<g id="edge3" class="edge">
<title>ListFilterComponent&#45;&gt;EntityListModule</title>
<path fill="none" stroke="black" d="M1043,-85.07C1043,-103.36 1043,-128.8 1043,-128.8 1043,-128.8 724.79,-128.8 724.79,-128.8"/>
<polygon fill="black" stroke="black" points="724.79,-125.3 714.79,-128.8 724.79,-132.3 724.79,-125.3"/>
</g>
<!-- EntityListComponent  -->
<g id="node12" class="node">
<title>EntityListComponent </title>
<polygon fill="#fb8072" stroke="black" points="806.33,-214.8 665.67,-214.8 665.67,-178.8 806.33,-178.8 806.33,-214.8"/>
<text text-anchor="middle" x="736" y="-192.6" font-family="Times,serif" font-size="14.00">EntityListComponent </text>
</g>
<!-- EntityListModule&#45;&gt;EntityListComponent  -->
<g id="edge11" class="edge">
<title>EntityListModule&#45;&gt;EntityListComponent </title>
<path fill="none" stroke="black" stroke-dasharray="5,2" d="M690.18,-149.91C690.18,-149.91 690.18,-168.79 690.18,-168.79"/>
<polygon fill="black" stroke="black" points="686.68,-168.79 690.18,-178.79 693.68,-168.79 686.68,-168.79"/>
</g>
<!-- ListFilterComponent  -->
<g id="node13" class="node">
<title>ListFilterComponent </title>
<polygon fill="#fb8072" stroke="black" points="647.44,-214.8 510.56,-214.8 510.56,-178.8 647.44,-178.8 647.44,-214.8"/>
<text text-anchor="middle" x="579" y="-192.6" font-family="Times,serif" font-size="14.00">ListFilterComponent </text>
</g>
<!-- EntityListModule&#45;&gt;ListFilterComponent  -->
<g id="edge12" class="edge">
<title>EntityListModule&#45;&gt;ListFilterComponent </title>
<path fill="none" stroke="black" stroke-dasharray="5,2" d="M623.35,-149.91C623.35,-149.91 623.35,-168.79 623.35,-168.79"/>
<polygon fill="black" stroke="black" points="619.85,-168.79 623.35,-178.79 626.85,-168.79 619.85,-168.79"/>
</g>
<!-- EntityFormModule -->
<g id="node5" class="node">
<title>EntityFormModule</title>
<polygon fill="#8dd3c7" stroke="black" points="952.11,-84.8 949.11,-88.8 928.11,-88.8 925.11,-84.8 827.89,-84.8 827.89,-48.8 952.11,-48.8 952.11,-84.8"/>
<text text-anchor="middle" x="890" y="-62.6" font-family="Times,serif" font-size="14.00">EntityFormModule</text>
</g>
<!-- EntityFormModule&#45;&gt;EntityListModule -->
<g id="edge4" class="edge">
<title>EntityFormModule&#45;&gt;EntityListModule</title>
<path fill="none" stroke="black" d="M890,-84.81C890,-100.85 890,-121.8 890,-121.8 890,-121.8 724.6,-121.8 724.6,-121.8"/>
<polygon fill="black" stroke="black" points="724.6,-118.3 714.6,-121.8 724.6,-125.3 724.6,-118.3"/>
</g>
<!-- EntitySubrecordModule -->
<g id="node6" class="node">
<title>EntitySubrecordModule</title>
<polygon fill="#8dd3c7" stroke="black" points="809.81,-84.8 806.81,-88.8 785.81,-88.8 782.81,-84.8 658.19,-84.8 658.19,-48.8 809.81,-48.8 809.81,-84.8"/>
<text text-anchor="middle" x="734" y="-62.6" font-family="Times,serif" font-size="14.00">EntitySubrecordModule</text>
</g>
<!-- EntitySubrecordModule&#45;&gt;EntityListModule -->
<g id="edge5" class="edge">
<title>EntitySubrecordModule&#45;&gt;EntityListModule</title>
<path fill="none" stroke="black" d="M686.56,-84.91C686.56,-84.91 686.56,-103.79 686.56,-103.79"/>
<polygon fill="black" stroke="black" points="683.06,-103.79 686.56,-113.79 690.06,-103.79 683.06,-103.79"/>
</g>
<!-- EntityUtilsModule -->
<g id="node7" class="node">
<title>EntityUtilsModule</title>
<polygon fill="#8dd3c7" stroke="black" points="640.5,-84.8 637.5,-88.8 616.5,-88.8 613.5,-84.8 519.5,-84.8 519.5,-48.8 640.5,-48.8 640.5,-84.8"/>
<text text-anchor="middle" x="580" y="-62.6" font-family="Times,serif" font-size="14.00">EntityUtilsModule</text>
</g>
<!-- EntityUtilsModule&#45;&gt;EntityListModule -->
<g id="edge6" class="edge">
<title>EntityUtilsModule&#45;&gt;EntityListModule</title>
<path fill="none" stroke="black" d="M619.86,-84.91C619.86,-84.91 619.86,-103.79 619.86,-103.79"/>
<polygon fill="black" stroke="black" points="616.36,-103.79 619.86,-113.79 623.36,-103.79 616.36,-103.79"/>
</g>
<!-- ExportModule -->
<g id="node8" class="node">
<title>ExportModule</title>
<polygon fill="#8dd3c7" stroke="black" points="501.66,-84.8 498.66,-88.8 477.66,-88.8 474.66,-84.8 404.34,-84.8 404.34,-48.8 501.66,-48.8 501.66,-84.8"/>
<text text-anchor="middle" x="453" y="-62.6" font-family="Times,serif" font-size="14.00">ExportModule</text>
</g>
<!-- ExportModule&#45;&gt;EntityListModule -->
<g id="edge7" class="edge">
<title>ExportModule&#45;&gt;EntityListModule</title>
<path fill="none" stroke="black" d="M453,-84.81C453,-100.85 453,-121.8 453,-121.8 453,-121.8 589.36,-121.8 589.36,-121.8"/>
<polygon fill="black" stroke="black" points="589.36,-125.3 599.36,-121.8 589.36,-118.3 589.36,-125.3"/>
</g>
<!-- PermissionsModule -->
<g id="node9" class="node">
<title>PermissionsModule</title>
<polygon fill="#8dd3c7" stroke="black" points="386.73,-84.8 383.73,-88.8 362.73,-88.8 359.73,-84.8 259.27,-84.8 259.27,-48.8 386.73,-48.8 386.73,-84.8"/>
<text text-anchor="middle" x="323" y="-62.6" font-family="Times,serif" font-size="14.00">PermissionsModule</text>
</g>
<!-- PermissionsModule&#45;&gt;EntityListModule -->
<g id="edge8" class="edge">
<title>PermissionsModule&#45;&gt;EntityListModule</title>
<path fill="none" stroke="black" d="M323,-85.07C323,-103.36 323,-128.8 323,-128.8 323,-128.8 589.2,-128.8 589.2,-128.8"/>
<polygon fill="black" stroke="black" points="589.2,-132.3 599.2,-128.8 589.2,-125.3 589.2,-132.3"/>
</g>
<!-- TabStateModule -->
<g id="node10" class="node">
<title>TabStateModule</title>
<polygon fill="#8dd3c7" stroke="black" points="241.81,-84.8 238.81,-88.8 217.81,-88.8 214.81,-84.8 132.19,-84.8 132.19,-48.8 241.81,-48.8 241.81,-84.8"/>
<text text-anchor="middle" x="187" y="-62.6" font-family="Times,serif" font-size="14.00">TabStateModule</text>
</g>
<!-- TabStateModule&#45;&gt;EntityListModule -->
<g id="edge9" class="edge">
<title>TabStateModule&#45;&gt;EntityListModule</title>
<path fill="none" stroke="black" d="M187,-84.93C187,-105.37 187,-135.8 187,-135.8 187,-135.8 589.37,-135.8 589.37,-135.8"/>
<polygon fill="black" stroke="black" points="589.37,-139.3 599.37,-135.8 589.37,-132.3 589.37,-139.3"/>
</g>
<!-- ViewModule -->
<g id="node11" class="node">
<title>ViewModule</title>
<polygon fill="#8dd3c7" stroke="black" points="113.88,-84.8 110.88,-88.8 89.88,-88.8 86.88,-84.8 24.12,-84.8 24.12,-48.8 113.88,-48.8 113.88,-84.8"/>
<text text-anchor="middle" x="69" y="-62.6" font-family="Times,serif" font-size="14.00">ViewModule</text>
</g>
<!-- ViewModule&#45;&gt;EntityListModule -->
<g id="edge10" class="edge">
<title>ViewModule&#45;&gt;EntityListModule</title>
<path fill="none" stroke="black" d="M69,-84.81C69,-107.29 69,-142.8 69,-142.8 69,-142.8 589.28,-142.8 589.28,-142.8"/>
<polygon fill="black" stroke="black" points="589.28,-146.3 599.28,-142.8 589.28,-139.3 589.28,-146.3"/>
</g>
</g>
</svg>
