<?xml version="1.0" encoding="UTF-8" standalone="no"?>
<!DOCTYPE svg PUBLIC "-//W3C//DTD SVG 1.1//EN"
 "http://www.w3.org/Graphics/SVG/1.1/DTD/svg11.dtd">
<!-- Generated by graphviz version 5.0.0 (20220707.1540)
 -->
<!-- Title: dependencies Pages: 1 -->
<svg width="4803pt" height="247pt"
 viewBox="0.00 0.00 4803.00 246.80" xmlns="http://www.w3.org/2000/svg" xmlns:xlink="http://www.w3.org/1999/xlink">
<g id="graph0" class="graph" transform="scale(1 1) rotate(0) translate(4 242.8)">
<title>dependencies</title>
<polygon fill="white" stroke="transparent" points="-4,4 -4,-242.8 4799,-242.8 4799,4 -4,4"/>
<text text-anchor="middle" x="2397.5" y="-8.2" font-family="sans-serif" font-size="14.00">dependencies</text>
<g id="clust1" class="cluster">
<title>cluster_AttendanceModule</title>
<polygon fill="none" stroke="black" stroke-dasharray="1,5" points="8,-32.8 8,-230.8 4787,-230.8 4787,-32.8 8,-32.8"/>
</g>
<g id="clust2" class="cluster">
<title>cluster_AttendanceModule_declarations</title>
<polygon fill="none" stroke="black" points="1417,-40.8 1417,-92.8 4779,-92.8 4779,-40.8 1417,-40.8"/>
</g>
<g id="clust19" class="cluster">
<title>cluster_AttendanceModule_imports</title>
<polygon fill="none" stroke="black" points="16,-40.8 16,-92.8 1409,-92.8 1409,-40.8 16,-40.8"/>
</g>
<g id="clust20" class="cluster">
<title>cluster_AttendanceModule_exports</title>
<polygon fill="none" stroke="black" points="898,-170.8 898,-222.8 3000,-222.8 3000,-170.8 898,-170.8"/>
</g>
<!-- ActivityAttendanceSectionComponent -->
<g id="node1" class="node">
<title>ActivityAttendanceSectionComponent</title>
<polygon fill="#ffffb3" stroke="black" points="4771.45,-84.8 4538.55,-84.8 4538.55,-48.8 4771.45,-48.8 4771.45,-84.8"/>
<text text-anchor="middle" x="4655" y="-62.6" font-family="Times,serif" font-size="14.00">ActivityAttendanceSectionComponent</text>
</g>
<!-- AttendanceModule -->
<g id="node17" class="node">
<title>AttendanceModule</title>
<polygon fill="#8dd3c7" stroke="black" points="1995.8,-149.8 1992.8,-153.8 1971.8,-153.8 1968.8,-149.8 1872.2,-149.8 1872.2,-113.8 1995.8,-113.8 1995.8,-149.8"/>
<text text-anchor="middle" x="1934" y="-127.6" font-family="Times,serif" font-size="14.00">AttendanceModule</text>
</g>
<!-- ActivityAttendanceSectionComponent&#45;&gt;AttendanceModule -->
<g id="edge1" class="edge">
<title>ActivityAttendanceSectionComponent&#45;&gt;AttendanceModule</title>
<path fill="none" stroke="black" d="M4655,-84.84C4655,-106.46 4655,-139.8 4655,-139.8 4655,-139.8 2005.94,-139.8 2005.94,-139.8"/>
<polygon fill="black" stroke="black" points="2005.94,-136.3 1995.94,-139.8 2005.94,-143.3 2005.94,-136.3"/>
</g>
<!-- ActivityCardComponent -->
<g id="node2" class="node">
<title>ActivityCardComponent</title>
<polygon fill="#ffffb3" stroke="black" points="4520.43,-84.8 4365.57,-84.8 4365.57,-48.8 4520.43,-48.8 4520.43,-84.8"/>
<text text-anchor="middle" x="4443" y="-62.6" font-family="Times,serif" font-size="14.00">ActivityCardComponent</text>
</g>
<!-- ActivityCardComponent&#45;&gt;AttendanceModule -->
<g id="edge2" class="edge">
<title>ActivityCardComponent&#45;&gt;AttendanceModule</title>
<path fill="none" stroke="black" d="M4443,-85.08C4443,-106.12 4443,-137.8 4443,-137.8 4443,-137.8 2005.71,-137.8 2005.71,-137.8"/>
<polygon fill="black" stroke="black" points="2005.71,-134.3 1995.71,-137.8 2005.71,-141.3 2005.71,-134.3"/>
</g>
<!-- AddDayAttendanceComponent -->
<g id="node3" class="node">
<title>AddDayAttendanceComponent</title>
<polygon fill="#ffffb3" stroke="black" points="4348.01,-84.8 4155.99,-84.8 4155.99,-48.8 4348.01,-48.8 4348.01,-84.8"/>
<text text-anchor="middle" x="4252" y="-62.6" font-family="Times,serif" font-size="14.00">AddDayAttendanceComponent</text>
</g>
<!-- AddDayAttendanceComponent&#45;&gt;AttendanceModule -->
<g id="edge3" class="edge">
<title>AddDayAttendanceComponent&#45;&gt;AttendanceModule</title>
<path fill="none" stroke="black" d="M4252,-84.93C4252,-105.37 4252,-135.8 4252,-135.8 4252,-135.8 2005.7,-135.8 2005.7,-135.8"/>
<polygon fill="black" stroke="black" points="2005.7,-132.3 1995.7,-135.8 2005.7,-139.3 2005.7,-132.3"/>
</g>
<!-- AttendanceBlockComponent -->
<g id="node4" class="node">
<title>AttendanceBlockComponent</title>
<polygon fill="#ffffb3" stroke="black" points="4137.02,-84.8 3958.98,-84.8 3958.98,-48.8 4137.02,-48.8 4137.02,-84.8"/>
<text text-anchor="middle" x="4048" y="-62.6" font-family="Times,serif" font-size="14.00">AttendanceBlockComponent</text>
</g>
<!-- AttendanceBlockComponent&#45;&gt;AttendanceModule -->
<g id="edge4" class="edge">
<title>AttendanceBlockComponent&#45;&gt;AttendanceModule</title>
<path fill="none" stroke="black" d="M4048,-85.11C4048,-104.95 4048,-133.8 4048,-133.8 4048,-133.8 2005.84,-133.8 2005.84,-133.8"/>
<polygon fill="black" stroke="black" points="2005.84,-130.3 1995.84,-133.8 2005.84,-137.3 2005.84,-130.3"/>
</g>
<!-- AttendanceCalendarComponent -->
<g id="node5" class="node">
<title>AttendanceCalendarComponent</title>
<polygon fill="#ffffb3" stroke="black" points="3940.61,-84.8 3745.39,-84.8 3745.39,-48.8 3940.61,-48.8 3940.61,-84.8"/>
<text text-anchor="middle" x="3843" y="-62.6" font-family="Times,serif" font-size="14.00">AttendanceCalendarComponent</text>
</g>
<!-- AttendanceCalendarComponent&#45;&gt;AttendanceModule -->
<g id="edge5" class="edge">
<title>AttendanceCalendarComponent&#45;&gt;AttendanceModule</title>
<path fill="none" stroke="black" d="M3843,-84.97C3843,-103.89 3843,-130.8 3843,-130.8 3843,-130.8 2005.89,-130.8 2005.89,-130.8"/>
<polygon fill="black" stroke="black" points="2005.89,-127.3 1995.89,-130.8 2005.89,-134.3 2005.89,-127.3"/>
</g>
<!-- AttendanceDayBlockComponent -->
<g id="node6" class="node">
<title>AttendanceDayBlockComponent</title>
<polygon fill="#ffffb3" stroke="black" points="3726.84,-84.8 3525.16,-84.8 3525.16,-48.8 3726.84,-48.8 3726.84,-84.8"/>
<text text-anchor="middle" x="3626" y="-62.6" font-family="Times,serif" font-size="14.00">AttendanceDayBlockComponent</text>
</g>
<!-- AttendanceDayBlockComponent&#45;&gt;AttendanceModule -->
<g id="edge6" class="edge">
<title>AttendanceDayBlockComponent&#45;&gt;AttendanceModule</title>
<path fill="none" stroke="black" d="M3626,-85.07C3626,-103.36 3626,-128.8 3626,-128.8 3626,-128.8 2005.72,-128.8 2005.72,-128.8"/>
<polygon fill="black" stroke="black" points="2005.72,-125.3 1995.72,-128.8 2005.72,-132.3 2005.72,-125.3"/>
</g>
<!-- AttendanceDetailsComponent -->
<g id="node7" class="node">
<title>AttendanceDetailsComponent</title>
<polygon fill="#ffffb3" stroke="black" points="3507.23,-84.8 3322.77,-84.8 3322.77,-48.8 3507.23,-48.8 3507.23,-84.8"/>
<text text-anchor="middle" x="3415" y="-62.6" font-family="Times,serif" font-size="14.00">AttendanceDetailsComponent</text>
</g>
<!-- AttendanceDetailsComponent&#45;&gt;AttendanceModule -->
<g id="edge7" class="edge">
<title>AttendanceDetailsComponent&#45;&gt;AttendanceModule</title>
<path fill="none" stroke="black" d="M3415,-84.8C3415,-102.48 3415,-126.8 3415,-126.8 3415,-126.8 2005.75,-126.8 2005.75,-126.8"/>
<polygon fill="black" stroke="black" points="2005.75,-123.3 1995.75,-126.8 2005.75,-130.3 2005.75,-123.3"/>
</g>
<!-- AttendanceManagerComponent -->
<g id="node8" class="node">
<title>AttendanceManagerComponent</title>
<polygon fill="#ffffb3" stroke="black" points="3304.33,-84.8 3109.67,-84.8 3109.67,-48.8 3304.33,-48.8 3304.33,-84.8"/>
<text text-anchor="middle" x="3207" y="-62.6" font-family="Times,serif" font-size="14.00">AttendanceManagerComponent</text>
</g>
<!-- AttendanceManagerComponent&#45;&gt;AttendanceModule -->
<g id="edge8" class="edge">
<title>AttendanceManagerComponent&#45;&gt;AttendanceModule</title>
<path fill="none" stroke="black" d="M3207,-84.83C3207,-101.86 3207,-124.8 3207,-124.8 3207,-124.8 2005.83,-124.8 2005.83,-124.8"/>
<polygon fill="black" stroke="black" points="2005.83,-121.3 1995.83,-124.8 2005.83,-128.3 2005.83,-121.3"/>
</g>
<!-- AttendanceStatusSelectComponent -->
<g id="node9" class="node">
<title>AttendanceStatusSelectComponent</title>
<polygon fill="#ffffb3" stroke="black" points="3091.51,-84.8 2878.49,-84.8 2878.49,-48.8 3091.51,-48.8 3091.51,-84.8"/>
<text text-anchor="middle" x="2985" y="-62.6" font-family="Times,serif" font-size="14.00">AttendanceStatusSelectComponent</text>
</g>
<!-- AttendanceStatusSelectComponent&#45;&gt;AttendanceModule -->
<g id="edge9" class="edge">
<title>AttendanceStatusSelectComponent&#45;&gt;AttendanceModule</title>
<path fill="none" stroke="black" d="M2935.24,-84.83C2935.24,-101.2 2935.24,-122.8 2935.24,-122.8 2935.24,-122.8 2005.88,-122.8 2005.88,-122.8"/>
<polygon fill="black" stroke="black" points="2005.88,-119.3 1995.88,-122.8 2005.88,-126.3 2005.88,-119.3"/>
</g>
<!-- AttendanceSummaryComponent -->
<g id="node10" class="node">
<title>AttendanceSummaryComponent</title>
<polygon fill="#ffffb3" stroke="black" points="2859.52,-84.8 2660.48,-84.8 2660.48,-48.8 2859.52,-48.8 2859.52,-84.8"/>
<text text-anchor="middle" x="2760" y="-62.6" font-family="Times,serif" font-size="14.00">AttendanceSummaryComponent</text>
</g>
<!-- AttendanceSummaryComponent&#45;&gt;AttendanceModule -->
<g id="edge10" class="edge">
<title>AttendanceSummaryComponent&#45;&gt;AttendanceModule</title>
<path fill="none" stroke="black" d="M2699.1,-85.08C2699.1,-100.75 2699.1,-120.8 2699.1,-120.8 2699.1,-120.8 2005.96,-120.8 2005.96,-120.8"/>
<polygon fill="black" stroke="black" points="2005.96,-117.3 1995.96,-120.8 2005.96,-124.3 2005.96,-117.3"/>
</g>
<!-- AttendanceWeekDashboardComponent -->
<g id="node11" class="node">
<title>AttendanceWeekDashboardComponent</title>
<polygon fill="#ffffb3" stroke="black" points="2642.37,-84.8 2403.63,-84.8 2403.63,-48.8 2642.37,-48.8 2642.37,-84.8"/>
<text text-anchor="middle" x="2523" y="-62.6" font-family="Times,serif" font-size="14.00">AttendanceWeekDashboardComponent</text>
</g>
<!-- AttendanceWeekDashboardComponent&#45;&gt;AttendanceModule -->
<g id="edge11" class="edge">
<title>AttendanceWeekDashboardComponent&#45;&gt;AttendanceModule</title>
<path fill="none" stroke="black" d="M2482.91,-84.99C2482.91,-99.98 2482.91,-118.8 2482.91,-118.8 2482.91,-118.8 2005.9,-118.8 2005.9,-118.8"/>
<polygon fill="black" stroke="black" points="2005.9,-115.3 1995.9,-118.8 2005.9,-122.3 2005.9,-115.3"/>
</g>
<!-- GroupedChildAttendanceComponent -->
<g id="node12" class="node">
<title>GroupedChildAttendanceComponent</title>
<polygon fill="#ffffb3" stroke="black" points="2385.68,-84.8 2160.32,-84.8 2160.32,-48.8 2385.68,-48.8 2385.68,-84.8"/>
<text text-anchor="middle" x="2273" y="-62.6" font-family="Times,serif" font-size="14.00">GroupedChildAttendanceComponent</text>
</g>
<!-- GroupedChildAttendanceComponent&#45;&gt;AttendanceModule -->
<g id="edge12" class="edge">
<title>GroupedChildAttendanceComponent&#45;&gt;AttendanceModule</title>
<path fill="none" stroke="black" d="M2228.82,-84.85C2228.82,-99.17 2228.82,-116.8 2228.82,-116.8 2228.82,-116.8 2005.8,-116.8 2005.8,-116.8"/>
<polygon fill="black" stroke="black" points="2005.8,-113.3 1995.8,-116.8 2005.8,-120.3 2005.8,-113.3"/>
</g>
<!-- RecentAttendanceBlocksComponent -->
<g id="node13" class="node">
<title>RecentAttendanceBlocksComponent</title>
<polygon fill="#ffffb3" stroke="black" points="2142.34,-84.8 1919.66,-84.8 1919.66,-48.8 2142.34,-48.8 2142.34,-84.8"/>
<text text-anchor="middle" x="2031" y="-62.6" font-family="Times,serif" font-size="14.00">RecentAttendanceBlocksComponent</text>
</g>
<!-- RecentAttendanceBlocksComponent&#45;&gt;AttendanceModule -->
<g id="edge13" class="edge">
<title>RecentAttendanceBlocksComponent&#45;&gt;AttendanceModule</title>
<path fill="none" stroke="black" d="M1957.62,-84.91C1957.62,-84.91 1957.62,-103.79 1957.62,-103.79"/>
<polygon fill="black" stroke="black" points="1954.12,-103.79 1957.62,-113.79 1961.12,-103.79 1954.12,-103.79"/>
</g>
<!-- RollCallComponent -->
<g id="node14" class="node">
<title>RollCallComponent</title>
<polygon fill="#ffffb3" stroke="black" points="1901.28,-84.8 1772.72,-84.8 1772.72,-48.8 1901.28,-48.8 1901.28,-84.8"/>
<text text-anchor="middle" x="1837" y="-62.6" font-family="Times,serif" font-size="14.00">RollCallComponent</text>
</g>
<!-- RollCallComponent&#45;&gt;AttendanceModule -->
<g id="edge14" class="edge">
<title>RollCallComponent&#45;&gt;AttendanceModule</title>
<path fill="none" stroke="black" d="M1886.87,-84.91C1886.87,-84.91 1886.87,-103.79 1886.87,-103.79"/>
<polygon fill="black" stroke="black" points="1883.37,-103.79 1886.87,-113.79 1890.37,-103.79 1883.37,-103.79"/>
</g>
<!-- RollCallSetupComponent -->
<g id="node15" class="node">
<title>RollCallSetupComponent</title>
<polygon fill="#ffffb3" stroke="black" points="1754.17,-84.8 1593.83,-84.8 1593.83,-48.8 1754.17,-48.8 1754.17,-84.8"/>
<text text-anchor="middle" x="1674" y="-62.6" font-family="Times,serif" font-size="14.00">RollCallSetupComponent</text>
</g>
<!-- RollCallSetupComponent&#45;&gt;AttendanceModule -->
<g id="edge15" class="edge">
<title>RollCallSetupComponent&#45;&gt;AttendanceModule</title>
<path fill="none" stroke="black" d="M1743.61,-84.85C1743.61,-99.17 1743.61,-116.8 1743.61,-116.8 1743.61,-116.8 1862.19,-116.8 1862.19,-116.8"/>
<polygon fill="black" stroke="black" points="1862.19,-120.3 1872.19,-116.8 1862.19,-113.3 1862.19,-120.3"/>
</g>
<!-- RollCallTabComponent -->
<g id="node16" class="node">
<title>RollCallTabComponent</title>
<polygon fill="#ffffb3" stroke="black" points="1575.05,-84.8 1424.95,-84.8 1424.95,-48.8 1575.05,-48.8 1575.05,-84.8"/>
<text text-anchor="middle" x="1500" y="-62.6" font-family="Times,serif" font-size="14.00">RollCallTabComponent</text>
</g>
<!-- RollCallTabComponent&#45;&gt;AttendanceModule -->
<g id="edge16" class="edge">
<title>RollCallTabComponent&#45;&gt;AttendanceModule</title>
<path fill="none" stroke="black" d="M1536.38,-84.99C1536.38,-99.98 1536.38,-118.8 1536.38,-118.8 1536.38,-118.8 1862.31,-118.8 1862.31,-118.8"/>
<polygon fill="black" stroke="black" points="1862.31,-122.3 1872.31,-118.8 1862.31,-115.3 1862.31,-122.3"/>
</g>
<!-- ActivityAttendanceSectionComponent  -->
<g id="node28" class="node">
<title>ActivityAttendanceSectionComponent </title>
<polygon fill="#fb8072" stroke="black" points="2992.45,-214.8 2755.55,-214.8 2755.55,-178.8 2992.45,-178.8 2992.45,-214.8"/>
<text text-anchor="middle" x="2874" y="-192.6" font-family="Times,serif" font-size="14.00">ActivityAttendanceSectionComponent </text>
</g>
<!-- AttendanceModule&#45;&gt;ActivityAttendanceSectionComponent  -->
<g id="edge27" class="edge">
<title>AttendanceModule&#45;&gt;ActivityAttendanceSectionComponent </title>
<path fill="none" stroke="black" stroke-dasharray="5,2" d="M1995.79,-141.8C2195.04,-141.8 2807.77,-141.8 2807.77,-141.8 2807.77,-141.8 2807.77,-168.79 2807.77,-168.79"/>
<polygon fill="black" stroke="black" points="2804.27,-168.79 2807.77,-178.79 2811.27,-168.79 2804.27,-168.79"/>
</g>
<!-- ActivityCardComponent  -->
<g id="node29" class="node">
<title>ActivityCardComponent </title>
<polygon fill="#fb8072" stroke="black" points="2737.93,-214.8 2580.07,-214.8 2580.07,-178.8 2737.93,-178.8 2737.93,-214.8"/>
<text text-anchor="middle" x="2659" y="-192.6" font-family="Times,serif" font-size="14.00">ActivityCardComponent </text>
</g>
<!-- AttendanceModule&#45;&gt;ActivityCardComponent  -->
<g id="edge28" class="edge">
<title>AttendanceModule&#45;&gt;ActivityCardComponent </title>
<path fill="none" stroke="black" stroke-dasharray="5,2" d="M1995.88,-143.8C2163.04,-143.8 2611.11,-143.8 2611.11,-143.8 2611.11,-143.8 2611.11,-168.56 2611.11,-168.56"/>
<polygon fill="black" stroke="black" points="2607.61,-168.56 2611.11,-178.56 2614.61,-168.56 2607.61,-168.56"/>
</g>
<!-- AttendanceBlockComponent  -->
<g id="node30" class="node">
<title>AttendanceBlockComponent </title>
<polygon fill="#fb8072" stroke="black" points="2562.02,-214.8 2379.98,-214.8 2379.98,-178.8 2562.02,-178.8 2562.02,-214.8"/>
<text text-anchor="middle" x="2471" y="-192.6" font-family="Times,serif" font-size="14.00">AttendanceBlockComponent </text>
</g>
<!-- AttendanceModule&#45;&gt;AttendanceBlockComponent  -->
<g id="edge29" class="edge">
<title>AttendanceModule&#45;&gt;AttendanceBlockComponent </title>
<path fill="none" stroke="black" stroke-dasharray="5,2" d="M1995.65,-145.8C2121.19,-145.8 2394.7,-145.8 2394.7,-145.8 2394.7,-145.8 2394.7,-168.68 2394.7,-168.68"/>
<polygon fill="black" stroke="black" points="2391.2,-168.68 2394.7,-178.68 2398.2,-168.68 2391.2,-168.68"/>
</g>
<!-- AttendanceCalendarComponent  -->
<g id="node31" class="node">
<title>AttendanceCalendarComponent </title>
<polygon fill="#fb8072" stroke="black" points="2361.61,-214.8 2162.39,-214.8 2162.39,-178.8 2361.61,-178.8 2361.61,-214.8"/>
<text text-anchor="middle" x="2262" y="-192.6" font-family="Times,serif" font-size="14.00">AttendanceCalendarComponent </text>
</g>
<!-- AttendanceModule&#45;&gt;AttendanceCalendarComponent  -->
<g id="edge30" class="edge">
<title>AttendanceModule&#45;&gt;AttendanceCalendarComponent </title>
<path fill="none" stroke="black" stroke-dasharray="5,2" d="M1995.68,-147.8C2098.84,-147.8 2295.18,-147.8 2295.18,-147.8 2295.18,-147.8 2295.18,-168.55 2295.18,-168.55"/>
<polygon fill="black" stroke="black" points="2291.68,-168.55 2295.18,-178.55 2298.68,-168.55 2291.68,-168.55"/>
</g>
<!-- AttendanceDayBlockComponent  -->
<g id="node32" class="node">
<title>AttendanceDayBlockComponent </title>
<polygon fill="#fb8072" stroke="black" points="2144.84,-214.8 1939.16,-214.8 1939.16,-178.8 2144.84,-178.8 2144.84,-214.8"/>
<text text-anchor="middle" x="2042" y="-192.6" font-family="Times,serif" font-size="14.00">AttendanceDayBlockComponent </text>
</g>
<!-- AttendanceModule&#45;&gt;AttendanceDayBlockComponent  -->
<g id="edge31" class="edge">
<title>AttendanceModule&#45;&gt;AttendanceDayBlockComponent </title>
<path fill="none" stroke="black" stroke-dasharray="5,2" d="M1967.49,-149.91C1967.49,-149.91 1967.49,-168.79 1967.49,-168.79"/>
<polygon fill="black" stroke="black" points="1963.99,-168.79 1967.49,-178.79 1970.99,-168.79 1963.99,-168.79"/>
</g>
<!-- AttendanceDetailsComponent  -->
<g id="node33" class="node">
<title>AttendanceDetailsComponent </title>
<polygon fill="#fb8072" stroke="black" points="1921.23,-214.8 1732.77,-214.8 1732.77,-178.8 1921.23,-178.8 1921.23,-214.8"/>
<text text-anchor="middle" x="1827" y="-192.6" font-family="Times,serif" font-size="14.00">AttendanceDetailsComponent </text>
</g>
<!-- AttendanceModule&#45;&gt;AttendanceDetailsComponent  -->
<g id="edge32" class="edge">
<title>AttendanceModule&#45;&gt;AttendanceDetailsComponent </title>
<path fill="none" stroke="black" stroke-dasharray="5,2" d="M1896.73,-149.91C1896.73,-149.91 1896.73,-168.79 1896.73,-168.79"/>
<polygon fill="black" stroke="black" points="1893.23,-168.79 1896.73,-178.79 1900.23,-168.79 1893.23,-168.79"/>
</g>
<!-- AttendanceStatusSelectComponent  -->
<g id="node34" class="node">
<title>AttendanceStatusSelectComponent </title>
<polygon fill="#fb8072" stroke="black" points="1714.51,-214.8 1497.49,-214.8 1497.49,-178.8 1714.51,-178.8 1714.51,-214.8"/>
<text text-anchor="middle" x="1606" y="-192.6" font-family="Times,serif" font-size="14.00">AttendanceStatusSelectComponent </text>
</g>
<!-- AttendanceModule&#45;&gt;AttendanceStatusSelectComponent  -->
<g id="edge33" class="edge">
<title>AttendanceModule&#45;&gt;AttendanceStatusSelectComponent </title>
<path fill="none" stroke="black" stroke-dasharray="5,2" d="M1872.23,-147.8C1789.79,-147.8 1654.09,-147.8 1654.09,-147.8 1654.09,-147.8 1654.09,-168.55 1654.09,-168.55"/>
<polygon fill="black" stroke="black" points="1650.59,-168.55 1654.09,-178.55 1657.59,-168.55 1650.59,-168.55"/>
</g>
<!-- AttendanceWeekDashboardComponent  -->
<g id="node35" class="node">
<title>AttendanceWeekDashboardComponent </title>
<polygon fill="#fb8072" stroke="black" points="1479.87,-214.8 1238.13,-214.8 1238.13,-178.8 1479.87,-178.8 1479.87,-214.8"/>
<text text-anchor="middle" x="1359" y="-192.6" font-family="Times,serif" font-size="14.00">AttendanceWeekDashboardComponent </text>
</g>
<!-- AttendanceModule&#45;&gt;AttendanceWeekDashboardComponent  -->
<g id="edge34" class="edge">
<title>AttendanceModule&#45;&gt;AttendanceWeekDashboardComponent </title>
<path fill="none" stroke="black" stroke-dasharray="5,2" d="M1872.02,-145.8C1741.92,-145.8 1452.33,-145.8 1452.33,-145.8 1452.33,-145.8 1452.33,-168.68 1452.33,-168.68"/>
<polygon fill="black" stroke="black" points="1448.83,-168.68 1452.33,-178.68 1455.83,-168.68 1448.83,-168.68"/>
</g>
<!-- RollCallComponent  -->
<g id="node36" class="node">
<title>RollCallComponent </title>
<polygon fill="#fb8072" stroke="black" points="1220.28,-214.8 1087.72,-214.8 1087.72,-178.8 1220.28,-178.8 1220.28,-214.8"/>
<text text-anchor="middle" x="1154" y="-192.6" font-family="Times,serif" font-size="14.00">RollCallComponent </text>
</g>
<!-- AttendanceModule&#45;&gt;RollCallComponent  -->
<g id="edge35" class="edge">
<title>AttendanceModule&#45;&gt;RollCallComponent </title>
<path fill="none" stroke="black" stroke-dasharray="5,2" d="M1872.28,-143.8C1689.52,-143.8 1163.85,-143.8 1163.85,-143.8 1163.85,-143.8 1163.85,-168.56 1163.85,-168.56"/>
<polygon fill="black" stroke="black" points="1160.35,-168.56 1163.85,-178.56 1167.35,-168.56 1160.35,-168.56"/>
</g>
<!-- RollCallSetupComponent  -->
<g id="node37" class="node">
<title>RollCallSetupComponent </title>
<polygon fill="#fb8072" stroke="black" points="1070.17,-214.8 905.83,-214.8 905.83,-178.8 1070.17,-178.8 1070.17,-214.8"/>
<text text-anchor="middle" x="988" y="-192.6" font-family="Times,serif" font-size="14.00">RollCallSetupComponent </text>
</g>
<!-- AttendanceModule&#45;&gt;RollCallSetupComponent  -->
<g id="edge36" class="edge">
<title>AttendanceModule&#45;&gt;RollCallSetupComponent </title>
<path fill="none" stroke="black" stroke-dasharray="5,2" d="M1872.22,-141.8C1666.78,-141.8 1019.49,-141.8 1019.49,-141.8 1019.49,-141.8 1019.49,-168.79 1019.49,-168.79"/>
<polygon fill="black" stroke="black" points="1015.99,-168.79 1019.49,-178.79 1022.99,-168.79 1015.99,-168.79"/>
</g>
<!-- ChildrenModule -->
<g id="node18" class="node">
<title>ChildrenModule</title>
<polygon fill="#8dd3c7" stroke="black" points="1401.05,-84.8 1398.05,-88.8 1377.05,-88.8 1374.05,-84.8 1292.95,-84.8 1292.95,-48.8 1401.05,-48.8 1401.05,-84.8"/>
<text text-anchor="middle" x="1347" y="-62.6" font-family="Times,serif" font-size="14.00">ChildrenModule</text>
</g>
<!-- ChildrenModule&#45;&gt;AttendanceModule -->
<g id="edge17" class="edge">
<title>ChildrenModule&#45;&gt;AttendanceModule</title>
<path fill="none" stroke="black" d="M1347,-85.08C1347,-100.75 1347,-120.8 1347,-120.8 1347,-120.8 1862.29,-120.8 1862.29,-120.8"/>
<polygon fill="black" stroke="black" points="1862.29,-124.3 1872.29,-120.8 1862.29,-117.3 1862.29,-124.3"/>
</g>
<!-- ConfigurableEnumModule -->
<g id="node19" class="node">
<title>ConfigurableEnumModule</title>
<polygon fill="#8dd3c7" stroke="black" points="1274.36,-84.8 1271.36,-88.8 1250.36,-88.8 1247.36,-84.8 1107.64,-84.8 1107.64,-48.8 1274.36,-48.8 1274.36,-84.8"/>
<text text-anchor="middle" x="1191" y="-62.6" font-family="Times,serif" font-size="14.00">ConfigurableEnumModule</text>
</g>
<!-- ConfigurableEnumModule&#45;&gt;AttendanceModule -->
<g id="edge18" class="edge">
<title>ConfigurableEnumModule&#45;&gt;AttendanceModule</title>
<path fill="none" stroke="black" d="M1256.25,-84.83C1256.25,-101.2 1256.25,-122.8 1256.25,-122.8 1256.25,-122.8 1862.06,-122.8 1862.06,-122.8"/>
<polygon fill="black" stroke="black" points="1862.06,-126.3 1872.06,-122.8 1862.06,-119.3 1862.06,-126.3"/>
</g>
<!-- DashboardModule -->
<g id="node20" class="node">
<title>DashboardModule</title>
<polygon fill="#8dd3c7" stroke="black" points="1089.2,-84.8 1086.2,-88.8 1065.2,-88.8 1062.2,-84.8 968.8,-84.8 968.8,-48.8 1089.2,-48.8 1089.2,-84.8"/>
<text text-anchor="middle" x="1029" y="-62.6" font-family="Times,serif" font-size="14.00">DashboardModule</text>
</g>
<!-- DashboardModule&#45;&gt;AttendanceModule -->
<g id="edge19" class="edge">
<title>DashboardModule&#45;&gt;AttendanceModule</title>
<path fill="none" stroke="black" d="M1078.97,-84.83C1078.97,-101.86 1078.97,-124.8 1078.97,-124.8 1078.97,-124.8 1862.16,-124.8 1862.16,-124.8"/>
<polygon fill="black" stroke="black" points="1862.16,-128.3 1872.16,-124.8 1862.16,-121.3 1862.16,-128.3"/>
</g>
<!-- EntityListModule -->
<g id="node21" class="node">
<title>EntityListModule</title>
<polygon fill="#8dd3c7" stroke="black" points="950.55,-84.8 947.55,-88.8 926.55,-88.8 923.55,-84.8 835.45,-84.8 835.45,-48.8 950.55,-48.8 950.55,-84.8"/>
<text text-anchor="middle" x="893" y="-62.6" font-family="Times,serif" font-size="14.00">EntityListModule</text>
</g>
<!-- EntityListModule&#45;&gt;AttendanceModule -->
<g id="edge20" class="edge">
<title>EntityListModule&#45;&gt;AttendanceModule</title>
<path fill="none" stroke="black" d="M928.35,-84.8C928.35,-102.48 928.35,-126.8 928.35,-126.8 928.35,-126.8 1862.23,-126.8 1862.23,-126.8"/>
<polygon fill="black" stroke="black" points="1862.23,-130.3 1872.23,-126.8 1862.23,-123.3 1862.23,-130.3"/>
</g>
<!-- EntitySubrecordModule -->
<g id="node22" class="node">
<title>EntitySubrecordModule</title>
<polygon fill="#8dd3c7" stroke="black" points="817.81,-84.8 814.81,-88.8 793.81,-88.8 790.81,-84.8 666.19,-84.8 666.19,-48.8 817.81,-48.8 817.81,-84.8"/>
<text text-anchor="middle" x="742" y="-62.6" font-family="Times,serif" font-size="14.00">EntitySubrecordModule</text>
</g>
<!-- EntitySubrecordModule&#45;&gt;AttendanceModule -->
<g id="edge21" class="edge">
<title>EntitySubrecordModule&#45;&gt;AttendanceModule</title>
<path fill="none" stroke="black" d="M742,-85.07C742,-103.36 742,-128.8 742,-128.8 742,-128.8 1862.01,-128.8 1862.01,-128.8"/>
<polygon fill="black" stroke="black" points="1862.01,-132.3 1872.01,-128.8 1862.01,-125.3 1862.01,-132.3"/>
</g>
<!-- EntityUtilsModule -->
<g id="node23" class="node">
<title>EntityUtilsModule</title>
<polygon fill="#8dd3c7" stroke="black" points="648.5,-84.8 645.5,-88.8 624.5,-88.8 621.5,-84.8 527.5,-84.8 527.5,-48.8 648.5,-48.8 648.5,-84.8"/>
<text text-anchor="middle" x="588" y="-62.6" font-family="Times,serif" font-size="14.00">EntityUtilsModule</text>
</g>
<!-- EntityUtilsModule&#45;&gt;AttendanceModule -->
<g id="edge22" class="edge">
<title>EntityUtilsModule&#45;&gt;AttendanceModule</title>
<path fill="none" stroke="black" d="M588,-84.97C588,-103.89 588,-130.8 588,-130.8 588,-130.8 1862.22,-130.8 1862.22,-130.8"/>
<polygon fill="black" stroke="black" points="1862.22,-134.3 1872.22,-130.8 1862.22,-127.3 1862.22,-134.3"/>
</g>
<!-- FormDialogModule -->
<g id="node24" class="node">
<title>FormDialogModule</title>
<polygon fill="#8dd3c7" stroke="black" points="509.99,-84.8 506.99,-88.8 485.99,-88.8 482.99,-84.8 382.01,-84.8 382.01,-48.8 509.99,-48.8 509.99,-84.8"/>
<text text-anchor="middle" x="446" y="-62.6" font-family="Times,serif" font-size="14.00">FormDialogModule</text>
</g>
<!-- FormDialogModule&#45;&gt;AttendanceModule -->
<g id="edge23" class="edge">
<title>FormDialogModule&#45;&gt;AttendanceModule</title>
<path fill="none" stroke="black" d="M446,-85.11C446,-104.95 446,-133.8 446,-133.8 446,-133.8 1861.96,-133.8 1861.96,-133.8"/>
<polygon fill="black" stroke="black" points="1861.96,-137.3 1871.96,-133.8 1861.96,-130.3 1861.96,-137.3"/>
</g>
<!-- SchoolsModule -->
<g id="node25" class="node">
<title>SchoolsModule</title>
<polygon fill="#8dd3c7" stroke="black" points="363.89,-84.8 360.89,-88.8 339.89,-88.8 336.89,-84.8 260.11,-84.8 260.11,-48.8 363.89,-48.8 363.89,-84.8"/>
<text text-anchor="middle" x="312" y="-62.6" font-family="Times,serif" font-size="14.00">SchoolsModule</text>
</g>
<!-- SchoolsModule&#45;&gt;AttendanceModule -->
<g id="edge24" class="edge">
<title>SchoolsModule&#45;&gt;AttendanceModule</title>
<path fill="none" stroke="black" d="M312,-84.93C312,-105.37 312,-135.8 312,-135.8 312,-135.8 1861.9,-135.8 1861.9,-135.8"/>
<polygon fill="black" stroke="black" points="1861.9,-139.3 1871.9,-135.8 1861.9,-132.3 1861.9,-139.3"/>
</g>
<!-- TabStateModule -->
<g id="node26" class="node">
<title>TabStateModule</title>
<polygon fill="#8dd3c7" stroke="black" points="241.81,-84.8 238.81,-88.8 217.81,-88.8 214.81,-84.8 132.19,-84.8 132.19,-48.8 241.81,-48.8 241.81,-84.8"/>
<text text-anchor="middle" x="187" y="-62.6" font-family="Times,serif" font-size="14.00">TabStateModule</text>
</g>
<!-- TabStateModule&#45;&gt;AttendanceModule -->
<g id="edge25" class="edge">
<title>TabStateModule&#45;&gt;AttendanceModule</title>
<path fill="none" stroke="black" d="M187,-85.08C187,-106.12 187,-137.8 187,-137.8 187,-137.8 1862.34,-137.8 1862.34,-137.8"/>
<polygon fill="black" stroke="black" points="1862.34,-141.3 1872.34,-137.8 1862.34,-134.3 1862.34,-141.3"/>
</g>
<!-- ViewModule -->
<g id="node27" class="node">
<title>ViewModule</title>
<polygon fill="#8dd3c7" stroke="black" points="113.88,-84.8 110.88,-88.8 89.88,-88.8 86.88,-84.8 24.12,-84.8 24.12,-48.8 113.88,-48.8 113.88,-84.8"/>
<text text-anchor="middle" x="69" y="-62.6" font-family="Times,serif" font-size="14.00">ViewModule</text>
</g>
<!-- ViewModule&#45;&gt;AttendanceModule -->
<g id="edge26" class="edge">
<title>ViewModule&#45;&gt;AttendanceModule</title>
<path fill="none" stroke="black" d="M69,-84.84C69,-106.46 69,-139.8 69,-139.8 69,-139.8 1862.21,-139.8 1862.21,-139.8"/>
<polygon fill="black" stroke="black" points="1862.21,-143.3 1872.21,-139.8 1862.21,-136.3 1862.21,-143.3"/>
</g>
</g>
</svg>
