<?xml version="1.0" encoding="UTF-8" standalone="no"?>
<!DOCTYPE svg PUBLIC "-//W3C//DTD SVG 1.1//EN"
 "http://www.w3.org/Graphics/SVG/1.1/DTD/svg11.dtd">
<!-- Generated by graphviz version 5.0.0 (20220707.1540)
 -->
<!-- Title: dependencies Pages: 1 -->
<svg width="952pt" height="174pt"
 viewBox="0.00 0.00 952.00 173.80" xmlns="http://www.w3.org/2000/svg" xmlns:xlink="http://www.w3.org/1999/xlink">
<g id="graph0" class="graph" transform="scale(1 1) rotate(0) translate(4 169.8)">
<title>dependencies</title>
<polygon fill="white" stroke="transparent" points="-4,4 -4,-169.8 948,-169.8 948,4 -4,4"/>
<text text-anchor="middle" x="472" y="-8.2" font-family="sans-serif" font-size="14.00">dependencies</text>
<g id="clust1" class="cluster">
<title>cluster_AdminModule</title>
<polygon fill="none" stroke="black" stroke-dasharray="1,5" points="8,-32.8 8,-157.8 936,-157.8 936,-32.8 8,-32.8"/>
</g>
<g id="clust2" class="cluster">
<title>cluster_AdminModule_declarations</title>
<polygon fill="none" stroke="black" points="792,-40.8 792,-92.8 928,-92.8 928,-40.8 792,-40.8"/>
</g>
<g id="clust4" class="cluster">
<title>cluster_AdminModule_imports</title>
<polygon fill="none" stroke="black" points="420,-40.8 420,-92.8 784,-92.8 784,-40.8 420,-40.8"/>
</g>
<g id="clust7" class="cluster">
<title>cluster_AdminModule_providers</title>
<polygon fill="none" stroke="black" points="16,-40.8 16,-92.8 412,-92.8 412,-40.8 16,-40.8"/>
</g>
<!-- AdminComponent -->
<g id="node1" class="node">
<title>AdminComponent</title>
<polygon fill="#ffffb3" stroke="black" points="920.22,-84.8 799.78,-84.8 799.78,-48.8 920.22,-48.8 920.22,-84.8"/>
<text text-anchor="middle" x="860" y="-62.6" font-family="Times,serif" font-size="14.00">AdminComponent</text>
</g>
<!-- AdminModule -->
<g id="node2" class="node">
<title>AdminModule</title>
<polygon fill="#8dd3c7" stroke="black" points="587.44,-149.8 584.44,-153.8 563.44,-153.8 560.44,-149.8 488.56,-149.8 488.56,-113.8 587.44,-113.8 587.44,-149.8"/>
<text text-anchor="middle" x="538" y="-127.6" font-family="Times,serif" font-size="14.00">AdminModule</text>
</g>
<!-- AdminComponent&#45;&gt;AdminModule -->
<g id="edge1" class="edge">
<title>AdminComponent&#45;&gt;AdminModule</title>
<path fill="none" stroke="black" d="M860,-85.08C860,-106.12 860,-137.8 860,-137.8 860,-137.8 597.26,-137.8 597.26,-137.8"/>
<polygon fill="black" stroke="black" points="597.26,-134.3 587.26,-137.8 597.26,-141.3 597.26,-134.3"/>
</g>
<!-- AlertsModule -->
<g id="node3" class="node">
<title>AlertsModule</title>
<polygon fill="#8dd3c7" stroke="black" points="775.77,-84.8 772.77,-88.8 751.77,-88.8 748.77,-84.8 682.23,-84.8 682.23,-48.8 775.77,-48.8 775.77,-84.8"/>
<text text-anchor="middle" x="729" y="-62.6" font-family="Times,serif" font-size="14.00">AlertsModule</text>
</g>
<!-- AlertsModule&#45;&gt;AdminModule -->
<g id="edge2" class="edge">
<title>AlertsModule&#45;&gt;AdminModule</title>
<path fill="none" stroke="black" d="M729,-84.82C729,-102.17 729,-125.8 729,-125.8 729,-125.8 597.68,-125.8 597.68,-125.8"/>
<polygon fill="black" stroke="black" points="597.68,-122.3 587.68,-125.8 597.68,-129.3 597.68,-122.3"/>
</g>
<!-- DataImportModule -->
<g id="node4" class="node">
<title>DataImportModule</title>
<polygon fill="#8dd3c7" stroke="black" points="664.08,-84.8 661.08,-88.8 640.08,-88.8 637.08,-84.8 539.92,-84.8 539.92,-48.8 664.08,-48.8 664.08,-84.8"/>
<text text-anchor="middle" x="602" y="-62.6" font-family="Times,serif" font-size="14.00">DataImportModule</text>
</g>
<!-- DataImportModule&#45;&gt;AdminModule -->
<g id="edge3" class="edge">
<title>DataImportModule&#45;&gt;AdminModule</title>
<path fill="none" stroke="black" d="M563.59,-84.91C563.59,-84.91 563.59,-103.79 563.59,-103.79"/>
<polygon fill="black" stroke="black" points="560.09,-103.79 563.59,-113.79 567.09,-103.79 560.09,-103.79"/>
</g>
<!-- EntityModule -->
<g id="node5" class="node">
<title>EntityModule</title>
<polygon fill="#8dd3c7" stroke="black" points="521.77,-84.8 518.77,-88.8 497.77,-88.8 494.77,-84.8 428.23,-84.8 428.23,-48.8 521.77,-48.8 521.77,-84.8"/>
<text text-anchor="middle" x="475" y="-62.6" font-family="Times,serif" font-size="14.00">EntityModule</text>
</g>
<!-- EntityModule&#45;&gt;AdminModule -->
<g id="edge4" class="edge">
<title>EntityModule&#45;&gt;AdminModule</title>
<path fill="none" stroke="black" d="M505.33,-84.91C505.33,-84.91 505.33,-103.79 505.33,-103.79"/>
<polygon fill="black" stroke="black" points="501.83,-103.79 505.33,-113.79 508.83,-103.79 501.83,-103.79"/>
</g>
<!-- BackupService -->
<g id="node6" class="node">
<title>BackupService</title>
<ellipse fill="#fdb462" stroke="black" cx="335" cy="-66.8" rx="69.48" ry="18"/>
<text text-anchor="middle" x="335" y="-62.6" font-family="Times,serif" font-size="14.00">BackupService</text>
</g>
<!-- BackupService&#45;&gt;AdminModule -->
<g id="edge5" class="edge">
<title>BackupService&#45;&gt;AdminModule</title>
<path fill="none" stroke="black" d="M335,-84.82C335,-102.17 335,-125.8 335,-125.8 335,-125.8 478.6,-125.8 478.6,-125.8"/>
<polygon fill="black" stroke="black" points="478.6,-129.3 488.6,-125.8 478.6,-122.3 478.6,-129.3"/>
</g>
<!-- ChildPhotoUpdateService -->
<g id="node7" class="node">
<title>ChildPhotoUpdateService</title>
<ellipse fill="#fdb462" stroke="black" cx="136" cy="-66.8" rx="111.77" ry="18"/>
<text text-anchor="middle" x="136" y="-62.6" font-family="Times,serif" font-size="14.00">ChildPhotoUpdateService</text>
</g>
<!-- ChildPhotoUpdateService&#45;&gt;AdminModule -->
<g id="edge6" class="edge">
<title>ChildPhotoUpdateService&#45;&gt;AdminModule</title>
<path fill="none" stroke="black" d="M136,-85.08C136,-106.12 136,-137.8 136,-137.8 136,-137.8 478.71,-137.8 478.71,-137.8"/>
<polygon fill="black" stroke="black" points="478.71,-141.3 488.71,-137.8 478.71,-134.3 478.71,-141.3"/>
</g>
</g>
</svg>
