<?xml version="1.0" encoding="UTF-8" standalone="no"?>
<!DOCTYPE svg PUBLIC "-//W3C//DTD SVG 1.1//EN"
 "http://www.w3.org/Graphics/SVG/1.1/DTD/svg11.dtd">
<!-- Generated by graphviz version 5.0.0 (20220707.1540)
 -->
<!-- Title: dependencies Pages: 1 -->
<svg width="716pt" height="247pt"
 viewBox="0.00 0.00 716.00 246.80" xmlns="http://www.w3.org/2000/svg" xmlns:xlink="http://www.w3.org/1999/xlink">
<g id="graph0" class="graph" transform="scale(1 1) rotate(0) translate(4 242.8)">
<title>dependencies</title>
<polygon fill="white" stroke="transparent" points="-4,4 -4,-242.8 712,-242.8 712,4 -4,4"/>
<text text-anchor="middle" x="354" y="-8.2" font-family="sans-serif" font-size="14.00">dependencies</text>
<g id="clust1" class="cluster">
<title>cluster_SyncStatusModule</title>
<polygon fill="none" stroke="black" stroke-dasharray="1,5" points="8,-32.8 8,-230.8 700,-230.8 700,-32.8 8,-32.8"/>
</g>
<g id="clust2" class="cluster">
<title>cluster_SyncStatusModule_declarations</title>
<polygon fill="none" stroke="black" points="254,-40.8 254,-92.8 692,-92.8 692,-40.8 254,-40.8"/>
</g>
<g id="clust5" class="cluster">
<title>cluster_SyncStatusModule_imports</title>
<polygon fill="none" stroke="black" points="16,-40.8 16,-92.8 246,-92.8 246,-40.8 16,-40.8"/>
</g>
<g id="clust6" class="cluster">
<title>cluster_SyncStatusModule_exports</title>
<polygon fill="none" stroke="black" points="180,-170.8 180,-222.8 344,-222.8 344,-170.8 180,-170.8"/>
</g>
<!-- BackgroundProcessingIndicatorComponent -->
<g id="node1" class="node">
<title>BackgroundProcessingIndicatorComponent</title>
<polygon fill="#ffffb3" stroke="black" points="684.45,-84.8 423.55,-84.8 423.55,-48.8 684.45,-48.8 684.45,-84.8"/>
<text text-anchor="middle" x="554" y="-62.6" font-family="Times,serif" font-size="14.00">BackgroundProcessingIndicatorComponent</text>
</g>
<!-- SyncStatusModule -->
<g id="node3" class="node">
<title>SyncStatusModule</title>
<polygon fill="#8dd3c7" stroke="black" points="322.78,-149.8 319.78,-153.8 298.78,-153.8 295.78,-149.8 201.22,-149.8 201.22,-113.8 322.78,-113.8 322.78,-149.8"/>
<text text-anchor="middle" x="262" y="-127.6" font-family="Times,serif" font-size="14.00">SyncStatusModule</text>
</g>
<!-- BackgroundProcessingIndicatorComponent&#45;&gt;SyncStatusModule -->
<g id="edge1" class="edge">
<title>BackgroundProcessingIndicatorComponent&#45;&gt;SyncStatusModule</title>
<path fill="none" stroke="black" d="M554,-84.91C554,-104.14 554,-131.8 554,-131.8 554,-131.8 332.86,-131.8 332.86,-131.8"/>
<polygon fill="black" stroke="black" points="332.86,-128.3 322.86,-131.8 332.86,-135.3 332.86,-128.3"/>
</g>
<!-- SyncStatusComponent -->
<g id="node2" class="node">
<title>SyncStatusComponent</title>
<polygon fill="#ffffb3" stroke="black" points="405.56,-84.8 262.44,-84.8 262.44,-48.8 405.56,-48.8 405.56,-84.8"/>
<text text-anchor="middle" x="334" y="-62.6" font-family="Times,serif" font-size="14.00">SyncStatusComponent</text>
</g>
<!-- SyncStatusComponent&#45;&gt;SyncStatusModule -->
<g id="edge2" class="edge">
<title>SyncStatusComponent&#45;&gt;SyncStatusModule</title>
<path fill="none" stroke="black" d="M292.56,-84.91C292.56,-84.91 292.56,-103.79 292.56,-103.79"/>
<polygon fill="black" stroke="black" points="289.06,-103.79 292.56,-113.79 296.06,-103.79 289.06,-103.79"/>
</g>
<!-- SyncStatusComponent  -->
<g id="node6" class="node">
<title>SyncStatusComponent </title>
<polygon fill="#fb8072" stroke="black" points="335.56,-214.8 188.44,-214.8 188.44,-178.8 335.56,-178.8 335.56,-214.8"/>
<text text-anchor="middle" x="262" y="-192.6" font-family="Times,serif" font-size="14.00">SyncStatusComponent </text>
</g>
<!-- SyncStatusModule&#45;&gt;SyncStatusComponent  -->
<g id="edge5" class="edge">
<title>SyncStatusModule&#45;&gt;SyncStatusComponent </title>
<path fill="none" stroke="black" stroke-dasharray="5,2" d="M262,-149.91C262,-149.91 262,-168.79 262,-168.79"/>
<polygon fill="black" stroke="black" points="258.5,-168.79 262,-178.79 265.5,-168.79 258.5,-168.79"/>
</g>
<!-- AlertsModule -->
<g id="node4" class="node">
<title>AlertsModule</title>
<polygon fill="#8dd3c7" stroke="black" points="237.77,-84.8 234.77,-88.8 213.77,-88.8 210.77,-84.8 144.23,-84.8 144.23,-48.8 237.77,-48.8 237.77,-84.8"/>
<text text-anchor="middle" x="191" y="-62.6" font-family="Times,serif" font-size="14.00">AlertsModule</text>
</g>
<!-- AlertsModule&#45;&gt;SyncStatusModule -->
<g id="edge3" class="edge">
<title>AlertsModule&#45;&gt;SyncStatusModule</title>
<path fill="none" stroke="black" d="M219.5,-84.91C219.5,-84.91 219.5,-103.79 219.5,-103.79"/>
<polygon fill="black" stroke="black" points="216,-103.79 219.5,-113.79 223,-103.79 216,-103.79"/>
</g>
<!-- SessionModule -->
<g id="node5" class="node">
<title>SessionModule</title>
<polygon fill="#8dd3c7" stroke="black" points="126.34,-84.8 123.34,-88.8 102.34,-88.8 99.34,-84.8 23.66,-84.8 23.66,-48.8 126.34,-48.8 126.34,-84.8"/>
<text text-anchor="middle" x="75" y="-62.6" font-family="Times,serif" font-size="14.00">SessionModule</text>
</g>
<!-- SessionModule&#45;&gt;SyncStatusModule -->
<g id="edge4" class="edge">
<title>SessionModule&#45;&gt;SyncStatusModule</title>
<path fill="none" stroke="black" d="M75,-84.91C75,-104.14 75,-131.8 75,-131.8 75,-131.8 191.03,-131.8 191.03,-131.8"/>
<polygon fill="black" stroke="black" points="191.03,-135.3 201.03,-131.8 191.03,-128.3 191.03,-135.3"/>
</g>
</g>
</svg>
