<?xml version="1.0" encoding="UTF-8" standalone="no"?>
<!DOCTYPE svg PUBLIC "-//W3C//DTD SVG 1.1//EN"
 "http://www.w3.org/Graphics/SVG/1.1/DTD/svg11.dtd">
<!-- Generated by graphviz version 5.0.0 (20220707.1540)
 -->
<!-- Title: dependencies Pages: 1 -->
<svg width="386pt" height="174pt"
 viewBox="0.00 0.00 386.00 173.80" xmlns="http://www.w3.org/2000/svg" xmlns:xlink="http://www.w3.org/1999/xlink">
<g id="graph0" class="graph" transform="scale(1 1) rotate(0) translate(4 169.8)">
<title>dependencies</title>
<polygon fill="white" stroke="transparent" points="-4,4 -4,-169.8 382,-169.8 382,4 -4,4"/>
<text text-anchor="middle" x="189" y="-8.2" font-family="sans-serif" font-size="14.00">dependencies</text>
<g id="clust1" class="cluster">
<title>cluster_MockedTestingModule</title>
<polygon fill="none" stroke="black" stroke-dasharray="1,5" points="8,-32.8 8,-157.8 370,-157.8 370,-32.8 8,-32.8"/>
</g>
<g id="clust6" class="cluster">
<title>cluster_MockedTestingModule_providers</title>
<polygon fill="none" stroke="black" points="16,-40.8 16,-92.8 362,-92.8 362,-40.8 16,-40.8"/>
</g>
<!-- EntityAbility -->
<g id="node1" class="node">
<title>EntityAbility</title>
<ellipse fill="#fdb462" stroke="black" cx="292" cy="-66.8" rx="62.01" ry="18"/>
<text text-anchor="middle" x="292" y="-62.6" font-family="Times,serif" font-size="14.00">EntityAbility</text>
</g>
<!-- MockedTestingModule -->
<g id="node3" class="node">
<title>MockedTestingModule</title>
<polygon fill="#8dd3c7" stroke="black" points="276.92,-149.8 273.92,-153.8 252.92,-153.8 249.92,-149.8 129.08,-149.8 129.08,-113.8 276.92,-113.8 276.92,-149.8"/>
<text text-anchor="middle" x="203" y="-127.6" font-family="Times,serif" font-size="14.00">MockedTestingModule</text>
</g>
<!-- EntityAbility&#45;&gt;MockedTestingModule -->
<g id="edge1" class="edge">
<title>EntityAbility&#45;&gt;MockedTestingModule</title>
<path fill="none" stroke="black" d="M253.35,-80.9C253.35,-80.9 253.35,-103.52 253.35,-103.52"/>
<polygon fill="black" stroke="black" points="249.85,-103.52 253.35,-113.52 256.85,-103.52 249.85,-103.52"/>
</g>
<!-- EntitySchemaService -->
<g id="node2" class="node">
<title>EntitySchemaService</title>
<ellipse fill="#fdb462" stroke="black" cx="118" cy="-66.8" rx="94.33" ry="18"/>
<text text-anchor="middle" x="118" y="-62.6" font-family="Times,serif" font-size="14.00">EntitySchemaService</text>
</g>
<!-- EntitySchemaService&#45;&gt;MockedTestingModule -->
<g id="edge2" class="edge">
<title>EntitySchemaService&#45;&gt;MockedTestingModule</title>
<path fill="none" stroke="black" d="M170.73,-81.88C170.73,-81.88 170.73,-103.56 170.73,-103.56"/>
<polygon fill="black" stroke="black" points="167.23,-103.56 170.73,-113.56 174.23,-103.56 167.23,-103.56"/>
</g>
</g>
</svg>
