<?xml version="1.0" encoding="UTF-8" standalone="no"?>
<!DOCTYPE svg PUBLIC "-//W3C//DTD SVG 1.1//EN"
 "http://www.w3.org/Graphics/SVG/1.1/DTD/svg11.dtd">
<!-- Generated by graphviz version 5.0.0 (20220707.1540)
 -->
<!-- Title: dependencies Pages: 1 -->
<svg width="1387pt" height="247pt"
 viewBox="0.00 0.00 1387.00 246.80" xmlns="http://www.w3.org/2000/svg" xmlns:xlink="http://www.w3.org/1999/xlink">
<g id="graph0" class="graph" transform="scale(1 1) rotate(0) translate(4 242.8)">
<title>dependencies</title>
<polygon fill="white" stroke="transparent" points="-4,4 -4,-242.8 1383,-242.8 1383,4 -4,4"/>
<text text-anchor="middle" x="689.5" y="-8.2" font-family="sans-serif" font-size="14.00">dependencies</text>
<g id="clust1" class="cluster">
<title>cluster_EntitySubrecordModule</title>
<polygon fill="none" stroke="black" stroke-dasharray="1,5" points="8,-32.8 8,-230.8 1371,-230.8 1371,-32.8 8,-32.8"/>
</g>
<g id="clust2" class="cluster">
<title>cluster_EntitySubrecordModule_declarations</title>
<polygon fill="none" stroke="black" points="833,-40.8 833,-92.8 1363,-92.8 1363,-40.8 833,-40.8"/>
</g>
<g id="clust6" class="cluster">
<title>cluster_EntitySubrecordModule_imports</title>
<polygon fill="none" stroke="black" points="16,-40.8 16,-92.8 825,-92.8 825,-40.8 16,-40.8"/>
</g>
<g id="clust7" class="cluster">
<title>cluster_EntitySubrecordModule_exports</title>
<polygon fill="none" stroke="black" points="523,-170.8 523,-222.8 715,-222.8 715,-170.8 523,-170.8"/>
</g>
<!-- EntitySubrecordComponent -->
<g id="node1" class="node">
<title>EntitySubrecordComponent</title>
<polygon fill="#ffffb3" stroke="black" points="1354.59,-84.8 1181.41,-84.8 1181.41,-48.8 1354.59,-48.8 1354.59,-84.8"/>
<text text-anchor="middle" x="1268" y="-62.6" font-family="Times,serif" font-size="14.00">EntitySubrecordComponent</text>
</g>
<!-- EntitySubrecordModule -->
<g id="node4" class="node">
<title>EntitySubrecordModule</title>
<polygon fill="#8dd3c7" stroke="black" points="694.81,-149.8 691.81,-153.8 670.81,-153.8 667.81,-149.8 543.19,-149.8 543.19,-113.8 694.81,-113.8 694.81,-149.8"/>
<text text-anchor="middle" x="619" y="-127.6" font-family="Times,serif" font-size="14.00">EntitySubrecordModule</text>
</g>
<!-- EntitySubrecordComponent&#45;&gt;EntitySubrecordModule -->
<g id="edge1" class="edge">
<title>EntitySubrecordComponent&#45;&gt;EntitySubrecordModule</title>
<path fill="none" stroke="black" d="M1268,-84.81C1268,-107.29 1268,-142.8 1268,-142.8 1268,-142.8 704.72,-142.8 704.72,-142.8"/>
<polygon fill="black" stroke="black" points="704.72,-139.3 694.72,-142.8 704.72,-146.3 704.72,-139.3"/>
</g>
<!-- ListPaginatorComponent -->
<g id="node2" class="node">
<title>ListPaginatorComponent</title>
<polygon fill="#ffffb3" stroke="black" points="1163.27,-84.8 1006.73,-84.8 1006.73,-48.8 1163.27,-48.8 1163.27,-84.8"/>
<text text-anchor="middle" x="1085" y="-62.6" font-family="Times,serif" font-size="14.00">ListPaginatorComponent</text>
</g>
<!-- ListPaginatorComponent&#45;&gt;EntitySubrecordModule -->
<g id="edge2" class="edge">
<title>ListPaginatorComponent&#45;&gt;EntitySubrecordModule</title>
<path fill="none" stroke="black" d="M1085,-84.93C1085,-105.37 1085,-135.8 1085,-135.8 1085,-135.8 704.91,-135.8 704.91,-135.8"/>
<polygon fill="black" stroke="black" points="704.91,-132.3 694.91,-135.8 704.91,-139.3 704.91,-132.3"/>
</g>
<!-- RowDetailsComponent -->
<g id="node3" class="node">
<title>RowDetailsComponent</title>
<polygon fill="#ffffb3" stroke="black" points="988.94,-84.8 841.06,-84.8 841.06,-48.8 988.94,-48.8 988.94,-84.8"/>
<text text-anchor="middle" x="915" y="-62.6" font-family="Times,serif" font-size="14.00">RowDetailsComponent</text>
</g>
<!-- RowDetailsComponent&#45;&gt;EntitySubrecordModule -->
<g id="edge3" class="edge">
<title>RowDetailsComponent&#45;&gt;EntitySubrecordModule</title>
<path fill="none" stroke="black" d="M915,-85.07C915,-103.36 915,-128.8 915,-128.8 915,-128.8 704.84,-128.8 704.84,-128.8"/>
<polygon fill="black" stroke="black" points="704.84,-125.3 694.84,-128.8 704.84,-132.3 704.84,-125.3"/>
</g>
<!-- EntitySubrecordComponent  -->
<g id="node11" class="node">
<title>EntitySubrecordComponent </title>
<polygon fill="#fb8072" stroke="black" points="707.09,-214.8 530.91,-214.8 530.91,-178.8 707.09,-178.8 707.09,-214.8"/>
<text text-anchor="middle" x="619" y="-192.6" font-family="Times,serif" font-size="14.00">EntitySubrecordComponent </text>
</g>
<!-- EntitySubrecordModule&#45;&gt;EntitySubrecordComponent  -->
<g id="edge10" class="edge">
<title>EntitySubrecordModule&#45;&gt;EntitySubrecordComponent </title>
<path fill="none" stroke="black" stroke-dasharray="5,2" d="M619,-149.91C619,-149.91 619,-168.79 619,-168.79"/>
<polygon fill="black" stroke="black" points="615.5,-168.79 619,-178.79 622.5,-168.79 615.5,-168.79"/>
</g>
<!-- AlertsModule -->
<g id="node5" class="node">
<title>AlertsModule</title>
<polygon fill="#8dd3c7" stroke="black" points="816.77,-84.8 813.77,-88.8 792.77,-88.8 789.77,-84.8 723.23,-84.8 723.23,-48.8 816.77,-48.8 816.77,-84.8"/>
<text text-anchor="middle" x="770" y="-62.6" font-family="Times,serif" font-size="14.00">AlertsModule</text>
</g>
<!-- AlertsModule&#45;&gt;EntitySubrecordModule -->
<g id="edge4" class="edge">
<title>AlertsModule&#45;&gt;EntitySubrecordModule</title>
<path fill="none" stroke="black" d="M770,-84.81C770,-100.85 770,-121.8 770,-121.8 770,-121.8 704.94,-121.8 704.94,-121.8"/>
<polygon fill="black" stroke="black" points="704.94,-118.3 694.94,-121.8 704.94,-125.3 704.94,-118.3"/>
</g>
<!-- ConfirmationDialogModule -->
<g id="node6" class="node">
<title>ConfirmationDialogModule</title>
<polygon fill="#8dd3c7" stroke="black" points="705.59,-84.8 702.59,-88.8 681.59,-88.8 678.59,-84.8 532.41,-84.8 532.41,-48.8 705.59,-48.8 705.59,-84.8"/>
<text text-anchor="middle" x="619" y="-62.6" font-family="Times,serif" font-size="14.00">ConfirmationDialogModule</text>
</g>
<!-- ConfirmationDialogModule&#45;&gt;EntitySubrecordModule -->
<g id="edge5" class="edge">
<title>ConfirmationDialogModule&#45;&gt;EntitySubrecordModule</title>
<path fill="none" stroke="black" d="M619,-84.91C619,-84.91 619,-103.79 619,-103.79"/>
<polygon fill="black" stroke="black" points="615.5,-103.79 619,-113.79 622.5,-103.79 615.5,-103.79"/>
</g>
<!-- EntityFormModule -->
<g id="node7" class="node">
<title>EntityFormModule</title>
<polygon fill="#8dd3c7" stroke="black" points="514.11,-84.8 511.11,-88.8 490.11,-88.8 487.11,-84.8 389.89,-84.8 389.89,-48.8 514.11,-48.8 514.11,-84.8"/>
<text text-anchor="middle" x="452" y="-62.6" font-family="Times,serif" font-size="14.00">EntityFormModule</text>
</g>
<!-- EntityFormModule&#45;&gt;EntitySubrecordModule -->
<g id="edge6" class="edge">
<title>EntityFormModule&#45;&gt;EntitySubrecordModule</title>
<path fill="none" stroke="black" d="M452,-84.81C452,-100.85 452,-121.8 452,-121.8 452,-121.8 533.32,-121.8 533.32,-121.8"/>
<polygon fill="black" stroke="black" points="533.32,-125.3 543.32,-121.8 533.32,-118.3 533.32,-125.3"/>
</g>
<!-- EntityModule -->
<g id="node8" class="node">
<title>EntityModule</title>
<polygon fill="#8dd3c7" stroke="black" points="371.77,-84.8 368.77,-88.8 347.77,-88.8 344.77,-84.8 278.23,-84.8 278.23,-48.8 371.77,-48.8 371.77,-84.8"/>
<text text-anchor="middle" x="325" y="-62.6" font-family="Times,serif" font-size="14.00">EntityModule</text>
</g>
<!-- EntityModule&#45;&gt;EntitySubrecordModule -->
<g id="edge7" class="edge">
<title>EntityModule&#45;&gt;EntitySubrecordModule</title>
<path fill="none" stroke="black" d="M325,-85.07C325,-103.36 325,-128.8 325,-128.8 325,-128.8 533.29,-128.8 533.29,-128.8"/>
<polygon fill="black" stroke="black" points="533.29,-132.3 543.29,-128.8 533.29,-125.3 533.29,-132.3"/>
</g>
<!-- PermissionsModule -->
<g id="node9" class="node">
<title>PermissionsModule</title>
<polygon fill="#8dd3c7" stroke="black" points="259.73,-84.8 256.73,-88.8 235.73,-88.8 232.73,-84.8 132.27,-84.8 132.27,-48.8 259.73,-48.8 259.73,-84.8"/>
<text text-anchor="middle" x="196" y="-62.6" font-family="Times,serif" font-size="14.00">PermissionsModule</text>
</g>
<!-- PermissionsModule&#45;&gt;EntitySubrecordModule -->
<g id="edge8" class="edge">
<title>PermissionsModule&#45;&gt;EntitySubrecordModule</title>
<path fill="none" stroke="black" d="M196,-84.93C196,-105.37 196,-135.8 196,-135.8 196,-135.8 532.89,-135.8 532.89,-135.8"/>
<polygon fill="black" stroke="black" points="532.89,-139.3 542.89,-135.8 532.89,-132.3 532.89,-139.3"/>
</g>
<!-- ViewModule -->
<g id="node10" class="node">
<title>ViewModule</title>
<polygon fill="#8dd3c7" stroke="black" points="113.88,-84.8 110.88,-88.8 89.88,-88.8 86.88,-84.8 24.12,-84.8 24.12,-48.8 113.88,-48.8 113.88,-84.8"/>
<text text-anchor="middle" x="69" y="-62.6" font-family="Times,serif" font-size="14.00">ViewModule</text>
</g>
<!-- ViewModule&#45;&gt;EntitySubrecordModule -->
<g id="edge9" class="edge">
<title>ViewModule&#45;&gt;EntitySubrecordModule</title>
<path fill="none" stroke="black" d="M69,-84.81C69,-107.29 69,-142.8 69,-142.8 69,-142.8 533.1,-142.8 533.1,-142.8"/>
<polygon fill="black" stroke="black" points="533.1,-146.3 543.1,-142.8 533.1,-139.3 533.1,-146.3"/>
</g>
</g>
</svg>
