<?xml version="1.0" encoding="UTF-8" standalone="no"?>
<!DOCTYPE svg PUBLIC "-//W3C//DTD SVG 1.1//EN"
 "http://www.w3.org/Graphics/SVG/1.1/DTD/svg11.dtd">
<!-- Generated by graphviz version 5.0.0 (20220707.1540)
 -->
<!-- Title: dependencies Pages: 1 -->
<svg width="1232pt" height="174pt"
 viewBox="0.00 0.00 1232.00 173.80" xmlns="http://www.w3.org/2000/svg" xmlns:xlink="http://www.w3.org/1999/xlink">
<g id="graph0" class="graph" transform="scale(1 1) rotate(0) translate(4 169.8)">
<title>dependencies</title>
<polygon fill="white" stroke="transparent" points="-4,4 -4,-169.8 1228,-169.8 1228,4 -4,4"/>
<text text-anchor="middle" x="612" y="-8.2" font-family="sans-serif" font-size="14.00">dependencies</text>
<g id="clust1" class="cluster">
<title>cluster_EntityDetailsModule</title>
<polygon fill="none" stroke="black" stroke-dasharray="1,5" points="8,-32.8 8,-157.8 1216,-157.8 1216,-32.8 8,-32.8"/>
</g>
<g id="clust5" class="cluster">
<title>cluster_EntityDetailsModule_imports</title>
<polygon fill="none" stroke="black" points="325,-40.8 325,-92.8 1208,-92.8 1208,-40.8 325,-40.8"/>
</g>
<g id="clust2" class="cluster">
<title>cluster_EntityDetailsModule_declarations</title>
<polygon fill="none" stroke="black" points="16,-40.8 16,-92.8 317,-92.8 317,-40.8 16,-40.8"/>
</g>
<!-- EntityDetailsComponent -->
<g id="node1" class="node">
<title>EntityDetailsComponent</title>
<polygon fill="#ffffb3" stroke="black" points="308.71,-84.8 153.29,-84.8 153.29,-48.8 308.71,-48.8 308.71,-84.8"/>
<text text-anchor="middle" x="231" y="-62.6" font-family="Times,serif" font-size="14.00">EntityDetailsComponent</text>
</g>
<!-- EntityDetailsModule -->
<g id="node3" class="node">
<title>EntityDetailsModule</title>
<polygon fill="#8dd3c7" stroke="black" points="698.93,-149.8 695.93,-153.8 674.93,-153.8 671.93,-149.8 565.07,-149.8 565.07,-113.8 698.93,-113.8 698.93,-149.8"/>
<text text-anchor="middle" x="632" y="-127.6" font-family="Times,serif" font-size="14.00">EntityDetailsModule</text>
</g>
<!-- EntityDetailsComponent&#45;&gt;EntityDetailsModule -->
<g id="edge1" class="edge">
<title>EntityDetailsComponent&#45;&gt;EntityDetailsModule</title>
<path fill="none" stroke="black" d="M231,-84.93C231,-105.37 231,-135.8 231,-135.8 231,-135.8 554.88,-135.8 554.88,-135.8"/>
<polygon fill="black" stroke="black" points="554.88,-139.3 564.88,-135.8 554.88,-132.3 554.88,-139.3"/>
</g>
<!-- FormComponent -->
<g id="node2" class="node">
<title>FormComponent</title>
<polygon fill="#ffffb3" stroke="black" points="135.67,-84.8 24.33,-84.8 24.33,-48.8 135.67,-48.8 135.67,-84.8"/>
<text text-anchor="middle" x="80" y="-62.6" font-family="Times,serif" font-size="14.00">FormComponent</text>
</g>
<!-- FormComponent&#45;&gt;EntityDetailsModule -->
<g id="edge2" class="edge">
<title>FormComponent&#45;&gt;EntityDetailsModule</title>
<path fill="none" stroke="black" d="M80,-84.81C80,-107.29 80,-142.8 80,-142.8 80,-142.8 555.14,-142.8 555.14,-142.8"/>
<polygon fill="black" stroke="black" points="555.14,-146.3 565.14,-142.8 555.14,-139.3 555.14,-146.3"/>
</g>
<!-- AlertsModule -->
<g id="node4" class="node">
<title>AlertsModule</title>
<polygon fill="#8dd3c7" stroke="black" points="1199.77,-84.8 1196.77,-88.8 1175.77,-88.8 1172.77,-84.8 1106.23,-84.8 1106.23,-48.8 1199.77,-48.8 1199.77,-84.8"/>
<text text-anchor="middle" x="1153" y="-62.6" font-family="Times,serif" font-size="14.00">AlertsModule</text>
</g>
<!-- AlertsModule&#45;&gt;EntityDetailsModule -->
<g id="edge3" class="edge">
<title>AlertsModule&#45;&gt;EntityDetailsModule</title>
<path fill="none" stroke="black" d="M1153,-84.81C1153,-107.29 1153,-142.8 1153,-142.8 1153,-142.8 708.78,-142.8 708.78,-142.8"/>
<polygon fill="black" stroke="black" points="708.78,-139.3 698.78,-142.8 708.78,-146.3 708.78,-139.3"/>
</g>
<!-- EntityFormModule -->
<g id="node5" class="node">
<title>EntityFormModule</title>
<polygon fill="#8dd3c7" stroke="black" points="1088.11,-84.8 1085.11,-88.8 1064.11,-88.8 1061.11,-84.8 963.89,-84.8 963.89,-48.8 1088.11,-48.8 1088.11,-84.8"/>
<text text-anchor="middle" x="1026" y="-62.6" font-family="Times,serif" font-size="14.00">EntityFormModule</text>
</g>
<!-- EntityFormModule&#45;&gt;EntityDetailsModule -->
<g id="edge4" class="edge">
<title>EntityFormModule&#45;&gt;EntityDetailsModule</title>
<path fill="none" stroke="black" d="M1026,-84.93C1026,-105.37 1026,-135.8 1026,-135.8 1026,-135.8 708.84,-135.8 708.84,-135.8"/>
<polygon fill="black" stroke="black" points="708.84,-132.3 698.84,-135.8 708.84,-139.3 708.84,-132.3"/>
</g>
<!-- EntityModule -->
<g id="node6" class="node">
<title>EntityModule</title>
<polygon fill="#8dd3c7" stroke="black" points="945.77,-84.8 942.77,-88.8 921.77,-88.8 918.77,-84.8 852.23,-84.8 852.23,-48.8 945.77,-48.8 945.77,-84.8"/>
<text text-anchor="middle" x="899" y="-62.6" font-family="Times,serif" font-size="14.00">EntityModule</text>
</g>
<!-- EntityModule&#45;&gt;EntityDetailsModule -->
<g id="edge5" class="edge">
<title>EntityModule&#45;&gt;EntityDetailsModule</title>
<path fill="none" stroke="black" d="M899,-85.07C899,-103.36 899,-128.8 899,-128.8 899,-128.8 709.03,-128.8 709.03,-128.8"/>
<polygon fill="black" stroke="black" points="709.03,-125.3 699.03,-128.8 709.03,-132.3 709.03,-125.3"/>
</g>
<!-- EntityUtilsModule -->
<g id="node7" class="node">
<title>EntityUtilsModule</title>
<polygon fill="#8dd3c7" stroke="black" points="834.5,-84.8 831.5,-88.8 810.5,-88.8 807.5,-84.8 713.5,-84.8 713.5,-48.8 834.5,-48.8 834.5,-84.8"/>
<text text-anchor="middle" x="774" y="-62.6" font-family="Times,serif" font-size="14.00">EntityUtilsModule</text>
</g>
<!-- EntityUtilsModule&#45;&gt;EntityDetailsModule -->
<g id="edge6" class="edge">
<title>EntityUtilsModule&#45;&gt;EntityDetailsModule</title>
<path fill="none" stroke="black" d="M774,-84.81C774,-100.85 774,-121.8 774,-121.8 774,-121.8 708.84,-121.8 708.84,-121.8"/>
<polygon fill="black" stroke="black" points="708.84,-118.3 698.84,-121.8 708.84,-125.3 708.84,-118.3"/>
</g>
<!-- PermissionsModule -->
<g id="node8" class="node">
<title>PermissionsModule</title>
<polygon fill="#8dd3c7" stroke="black" points="695.73,-84.8 692.73,-88.8 671.73,-88.8 668.73,-84.8 568.27,-84.8 568.27,-48.8 695.73,-48.8 695.73,-84.8"/>
<text text-anchor="middle" x="632" y="-62.6" font-family="Times,serif" font-size="14.00">PermissionsModule</text>
</g>
<!-- PermissionsModule&#45;&gt;EntityDetailsModule -->
<g id="edge7" class="edge">
<title>PermissionsModule&#45;&gt;EntityDetailsModule</title>
<path fill="none" stroke="black" d="M632,-84.91C632,-84.91 632,-103.79 632,-103.79"/>
<polygon fill="black" stroke="black" points="628.5,-103.79 632,-113.79 635.5,-103.79 628.5,-103.79"/>
</g>
<!-- TabStateModule -->
<g id="node9" class="node">
<title>TabStateModule</title>
<polygon fill="#8dd3c7" stroke="black" points="550.81,-84.8 547.81,-88.8 526.81,-88.8 523.81,-84.8 441.19,-84.8 441.19,-48.8 550.81,-48.8 550.81,-84.8"/>
<text text-anchor="middle" x="496" y="-62.6" font-family="Times,serif" font-size="14.00">TabStateModule</text>
</g>
<!-- TabStateModule&#45;&gt;EntityDetailsModule -->
<g id="edge8" class="edge">
<title>TabStateModule&#45;&gt;EntityDetailsModule</title>
<path fill="none" stroke="black" d="M496,-84.81C496,-100.85 496,-121.8 496,-121.8 496,-121.8 555.2,-121.8 555.2,-121.8"/>
<polygon fill="black" stroke="black" points="555.2,-125.3 565.2,-121.8 555.2,-118.3 555.2,-125.3"/>
</g>
<!-- ViewModule -->
<g id="node10" class="node">
<title>ViewModule</title>
<polygon fill="#8dd3c7" stroke="black" points="422.88,-84.8 419.88,-88.8 398.88,-88.8 395.88,-84.8 333.12,-84.8 333.12,-48.8 422.88,-48.8 422.88,-84.8"/>
<text text-anchor="middle" x="378" y="-62.6" font-family="Times,serif" font-size="14.00">ViewModule</text>
</g>
<!-- ViewModule&#45;&gt;EntityDetailsModule -->
<g id="edge9" class="edge">
<title>ViewModule&#45;&gt;EntityDetailsModule</title>
<path fill="none" stroke="black" d="M378,-85.07C378,-103.36 378,-128.8 378,-128.8 378,-128.8 555.26,-128.8 555.26,-128.8"/>
<polygon fill="black" stroke="black" points="555.26,-132.3 565.26,-128.8 555.26,-125.3 555.26,-132.3"/>
</g>
</g>
</svg>
