<?xml version="1.0" encoding="UTF-8" standalone="no"?>
<!DOCTYPE svg PUBLIC "-//W3C//DTD SVG 1.1//EN"
 "http://www.w3.org/Graphics/SVG/1.1/DTD/svg11.dtd">
<!-- Generated by graphviz version 5.0.0 (20220707.1540)
 -->
<!-- Title: dependencies Pages: 1 -->
<svg width="2896pt" height="247pt"
 viewBox="0.00 0.00 2896.00 246.80" xmlns="http://www.w3.org/2000/svg" xmlns:xlink="http://www.w3.org/1999/xlink">
<g id="graph0" class="graph" transform="scale(1 1) rotate(0) translate(4 242.8)">
<title>dependencies</title>
<polygon fill="white" stroke="transparent" points="-4,4 -4,-242.8 2892,-242.8 2892,4 -4,4"/>
<text text-anchor="middle" x="1444" y="-8.2" font-family="sans-serif" font-size="14.00">dependencies</text>
<g id="clust1" class="cluster">
<title>cluster_NotesModule</title>
<polygon fill="none" stroke="black" stroke-dasharray="1,5" points="8,-32.8 8,-230.8 2880,-230.8 2880,-32.8 8,-32.8"/>
</g>
<g id="clust9" class="cluster">
<title>cluster_NotesModule_imports</title>
<polygon fill="none" stroke="black" points="1266,-40.8 1266,-92.8 2872,-92.8 2872,-40.8 1266,-40.8"/>
</g>
<g id="clust2" class="cluster">
<title>cluster_NotesModule_declarations</title>
<polygon fill="none" stroke="black" points="16,-40.8 16,-92.8 1258,-92.8 1258,-40.8 16,-40.8"/>
</g>
<g id="clust10" class="cluster">
<title>cluster_NotesModule_exports</title>
<polygon fill="none" stroke="black" points="1507,-170.8 1507,-222.8 1675,-222.8 1675,-170.8 1507,-170.8"/>
</g>
<!-- ChildMeetingNoteAttendanceComponent -->
<g id="node1" class="node">
<title>ChildMeetingNoteAttendanceComponent</title>
<polygon fill="#ffffb3" stroke="black" points="1250.06,-84.8 999.94,-84.8 999.94,-48.8 1250.06,-48.8 1250.06,-84.8"/>
<text text-anchor="middle" x="1125" y="-62.6" font-family="Times,serif" font-size="14.00">ChildMeetingNoteAttendanceComponent</text>
</g>
<!-- NotesModule -->
<g id="node7" class="node">
<title>NotesModule</title>
<polygon fill="#8dd3c7" stroke="black" points="1637.21,-149.8 1634.21,-153.8 1613.21,-153.8 1610.21,-149.8 1544.79,-149.8 1544.79,-113.8 1637.21,-113.8 1637.21,-149.8"/>
<text text-anchor="middle" x="1591" y="-127.6" font-family="Times,serif" font-size="14.00">NotesModule</text>
</g>
<!-- ChildMeetingNoteAttendanceComponent&#45;&gt;NotesModule -->
<g id="edge1" class="edge">
<title>ChildMeetingNoteAttendanceComponent&#45;&gt;NotesModule</title>
<path fill="none" stroke="black" d="M1125,-84.82C1125,-102.17 1125,-125.8 1125,-125.8 1125,-125.8 1534.61,-125.8 1534.61,-125.8"/>
<polygon fill="black" stroke="black" points="1534.61,-129.3 1544.61,-125.8 1534.61,-122.3 1534.61,-129.3"/>
</g>
<!-- NoteAttendanceCountBlockComponent -->
<g id="node2" class="node">
<title>NoteAttendanceCountBlockComponent</title>
<polygon fill="#ffffb3" stroke="black" points="981.96,-84.8 742.04,-84.8 742.04,-48.8 981.96,-48.8 981.96,-84.8"/>
<text text-anchor="middle" x="862" y="-62.6" font-family="Times,serif" font-size="14.00">NoteAttendanceCountBlockComponent</text>
</g>
<!-- NoteAttendanceCountBlockComponent&#45;&gt;NotesModule -->
<g id="edge2" class="edge">
<title>NoteAttendanceCountBlockComponent&#45;&gt;NotesModule</title>
<path fill="none" stroke="black" d="M862,-85.02C862,-103.63 862,-129.8 862,-129.8 862,-129.8 1534.84,-129.8 1534.84,-129.8"/>
<polygon fill="black" stroke="black" points="1534.84,-133.3 1544.84,-129.8 1534.84,-126.3 1534.84,-133.3"/>
</g>
<!-- NoteDetailsComponent -->
<g id="node3" class="node">
<title>NoteDetailsComponent</title>
<polygon fill="#ffffb3" stroke="black" points="724.2,-84.8 575.8,-84.8 575.8,-48.8 724.2,-48.8 724.2,-84.8"/>
<text text-anchor="middle" x="650" y="-62.6" font-family="Times,serif" font-size="14.00">NoteDetailsComponent</text>
</g>
<!-- NoteDetailsComponent&#45;&gt;NotesModule -->
<g id="edge3" class="edge">
<title>NoteDetailsComponent&#45;&gt;NotesModule</title>
<path fill="none" stroke="black" d="M650,-85.11C650,-104.95 650,-133.8 650,-133.8 650,-133.8 1534.66,-133.8 1534.66,-133.8"/>
<polygon fill="black" stroke="black" points="1534.66,-137.3 1544.66,-133.8 1534.66,-130.3 1534.66,-137.3"/>
</g>
<!-- NotesDashboardComponent -->
<g id="node4" class="node">
<title>NotesDashboardComponent</title>
<polygon fill="#ffffb3" stroke="black" points="558.14,-84.8 383.86,-84.8 383.86,-48.8 558.14,-48.8 558.14,-84.8"/>
<text text-anchor="middle" x="471" y="-62.6" font-family="Times,serif" font-size="14.00">NotesDashboardComponent</text>
</g>
<!-- NotesDashboardComponent&#45;&gt;NotesModule -->
<g id="edge4" class="edge">
<title>NotesDashboardComponent&#45;&gt;NotesModule</title>
<path fill="none" stroke="black" d="M471,-85.08C471,-106.12 471,-137.8 471,-137.8 471,-137.8 1534.65,-137.8 1534.65,-137.8"/>
<polygon fill="black" stroke="black" points="1534.65,-141.3 1544.65,-137.8 1534.65,-134.3 1534.65,-141.3"/>
</g>
<!-- NotesManagerComponent -->
<g id="node5" class="node">
<title>NotesManagerComponent</title>
<polygon fill="#ffffb3" stroke="black" points="365.75,-84.8 202.25,-84.8 202.25,-48.8 365.75,-48.8 365.75,-84.8"/>
<text text-anchor="middle" x="284" y="-62.6" font-family="Times,serif" font-size="14.00">NotesManagerComponent</text>
</g>
<!-- NotesManagerComponent&#45;&gt;NotesModule -->
<g id="edge5" class="edge">
<title>NotesManagerComponent&#45;&gt;NotesModule</title>
<path fill="none" stroke="black" d="M284,-84.96C284,-107.15 284,-141.8 284,-141.8 284,-141.8 1534.87,-141.8 1534.87,-141.8"/>
<polygon fill="black" stroke="black" points="1534.87,-145.3 1544.87,-141.8 1534.87,-138.3 1534.87,-145.3"/>
</g>
<!-- NotesOfChildComponent -->
<g id="node6" class="node">
<title>NotesOfChildComponent</title>
<polygon fill="#ffffb3" stroke="black" points="183.88,-84.8 24.12,-84.8 24.12,-48.8 183.88,-48.8 183.88,-84.8"/>
<text text-anchor="middle" x="104" y="-62.6" font-family="Times,serif" font-size="14.00">NotesOfChildComponent</text>
</g>
<!-- NotesOfChildComponent&#45;&gt;NotesModule -->
<g id="edge6" class="edge">
<title>NotesOfChildComponent&#45;&gt;NotesModule</title>
<path fill="none" stroke="black" d="M104,-85.12C104,-108.46 104,-145.8 104,-145.8 104,-145.8 1534.87,-145.8 1534.87,-145.8"/>
<polygon fill="black" stroke="black" points="1534.87,-149.3 1544.87,-145.8 1534.87,-142.3 1534.87,-149.3"/>
</g>
<!-- NoteDetailsComponent  -->
<g id="node19" class="node">
<title>NoteDetailsComponent </title>
<polygon fill="#fb8072" stroke="black" points="1666.7,-214.8 1515.3,-214.8 1515.3,-178.8 1666.7,-178.8 1666.7,-214.8"/>
<text text-anchor="middle" x="1591" y="-192.6" font-family="Times,serif" font-size="14.00">NoteDetailsComponent </text>
</g>
<!-- NotesModule&#45;&gt;NoteDetailsComponent  -->
<g id="edge18" class="edge">
<title>NotesModule&#45;&gt;NoteDetailsComponent </title>
<path fill="none" stroke="black" stroke-dasharray="5,2" d="M1591,-149.91C1591,-149.91 1591,-168.79 1591,-168.79"/>
<polygon fill="black" stroke="black" points="1587.5,-168.79 1591,-178.79 1594.5,-168.79 1587.5,-168.79"/>
</g>
<!-- AttendanceModule -->
<g id="node8" class="node">
<title>AttendanceModule</title>
<polygon fill="#8dd3c7" stroke="black" points="2863.8,-84.8 2860.8,-88.8 2839.8,-88.8 2836.8,-84.8 2740.2,-84.8 2740.2,-48.8 2863.8,-48.8 2863.8,-84.8"/>
<text text-anchor="middle" x="2802" y="-62.6" font-family="Times,serif" font-size="14.00">AttendanceModule</text>
</g>
<!-- AttendanceModule&#45;&gt;NotesModule -->
<g id="edge7" class="edge">
<title>AttendanceModule&#45;&gt;NotesModule</title>
<path fill="none" stroke="black" d="M2802,-85.12C2802,-108.46 2802,-145.8 2802,-145.8 2802,-145.8 1647.36,-145.8 1647.36,-145.8"/>
<polygon fill="black" stroke="black" points="1647.36,-142.3 1637.36,-145.8 1647.36,-149.3 1647.36,-142.3"/>
</g>
<!-- ChildrenModule -->
<g id="node9" class="node">
<title>ChildrenModule</title>
<polygon fill="#8dd3c7" stroke="black" points="2722.05,-84.8 2719.05,-88.8 2698.05,-88.8 2695.05,-84.8 2613.95,-84.8 2613.95,-48.8 2722.05,-48.8 2722.05,-84.8"/>
<text text-anchor="middle" x="2668" y="-62.6" font-family="Times,serif" font-size="14.00">ChildrenModule</text>
</g>
<!-- ChildrenModule&#45;&gt;NotesModule -->
<g id="edge8" class="edge">
<title>ChildrenModule&#45;&gt;NotesModule</title>
<path fill="none" stroke="black" d="M2668,-84.96C2668,-107.15 2668,-141.8 2668,-141.8 2668,-141.8 1647.28,-141.8 1647.28,-141.8"/>
<polygon fill="black" stroke="black" points="1647.28,-138.3 1637.28,-141.8 1647.28,-145.3 1647.28,-138.3"/>
</g>
<!-- ConfigurableEnumModule -->
<g id="node10" class="node">
<title>ConfigurableEnumModule</title>
<polygon fill="#8dd3c7" stroke="black" points="2595.36,-84.8 2592.36,-88.8 2571.36,-88.8 2568.36,-84.8 2428.64,-84.8 2428.64,-48.8 2595.36,-48.8 2595.36,-84.8"/>
<text text-anchor="middle" x="2512" y="-62.6" font-family="Times,serif" font-size="14.00">ConfigurableEnumModule</text>
</g>
<!-- ConfigurableEnumModule&#45;&gt;NotesModule -->
<g id="edge9" class="edge">
<title>ConfigurableEnumModule&#45;&gt;NotesModule</title>
<path fill="none" stroke="black" d="M2512,-85.08C2512,-106.12 2512,-137.8 2512,-137.8 2512,-137.8 1647.3,-137.8 1647.3,-137.8"/>
<polygon fill="black" stroke="black" points="1647.3,-134.3 1637.3,-137.8 1647.3,-141.3 1647.3,-134.3"/>
</g>
<!-- ConfirmationDialogModule -->
<g id="node11" class="node">
<title>ConfirmationDialogModule</title>
<polygon fill="#8dd3c7" stroke="black" points="2410.59,-84.8 2407.59,-88.8 2386.59,-88.8 2383.59,-84.8 2237.41,-84.8 2237.41,-48.8 2410.59,-48.8 2410.59,-84.8"/>
<text text-anchor="middle" x="2324" y="-62.6" font-family="Times,serif" font-size="14.00">ConfirmationDialogModule</text>
</g>
<!-- ConfirmationDialogModule&#45;&gt;NotesModule -->
<g id="edge10" class="edge">
<title>ConfirmationDialogModule&#45;&gt;NotesModule</title>
<path fill="none" stroke="black" d="M2324,-85.11C2324,-104.95 2324,-133.8 2324,-133.8 2324,-133.8 1647.13,-133.8 1647.13,-133.8"/>
<polygon fill="black" stroke="black" points="1647.13,-130.3 1637.13,-133.8 1647.13,-137.3 1647.13,-130.3"/>
</g>
<!-- DashboardModule -->
<g id="node12" class="node">
<title>DashboardModule</title>
<polygon fill="#8dd3c7" stroke="black" points="2219.2,-84.8 2216.2,-88.8 2195.2,-88.8 2192.2,-84.8 2098.8,-84.8 2098.8,-48.8 2219.2,-48.8 2219.2,-84.8"/>
<text text-anchor="middle" x="2159" y="-62.6" font-family="Times,serif" font-size="14.00">DashboardModule</text>
</g>
<!-- DashboardModule&#45;&gt;NotesModule -->
<g id="edge11" class="edge">
<title>DashboardModule&#45;&gt;NotesModule</title>
<path fill="none" stroke="black" d="M2159,-85.02C2159,-103.63 2159,-129.8 2159,-129.8 2159,-129.8 1647.48,-129.8 1647.48,-129.8"/>
<polygon fill="black" stroke="black" points="1647.48,-126.3 1637.48,-129.8 1647.48,-133.3 1647.48,-126.3"/>
</g>
<!-- EntityListModule -->
<g id="node13" class="node">
<title>EntityListModule</title>
<polygon fill="#8dd3c7" stroke="black" points="2080.55,-84.8 2077.55,-88.8 2056.55,-88.8 2053.55,-84.8 1965.45,-84.8 1965.45,-48.8 2080.55,-48.8 2080.55,-84.8"/>
<text text-anchor="middle" x="2023" y="-62.6" font-family="Times,serif" font-size="14.00">EntityListModule</text>
</g>
<!-- EntityListModule&#45;&gt;NotesModule -->
<g id="edge12" class="edge">
<title>EntityListModule&#45;&gt;NotesModule</title>
<path fill="none" stroke="black" d="M2023,-84.82C2023,-102.17 2023,-125.8 2023,-125.8 2023,-125.8 1647.23,-125.8 1647.23,-125.8"/>
<polygon fill="black" stroke="black" points="1647.23,-122.3 1637.23,-125.8 1647.23,-129.3 1647.23,-122.3"/>
</g>
<!-- EntitySubrecordModule -->
<g id="node14" class="node">
<title>EntitySubrecordModule</title>
<polygon fill="#8dd3c7" stroke="black" points="1947.81,-84.8 1944.81,-88.8 1923.81,-88.8 1920.81,-84.8 1796.19,-84.8 1796.19,-48.8 1947.81,-48.8 1947.81,-84.8"/>
<text text-anchor="middle" x="1872" y="-62.6" font-family="Times,serif" font-size="14.00">EntitySubrecordModule</text>
</g>
<!-- EntitySubrecordModule&#45;&gt;NotesModule -->
<g id="edge13" class="edge">
<title>EntitySubrecordModule&#45;&gt;NotesModule</title>
<path fill="none" stroke="black" d="M1872,-84.81C1872,-100.85 1872,-121.8 1872,-121.8 1872,-121.8 1647.4,-121.8 1647.4,-121.8"/>
<polygon fill="black" stroke="black" points="1647.4,-118.3 1637.4,-121.8 1647.4,-125.3 1647.4,-118.3"/>
</g>
<!-- EntityUtilsModule -->
<g id="node15" class="node">
<title>EntityUtilsModule</title>
<polygon fill="#8dd3c7" stroke="black" points="1778.5,-84.8 1775.5,-88.8 1754.5,-88.8 1751.5,-84.8 1657.5,-84.8 1657.5,-48.8 1778.5,-48.8 1778.5,-84.8"/>
<text text-anchor="middle" x="1718" y="-62.6" font-family="Times,serif" font-size="14.00">EntityUtilsModule</text>
</g>
<!-- EntityUtilsModule&#45;&gt;NotesModule -->
<g id="edge14" class="edge">
<title>EntityUtilsModule&#45;&gt;NotesModule</title>
<path fill="none" stroke="black" d="M1662.18,-84.92C1662.18,-99.58 1662.18,-117.8 1662.18,-117.8 1662.18,-117.8 1647.28,-117.8 1647.28,-117.8"/>
<polygon fill="black" stroke="black" points="1647.28,-114.3 1637.28,-117.8 1647.28,-121.3 1647.28,-114.3"/>
</g>
<!-- ExportModule -->
<g id="node16" class="node">
<title>ExportModule</title>
<polygon fill="#8dd3c7" stroke="black" points="1639.66,-84.8 1636.66,-88.8 1615.66,-88.8 1612.66,-84.8 1542.34,-84.8 1542.34,-48.8 1639.66,-48.8 1639.66,-84.8"/>
<text text-anchor="middle" x="1591" y="-62.6" font-family="Times,serif" font-size="14.00">ExportModule</text>
</g>
<!-- ExportModule&#45;&gt;NotesModule -->
<g id="edge15" class="edge">
<title>ExportModule&#45;&gt;NotesModule</title>
<path fill="none" stroke="black" d="M1591,-84.91C1591,-84.91 1591,-103.79 1591,-103.79"/>
<polygon fill="black" stroke="black" points="1587.5,-103.79 1591,-113.79 1594.5,-103.79 1587.5,-103.79"/>
</g>
<!-- FormDialogModule -->
<g id="node17" class="node">
<title>FormDialogModule</title>
<polygon fill="#8dd3c7" stroke="black" points="1523.99,-84.8 1520.99,-88.8 1499.99,-88.8 1496.99,-84.8 1396.01,-84.8 1396.01,-48.8 1523.99,-48.8 1523.99,-84.8"/>
<text text-anchor="middle" x="1460" y="-62.6" font-family="Times,serif" font-size="14.00">FormDialogModule</text>
</g>
<!-- FormDialogModule&#45;&gt;NotesModule -->
<g id="edge16" class="edge">
<title>FormDialogModule&#45;&gt;NotesModule</title>
<path fill="none" stroke="black" d="M1519.57,-84.92C1519.57,-99.58 1519.57,-117.8 1519.57,-117.8 1519.57,-117.8 1534.55,-117.8 1534.55,-117.8"/>
<polygon fill="black" stroke="black" points="1534.55,-121.3 1544.55,-117.8 1534.55,-114.3 1534.55,-121.3"/>
</g>
<!-- SchoolsModule -->
<g id="node18" class="node">
<title>SchoolsModule</title>
<polygon fill="#8dd3c7" stroke="black" points="1377.89,-84.8 1374.89,-88.8 1353.89,-88.8 1350.89,-84.8 1274.11,-84.8 1274.11,-48.8 1377.89,-48.8 1377.89,-84.8"/>
<text text-anchor="middle" x="1326" y="-62.6" font-family="Times,serif" font-size="14.00">SchoolsModule</text>
</g>
<!-- SchoolsModule&#45;&gt;NotesModule -->
<g id="edge17" class="edge">
<title>SchoolsModule&#45;&gt;NotesModule</title>
<path fill="none" stroke="black" d="M1326,-84.81C1326,-100.85 1326,-121.8 1326,-121.8 1326,-121.8 1534.84,-121.8 1534.84,-121.8"/>
<polygon fill="black" stroke="black" points="1534.84,-125.3 1544.84,-121.8 1534.84,-118.3 1534.84,-125.3"/>
</g>
</g>
</svg>
