<?xml version="1.0" encoding="UTF-8" standalone="no"?>
<!DOCTYPE svg PUBLIC "-//W3C//DTD SVG 1.1//EN"
 "http://www.w3.org/Graphics/SVG/1.1/DTD/svg11.dtd">
<!-- Generated by graphviz version 5.0.0 (20220707.1540)
 -->
<!-- Title: dependencies Pages: 1 -->
<svg width="4615pt" height="247pt"
 viewBox="0.00 0.00 4615.00 246.80" xmlns="http://www.w3.org/2000/svg" xmlns:xlink="http://www.w3.org/1999/xlink">
<g id="graph0" class="graph" transform="scale(1 1) rotate(0) translate(4 242.8)">
<title>dependencies</title>
<polygon fill="white" stroke="transparent" points="-4,4 -4,-242.8 4611,-242.8 4611,4 -4,4"/>
<text text-anchor="middle" x="2303.5" y="-8.2" font-family="sans-serif" font-size="14.00">dependencies</text>
<g id="clust1" class="cluster">
<title>cluster_AppModule</title>
<polygon fill="none" stroke="black" stroke-dasharray="1,5" points="8,-32.8 8,-230.8 4599,-230.8 4599,-32.8 8,-32.8"/>
</g>
<g id="clust4" class="cluster">
<title>cluster_AppModule_imports</title>
<polygon fill="none" stroke="black" points="324,-40.8 324,-92.8 4591,-92.8 4591,-40.8 324,-40.8"/>
</g>
<g id="clust2" class="cluster">
<title>cluster_AppModule_declarations</title>
<polygon fill="none" stroke="black" points="194,-40.8 194,-92.8 316,-92.8 316,-40.8 194,-40.8"/>
</g>
<g id="clust6" class="cluster">
<title>cluster_AppModule_bootstrap</title>
<polygon fill="none" stroke="black" points="2201,-170.8 2201,-222.8 2325,-222.8 2325,-170.8 2201,-170.8"/>
</g>
<g id="clust7" class="cluster">
<title>cluster_AppModule_providers</title>
<polygon fill="none" stroke="black" points="16,-40.8 16,-92.8 186,-92.8 186,-40.8 16,-40.8"/>
</g>
<!-- AppComponent -->
<g id="node1" class="node">
<title>AppComponent</title>
<polygon fill="#ffffb3" stroke="black" points="307.94,-84.8 202.06,-84.8 202.06,-48.8 307.94,-48.8 307.94,-84.8"/>
<text text-anchor="middle" x="255" y="-62.6" font-family="Times,serif" font-size="14.00">AppComponent</text>
</g>
<!-- AppModule -->
<g id="node2" class="node">
<title>AppModule</title>
<polygon fill="#8dd3c7" stroke="black" points="2304.66,-149.8 2301.66,-153.8 2280.66,-153.8 2277.66,-149.8 2221.34,-149.8 2221.34,-113.8 2304.66,-113.8 2304.66,-149.8"/>
<text text-anchor="middle" x="2263" y="-127.6" font-family="Times,serif" font-size="14.00">AppModule</text>
</g>
<!-- AppComponent&#45;&gt;AppModule -->
<g id="edge1" class="edge">
<title>AppComponent&#45;&gt;AppModule</title>
<path fill="none" stroke="black" d="M255,-85.12C255,-108.46 255,-145.8 255,-145.8 255,-145.8 2211.06,-145.8 2211.06,-145.8"/>
<polygon fill="black" stroke="black" points="2211.06,-149.3 2221.06,-145.8 2211.06,-142.3 2211.06,-149.3"/>
</g>
<!-- AppComponent  -->
<g id="node33" class="node">
<title>AppComponent </title>
<polygon fill="#80b1d3" stroke="black" points="2317.44,-214.8 2208.56,-214.8 2208.56,-178.8 2317.44,-178.8 2317.44,-214.8"/>
<text text-anchor="middle" x="2263" y="-192.6" font-family="Times,serif" font-size="14.00">AppComponent </text>
</g>
<!-- AppModule&#45;&gt;AppComponent  -->
<g id="edge32" class="edge">
<title>AppModule&#45;&gt;AppComponent </title>
<path fill="none" stroke="black" stroke-dasharray="1,5" d="M2263,-149.91C2263,-149.91 2263,-168.79 2263,-168.79"/>
<polygon fill="black" stroke="black" points="2259.5,-168.79 2263,-178.79 2266.5,-168.79 2259.5,-168.79"/>
</g>
<!-- AdminModule -->
<g id="node3" class="node">
<title>AdminModule</title>
<polygon fill="#8dd3c7" stroke="black" points="4583.44,-84.8 4580.44,-88.8 4559.44,-88.8 4556.44,-84.8 4484.56,-84.8 4484.56,-48.8 4583.44,-48.8 4583.44,-84.8"/>
<text text-anchor="middle" x="4534" y="-62.6" font-family="Times,serif" font-size="14.00">AdminModule</text>
</g>
<!-- AdminModule&#45;&gt;AppModule -->
<g id="edge2" class="edge">
<title>AdminModule&#45;&gt;AppModule</title>
<path fill="none" stroke="black" d="M4534,-85.18C4534,-109.08 4534,-147.8 4534,-147.8 4534,-147.8 2314.85,-147.8 2314.85,-147.8"/>
<polygon fill="black" stroke="black" points="2314.85,-144.3 2304.85,-147.8 2314.85,-151.3 2314.85,-144.3"/>
</g>
<!-- AlertsModule -->
<g id="node4" class="node">
<title>AlertsModule</title>
<polygon fill="#8dd3c7" stroke="black" points="4466.77,-84.8 4463.77,-88.8 4442.77,-88.8 4439.77,-84.8 4373.23,-84.8 4373.23,-48.8 4466.77,-48.8 4466.77,-84.8"/>
<text text-anchor="middle" x="4420" y="-62.6" font-family="Times,serif" font-size="14.00">AlertsModule</text>
</g>
<!-- AlertsModule&#45;&gt;AppModule -->
<g id="edge3" class="edge">
<title>AlertsModule&#45;&gt;AppModule</title>
<path fill="none" stroke="black" d="M4420,-85.12C4420,-108.46 4420,-145.8 4420,-145.8 4420,-145.8 2315.12,-145.8 2315.12,-145.8"/>
<polygon fill="black" stroke="black" points="2315.12,-142.3 2305.12,-145.8 2315.12,-149.3 2315.12,-142.3"/>
</g>
<!-- AttendanceModule -->
<g id="node5" class="node">
<title>AttendanceModule</title>
<polygon fill="#8dd3c7" stroke="black" points="4354.8,-84.8 4351.8,-88.8 4330.8,-88.8 4327.8,-84.8 4231.2,-84.8 4231.2,-48.8 4354.8,-48.8 4354.8,-84.8"/>
<text text-anchor="middle" x="4293" y="-62.6" font-family="Times,serif" font-size="14.00">AttendanceModule</text>
</g>
<!-- AttendanceModule&#45;&gt;AppModule -->
<g id="edge4" class="edge">
<title>AttendanceModule&#45;&gt;AppModule</title>
<path fill="none" stroke="black" d="M4293,-85.05C4293,-107.82 4293,-143.8 4293,-143.8 4293,-143.8 2314.93,-143.8 2314.93,-143.8"/>
<polygon fill="black" stroke="black" points="2314.93,-140.3 2304.93,-143.8 2314.93,-147.3 2314.93,-140.3"/>
</g>
<!-- ChildrenModule -->
<g id="node6" class="node">
<title>ChildrenModule</title>
<polygon fill="#8dd3c7" stroke="black" points="4213.05,-84.8 4210.05,-88.8 4189.05,-88.8 4186.05,-84.8 4104.95,-84.8 4104.95,-48.8 4213.05,-48.8 4213.05,-84.8"/>
<text text-anchor="middle" x="4159" y="-62.6" font-family="Times,serif" font-size="14.00">ChildrenModule</text>
</g>
<!-- ChildrenModule&#45;&gt;AppModule -->
<g id="edge5" class="edge">
<title>ChildrenModule&#45;&gt;AppModule</title>
<path fill="none" stroke="black" d="M4159,-85.09C4159,-107.01 4159,-140.8 4159,-140.8 4159,-140.8 2314.81,-140.8 2314.81,-140.8"/>
<polygon fill="black" stroke="black" points="2314.81,-137.3 2304.81,-140.8 2314.81,-144.3 2314.81,-137.3"/>
</g>
<!-- ConfigModule -->
<g id="node7" class="node">
<title>ConfigModule</title>
<polygon fill="#8dd3c7" stroke="black" points="4087.44,-84.8 4084.44,-88.8 4063.44,-88.8 4060.44,-84.8 3988.56,-84.8 3988.56,-48.8 4087.44,-48.8 4087.44,-84.8"/>
<text text-anchor="middle" x="4038" y="-62.6" font-family="Times,serif" font-size="14.00">ConfigModule</text>
</g>
<!-- ConfigModule&#45;&gt;AppModule -->
<g id="edge6" class="edge">
<title>ConfigModule&#45;&gt;AppModule</title>
<path fill="none" stroke="black" d="M4038,-84.97C4038,-106.3 4038,-138.8 4038,-138.8 4038,-138.8 2314.69,-138.8 2314.69,-138.8"/>
<polygon fill="black" stroke="black" points="2314.69,-135.3 2304.69,-138.8 2314.69,-142.3 2314.69,-135.3"/>
</g>
<!-- ConfigurableEnumModule -->
<g id="node8" class="node">
<title>ConfigurableEnumModule</title>
<polygon fill="#8dd3c7" stroke="black" points="3970.36,-84.8 3967.36,-88.8 3946.36,-88.8 3943.36,-84.8 3803.64,-84.8 3803.64,-48.8 3970.36,-48.8 3970.36,-84.8"/>
<text text-anchor="middle" x="3887" y="-62.6" font-family="Times,serif" font-size="14.00">ConfigurableEnumModule</text>
</g>
<!-- ConfigurableEnumModule&#45;&gt;AppModule -->
<g id="edge7" class="edge">
<title>ConfigurableEnumModule&#45;&gt;AppModule</title>
<path fill="none" stroke="black" d="M3887,-84.83C3887,-105.57 3887,-136.8 3887,-136.8 3887,-136.8 2314.78,-136.8 2314.78,-136.8"/>
<polygon fill="black" stroke="black" points="2314.78,-133.3 2304.78,-136.8 2314.78,-140.3 2314.78,-133.3"/>
</g>
<!-- ConfirmationDialogModule -->
<g id="node9" class="node">
<title>ConfirmationDialogModule</title>
<polygon fill="#8dd3c7" stroke="black" points="3785.59,-84.8 3782.59,-88.8 3761.59,-88.8 3758.59,-84.8 3612.41,-84.8 3612.41,-48.8 3785.59,-48.8 3785.59,-84.8"/>
<text text-anchor="middle" x="3699" y="-62.6" font-family="Times,serif" font-size="14.00">ConfirmationDialogModule</text>
</g>
<!-- ConfirmationDialogModule&#45;&gt;AppModule -->
<g id="edge8" class="edge">
<title>ConfirmationDialogModule&#45;&gt;AppModule</title>
<path fill="none" stroke="black" d="M3699,-85.02C3699,-105.17 3699,-134.8 3699,-134.8 3699,-134.8 2314.81,-134.8 2314.81,-134.8"/>
<polygon fill="black" stroke="black" points="2314.81,-131.3 2304.81,-134.8 2314.81,-138.3 2314.81,-131.3"/>
</g>
<!-- DashboardModule -->
<g id="node10" class="node">
<title>DashboardModule</title>
<polygon fill="#8dd3c7" stroke="black" points="3594.2,-84.8 3591.2,-88.8 3570.2,-88.8 3567.2,-84.8 3473.8,-84.8 3473.8,-48.8 3594.2,-48.8 3594.2,-84.8"/>
<text text-anchor="middle" x="3534" y="-62.6" font-family="Times,serif" font-size="14.00">DashboardModule</text>
</g>
<!-- DashboardModule&#45;&gt;AppModule -->
<g id="edge9" class="edge">
<title>DashboardModule&#45;&gt;AppModule</title>
<path fill="none" stroke="black" d="M3534,-84.91C3534,-104.14 3534,-131.8 3534,-131.8 3534,-131.8 2314.93,-131.8 2314.93,-131.8"/>
<polygon fill="black" stroke="black" points="2314.93,-128.3 2304.93,-131.8 2314.93,-135.3 2314.93,-128.3"/>
</g>
<!-- DashboardShortcutWidgetModule -->
<g id="node11" class="node">
<title>DashboardShortcutWidgetModule</title>
<polygon fill="#8dd3c7" stroke="black" points="3455.35,-84.8 3452.35,-88.8 3431.35,-88.8 3428.35,-84.8 3246.65,-84.8 3246.65,-48.8 3455.35,-48.8 3455.35,-84.8"/>
<text text-anchor="middle" x="3351" y="-62.6" font-family="Times,serif" font-size="14.00">DashboardShortcutWidgetModule</text>
</g>
<!-- DashboardShortcutWidgetModule&#45;&gt;AppModule -->
<g id="edge10" class="edge">
<title>DashboardShortcutWidgetModule&#45;&gt;AppModule</title>
<path fill="none" stroke="black" d="M3351,-85.02C3351,-103.63 3351,-129.8 3351,-129.8 3351,-129.8 2314.98,-129.8 2314.98,-129.8"/>
<polygon fill="black" stroke="black" points="2314.98,-126.3 2304.98,-129.8 2314.98,-133.3 2314.98,-126.3"/>
</g>
<!-- DatabaseModule -->
<g id="node12" class="node">
<title>DatabaseModule</title>
<polygon fill="#8dd3c7" stroke="black" points="3228.36,-84.8 3225.36,-88.8 3204.36,-88.8 3201.36,-84.8 3117.64,-84.8 3117.64,-48.8 3228.36,-48.8 3228.36,-84.8"/>
<text text-anchor="middle" x="3173" y="-62.6" font-family="Times,serif" font-size="14.00">DatabaseModule</text>
</g>
<!-- DatabaseModule&#45;&gt;AppModule -->
<g id="edge11" class="edge">
<title>DatabaseModule&#45;&gt;AppModule</title>
<path fill="none" stroke="black" d="M3173,-85.1C3173,-103.07 3173,-127.8 3173,-127.8 3173,-127.8 2314.77,-127.8 2314.77,-127.8"/>
<polygon fill="black" stroke="black" points="2314.77,-124.3 2304.77,-127.8 2314.77,-131.3 2314.77,-124.3"/>
</g>
<!-- DemoDataModule -->
<g id="node13" class="node">
<title>DemoDataModule</title>
<polygon fill="#8dd3c7" stroke="black" points="3099.19,-84.8 3096.19,-88.8 3075.19,-88.8 3072.19,-84.8 2978.81,-84.8 2978.81,-48.8 3099.19,-48.8 3099.19,-84.8"/>
<text text-anchor="middle" x="3039" y="-62.6" font-family="Times,serif" font-size="14.00">DemoDataModule</text>
</g>
<!-- DemoDataModule&#45;&gt;AppModule -->
<g id="edge12" class="edge">
<title>DemoDataModule&#45;&gt;AppModule</title>
<path fill="none" stroke="black" d="M3039,-84.82C3039,-102.17 3039,-125.8 3039,-125.8 3039,-125.8 2314.72,-125.8 2314.72,-125.8"/>
<polygon fill="black" stroke="black" points="2314.72,-122.3 2304.72,-125.8 2314.72,-129.3 2314.72,-122.3"/>
</g>
<!-- EntityDetailsModule -->
<g id="node14" class="node">
<title>EntityDetailsModule</title>
<polygon fill="#8dd3c7" stroke="black" points="2960.93,-84.8 2957.93,-88.8 2936.93,-88.8 2933.93,-84.8 2827.07,-84.8 2827.07,-48.8 2960.93,-48.8 2960.93,-84.8"/>
<text text-anchor="middle" x="2894" y="-62.6" font-family="Times,serif" font-size="14.00">EntityDetailsModule</text>
</g>
<!-- EntityDetailsModule&#45;&gt;AppModule -->
<g id="edge13" class="edge">
<title>EntityDetailsModule&#45;&gt;AppModule</title>
<path fill="none" stroke="black" d="M2894,-84.83C2894,-101.2 2894,-122.8 2894,-122.8 2894,-122.8 2314.89,-122.8 2314.89,-122.8"/>
<polygon fill="black" stroke="black" points="2314.89,-119.3 2304.89,-122.8 2314.89,-126.3 2314.89,-119.3"/>
</g>
<!-- EntityListModule -->
<g id="node15" class="node">
<title>EntityListModule</title>
<polygon fill="#8dd3c7" stroke="black" points="2809.55,-84.8 2806.55,-88.8 2785.55,-88.8 2782.55,-84.8 2694.45,-84.8 2694.45,-48.8 2809.55,-48.8 2809.55,-84.8"/>
<text text-anchor="middle" x="2752" y="-62.6" font-family="Times,serif" font-size="14.00">EntityListModule</text>
</g>
<!-- EntityListModule&#45;&gt;AppModule -->
<g id="edge14" class="edge">
<title>EntityListModule&#45;&gt;AppModule</title>
<path fill="none" stroke="black" d="M2752,-85.08C2752,-100.75 2752,-120.8 2752,-120.8 2752,-120.8 2314.69,-120.8 2314.69,-120.8"/>
<polygon fill="black" stroke="black" points="2314.69,-117.3 2304.69,-120.8 2314.69,-124.3 2314.69,-117.3"/>
</g>
<!-- EntityModule -->
<g id="node16" class="node">
<title>EntityModule</title>
<polygon fill="#8dd3c7" stroke="black" points="2675.77,-84.8 2672.77,-88.8 2651.77,-88.8 2648.77,-84.8 2582.23,-84.8 2582.23,-48.8 2675.77,-48.8 2675.77,-84.8"/>
<text text-anchor="middle" x="2629" y="-62.6" font-family="Times,serif" font-size="14.00">EntityModule</text>
</g>
<!-- EntityModule&#45;&gt;AppModule -->
<g id="edge15" class="edge">
<title>EntityModule&#45;&gt;AppModule</title>
<path fill="none" stroke="black" d="M2629,-84.99C2629,-99.98 2629,-118.8 2629,-118.8 2629,-118.8 2314.98,-118.8 2314.98,-118.8"/>
<polygon fill="black" stroke="black" points="2314.98,-115.3 2304.98,-118.8 2314.98,-122.3 2314.98,-115.3"/>
</g>
<!-- EntitySubrecordModule -->
<g id="node17" class="node">
<title>EntitySubrecordModule</title>
<polygon fill="#8dd3c7" stroke="black" points="2563.81,-84.8 2560.81,-88.8 2539.81,-88.8 2536.81,-84.8 2412.19,-84.8 2412.19,-48.8 2563.81,-48.8 2563.81,-84.8"/>
<text text-anchor="middle" x="2488" y="-62.6" font-family="Times,serif" font-size="14.00">EntitySubrecordModule</text>
</g>
<!-- EntitySubrecordModule&#45;&gt;AppModule -->
<g id="edge16" class="edge">
<title>EntitySubrecordModule&#45;&gt;AppModule</title>
<path fill="none" stroke="black" d="M2488,-84.85C2488,-99.17 2488,-116.8 2488,-116.8 2488,-116.8 2314.79,-116.8 2314.79,-116.8"/>
<polygon fill="black" stroke="black" points="2314.79,-113.3 2304.79,-116.8 2314.79,-120.3 2314.79,-113.3"/>
</g>
<!-- EntityUtilsModule -->
<g id="node18" class="node">
<title>EntityUtilsModule</title>
<polygon fill="#8dd3c7" stroke="black" points="2394.5,-84.8 2391.5,-88.8 2370.5,-88.8 2367.5,-84.8 2273.5,-84.8 2273.5,-48.8 2394.5,-48.8 2394.5,-84.8"/>
<text text-anchor="middle" x="2334" y="-62.6" font-family="Times,serif" font-size="14.00">EntityUtilsModule</text>
</g>
<!-- EntityUtilsModule&#45;&gt;AppModule -->
<g id="edge17" class="edge">
<title>EntityUtilsModule&#45;&gt;AppModule</title>
<path fill="none" stroke="black" d="M2289.17,-84.91C2289.17,-84.91 2289.17,-103.79 2289.17,-103.79"/>
<polygon fill="black" stroke="black" points="2285.67,-103.79 2289.17,-113.79 2292.67,-103.79 2285.67,-103.79"/>
</g>
<!-- FormDialogModule -->
<g id="node19" class="node">
<title>FormDialogModule</title>
<polygon fill="#8dd3c7" stroke="black" points="2255.99,-84.8 2252.99,-88.8 2231.99,-88.8 2228.99,-84.8 2128.01,-84.8 2128.01,-48.8 2255.99,-48.8 2255.99,-84.8"/>
<text text-anchor="middle" x="2192" y="-62.6" font-family="Times,serif" font-size="14.00">FormDialogModule</text>
</g>
<!-- FormDialogModule&#45;&gt;AppModule -->
<g id="edge18" class="edge">
<title>FormDialogModule&#45;&gt;AppModule</title>
<path fill="none" stroke="black" d="M2238.58,-84.91C2238.58,-84.91 2238.58,-103.79 2238.58,-103.79"/>
<polygon fill="black" stroke="black" points="2235.08,-103.79 2238.58,-113.79 2242.08,-103.79 2235.08,-103.79"/>
</g>
<!-- HistoricalDataModule -->
<g id="node20" class="node">
<title>HistoricalDataModule</title>
<polygon fill="#8dd3c7" stroke="black" points="2109.69,-84.8 2106.69,-88.8 2085.69,-88.8 2082.69,-84.8 1968.31,-84.8 1968.31,-48.8 2109.69,-48.8 2109.69,-84.8"/>
<text text-anchor="middle" x="2039" y="-62.6" font-family="Times,serif" font-size="14.00">HistoricalDataModule</text>
</g>
<!-- HistoricalDataModule&#45;&gt;AppModule -->
<g id="edge19" class="edge">
<title>HistoricalDataModule&#45;&gt;AppModule</title>
<path fill="none" stroke="black" d="M2039,-84.85C2039,-99.17 2039,-116.8 2039,-116.8 2039,-116.8 2211.13,-116.8 2211.13,-116.8"/>
<polygon fill="black" stroke="black" points="2211.13,-120.3 2221.13,-116.8 2211.13,-113.3 2211.13,-120.3"/>
</g>
<!-- LatestChangesModule -->
<g id="node21" class="node">
<title>LatestChangesModule</title>
<polygon fill="#8dd3c7" stroke="black" points="1949.97,-84.8 1946.97,-88.8 1925.97,-88.8 1922.97,-84.8 1808.03,-84.8 1808.03,-48.8 1949.97,-48.8 1949.97,-84.8"/>
<text text-anchor="middle" x="1879" y="-62.6" font-family="Times,serif" font-size="14.00">LatestChangesModule</text>
</g>
<!-- LatestChangesModule&#45;&gt;AppModule -->
<g id="edge20" class="edge">
<title>LatestChangesModule&#45;&gt;AppModule</title>
<path fill="none" stroke="black" d="M1879,-84.99C1879,-99.98 1879,-118.8 1879,-118.8 1879,-118.8 2211.17,-118.8 2211.17,-118.8"/>
<polygon fill="black" stroke="black" points="2211.17,-122.3 2221.17,-118.8 2211.17,-115.3 2211.17,-122.3"/>
</g>
<!-- MarkdownPageModule -->
<g id="node22" class="node">
<title>MarkdownPageModule</title>
<polygon fill="#8dd3c7" stroke="black" points="1790.2,-84.8 1787.2,-88.8 1766.2,-88.8 1763.2,-84.8 1641.8,-84.8 1641.8,-48.8 1790.2,-48.8 1790.2,-84.8"/>
<text text-anchor="middle" x="1716" y="-62.6" font-family="Times,serif" font-size="14.00">MarkdownPageModule</text>
</g>
<!-- MarkdownPageModule&#45;&gt;AppModule -->
<g id="edge21" class="edge">
<title>MarkdownPageModule&#45;&gt;AppModule</title>
<path fill="none" stroke="black" d="M1716,-85.08C1716,-100.75 1716,-120.8 1716,-120.8 1716,-120.8 2210.99,-120.8 2210.99,-120.8"/>
<polygon fill="black" stroke="black" points="2210.99,-124.3 2220.99,-120.8 2210.99,-117.3 2210.99,-124.3"/>
</g>
<!-- NavigationModule -->
<g id="node23" class="node">
<title>NavigationModule</title>
<polygon fill="#8dd3c7" stroke="black" points="1623.76,-84.8 1620.76,-88.8 1599.76,-88.8 1596.76,-84.8 1502.24,-84.8 1502.24,-48.8 1623.76,-48.8 1623.76,-84.8"/>
<text text-anchor="middle" x="1563" y="-62.6" font-family="Times,serif" font-size="14.00">NavigationModule</text>
</g>
<!-- NavigationModule&#45;&gt;AppModule -->
<g id="edge22" class="edge">
<title>NavigationModule&#45;&gt;AppModule</title>
<path fill="none" stroke="black" d="M1563,-84.83C1563,-101.2 1563,-122.8 1563,-122.8 1563,-122.8 2211.31,-122.8 2211.31,-122.8"/>
<polygon fill="black" stroke="black" points="2211.31,-126.3 2221.31,-122.8 2211.31,-119.3 2211.31,-126.3"/>
</g>
<!-- ProgressDashboardWidgetModule -->
<g id="node24" class="node">
<title>ProgressDashboardWidgetModule</title>
<polygon fill="#8dd3c7" stroke="black" points="1483.63,-84.8 1480.63,-88.8 1459.63,-88.8 1456.63,-84.8 1274.37,-84.8 1274.37,-48.8 1483.63,-48.8 1483.63,-84.8"/>
<text text-anchor="middle" x="1379" y="-62.6" font-family="Times,serif" font-size="14.00">ProgressDashboardWidgetModule</text>
</g>
<!-- ProgressDashboardWidgetModule&#45;&gt;AppModule -->
<g id="edge23" class="edge">
<title>ProgressDashboardWidgetModule&#45;&gt;AppModule</title>
<path fill="none" stroke="black" d="M1379,-84.82C1379,-102.17 1379,-125.8 1379,-125.8 1379,-125.8 2211.25,-125.8 2211.25,-125.8"/>
<polygon fill="black" stroke="black" points="2211.25,-129.3 2221.25,-125.8 2211.25,-122.3 2211.25,-129.3"/>
</g>
<!-- ReportingModule -->
<g id="node25" class="node">
<title>ReportingModule</title>
<polygon fill="#8dd3c7" stroke="black" points="1255.55,-84.8 1252.55,-88.8 1231.55,-88.8 1228.55,-84.8 1140.45,-84.8 1140.45,-48.8 1255.55,-48.8 1255.55,-84.8"/>
<text text-anchor="middle" x="1198" y="-62.6" font-family="Times,serif" font-size="14.00">ReportingModule</text>
</g>
<!-- ReportingModule&#45;&gt;AppModule -->
<g id="edge24" class="edge">
<title>ReportingModule&#45;&gt;AppModule</title>
<path fill="none" stroke="black" d="M1198,-85.1C1198,-103.07 1198,-127.8 1198,-127.8 1198,-127.8 2211.25,-127.8 2211.25,-127.8"/>
<polygon fill="black" stroke="black" points="2211.25,-131.3 2221.25,-127.8 2211.25,-124.3 2211.25,-131.3"/>
</g>
<!-- SchoolsModule -->
<g id="node26" class="node">
<title>SchoolsModule</title>
<polygon fill="#8dd3c7" stroke="black" points="1121.89,-84.8 1118.89,-88.8 1097.89,-88.8 1094.89,-84.8 1018.11,-84.8 1018.11,-48.8 1121.89,-48.8 1121.89,-84.8"/>
<text text-anchor="middle" x="1070" y="-62.6" font-family="Times,serif" font-size="14.00">SchoolsModule</text>
</g>
<!-- SchoolsModule&#45;&gt;AppModule -->
<g id="edge25" class="edge">
<title>SchoolsModule&#45;&gt;AppModule</title>
<path fill="none" stroke="black" d="M1070,-85.02C1070,-103.63 1070,-129.8 1070,-129.8 1070,-129.8 2211.24,-129.8 2211.24,-129.8"/>
<polygon fill="black" stroke="black" points="2211.24,-133.3 2221.24,-129.8 2211.24,-126.3 2211.24,-133.3"/>
</g>
<!-- SessionModule -->
<g id="node27" class="node">
<title>SessionModule</title>
<polygon fill="#8dd3c7" stroke="black" points="1000.34,-84.8 997.34,-88.8 976.34,-88.8 973.34,-84.8 897.66,-84.8 897.66,-48.8 1000.34,-48.8 1000.34,-84.8"/>
<text text-anchor="middle" x="949" y="-62.6" font-family="Times,serif" font-size="14.00">SessionModule</text>
</g>
<!-- SessionModule&#45;&gt;AppModule -->
<g id="edge26" class="edge">
<title>SessionModule&#45;&gt;AppModule</title>
<path fill="none" stroke="black" d="M949,-84.91C949,-104.14 949,-131.8 949,-131.8 949,-131.8 2211.14,-131.8 2211.14,-131.8"/>
<polygon fill="black" stroke="black" points="2211.14,-135.3 2221.14,-131.8 2211.14,-128.3 2211.14,-135.3"/>
</g>
<!-- SupportModule -->
<g id="node28" class="node">
<title>SupportModule</title>
<polygon fill="#8dd3c7" stroke="black" points="879.89,-84.8 876.89,-88.8 855.89,-88.8 852.89,-84.8 776.11,-84.8 776.11,-48.8 879.89,-48.8 879.89,-84.8"/>
<text text-anchor="middle" x="828" y="-62.6" font-family="Times,serif" font-size="14.00">SupportModule</text>
</g>
<!-- SupportModule&#45;&gt;AppModule -->
<g id="edge27" class="edge">
<title>SupportModule&#45;&gt;AppModule</title>
<path fill="none" stroke="black" d="M828,-85.02C828,-105.17 828,-134.8 828,-134.8 828,-134.8 2211.22,-134.8 2211.22,-134.8"/>
<polygon fill="black" stroke="black" points="2211.22,-138.3 2221.22,-134.8 2211.22,-131.3 2211.22,-138.3"/>
</g>
<!-- SyncStatusModule -->
<g id="node29" class="node">
<title>SyncStatusModule</title>
<polygon fill="#8dd3c7" stroke="black" points="757.78,-84.8 754.78,-88.8 733.78,-88.8 730.78,-84.8 636.22,-84.8 636.22,-48.8 757.78,-48.8 757.78,-84.8"/>
<text text-anchor="middle" x="697" y="-62.6" font-family="Times,serif" font-size="14.00">SyncStatusModule</text>
</g>
<!-- SyncStatusModule&#45;&gt;AppModule -->
<g id="edge28" class="edge">
<title>SyncStatusModule&#45;&gt;AppModule</title>
<path fill="none" stroke="black" d="M697,-84.83C697,-105.57 697,-136.8 697,-136.8 697,-136.8 2211.11,-136.8 2211.11,-136.8"/>
<polygon fill="black" stroke="black" points="2211.11,-140.3 2221.11,-136.8 2211.11,-133.3 2211.11,-140.3"/>
</g>
<!-- UiModule -->
<g id="node30" class="node">
<title>UiModule</title>
<polygon fill="#8dd3c7" stroke="black" points="617.55,-84.8 614.55,-88.8 593.55,-88.8 590.55,-84.8 544.45,-84.8 544.45,-48.8 617.55,-48.8 617.55,-84.8"/>
<text text-anchor="middle" x="581" y="-62.6" font-family="Times,serif" font-size="14.00">UiModule</text>
</g>
<!-- UiModule&#45;&gt;AppModule -->
<g id="edge29" class="edge">
<title>UiModule&#45;&gt;AppModule</title>
<path fill="none" stroke="black" d="M581,-84.97C581,-106.3 581,-138.8 581,-138.8 581,-138.8 2211,-138.8 2211,-138.8"/>
<polygon fill="black" stroke="black" points="2211,-142.3 2221,-138.8 2211,-135.3 2211,-142.3"/>
</g>
<!-- UserModule -->
<g id="node31" class="node">
<title>UserModule</title>
<polygon fill="#8dd3c7" stroke="black" points="525.99,-84.8 522.99,-88.8 501.99,-88.8 498.99,-84.8 440.01,-84.8 440.01,-48.8 525.99,-48.8 525.99,-84.8"/>
<text text-anchor="middle" x="483" y="-62.6" font-family="Times,serif" font-size="14.00">UserModule</text>
</g>
<!-- UserModule&#45;&gt;AppModule -->
<g id="edge30" class="edge">
<title>UserModule&#45;&gt;AppModule</title>
<path fill="none" stroke="black" d="M483,-85.09C483,-107.01 483,-140.8 483,-140.8 483,-140.8 2211.19,-140.8 2211.19,-140.8"/>
<polygon fill="black" stroke="black" points="2211.19,-144.3 2221.19,-140.8 2211.19,-137.3 2211.19,-144.3"/>
</g>
<!-- ViewModule -->
<g id="node32" class="node">
<title>ViewModule</title>
<polygon fill="#8dd3c7" stroke="black" points="421.88,-84.8 418.88,-88.8 397.88,-88.8 394.88,-84.8 332.12,-84.8 332.12,-48.8 421.88,-48.8 421.88,-84.8"/>
<text text-anchor="middle" x="377" y="-62.6" font-family="Times,serif" font-size="14.00">ViewModule</text>
</g>
<!-- ViewModule&#45;&gt;AppModule -->
<g id="edge31" class="edge">
<title>ViewModule&#45;&gt;AppModule</title>
<path fill="none" stroke="black" d="M377,-85.05C377,-107.82 377,-143.8 377,-143.8 377,-143.8 2210.96,-143.8 2210.96,-143.8"/>
<polygon fill="black" stroke="black" points="2210.96,-147.3 2220.96,-143.8 2210.96,-140.3 2210.96,-147.3"/>
</g>
<!-- AnalyticsService -->
<g id="node34" class="node">
<title>AnalyticsService</title>
<ellipse fill="#fdb462" stroke="black" cx="101" cy="-66.8" rx="77.01" ry="18"/>
<text text-anchor="middle" x="101" y="-62.6" font-family="Times,serif" font-size="14.00">AnalyticsService</text>
</g>
<!-- AnalyticsService&#45;&gt;AppModule -->
<g id="edge33" class="edge">
<title>AnalyticsService&#45;&gt;AppModule</title>
<path fill="none" stroke="black" d="M101,-85.18C101,-109.08 101,-147.8 101,-147.8 101,-147.8 2211.26,-147.8 2211.26,-147.8"/>
<polygon fill="black" stroke="black" points="2211.26,-151.3 2221.26,-147.8 2211.26,-144.3 2211.26,-151.3"/>
</g>
</g>
</svg>
