<?xml version="1.0" encoding="UTF-8" standalone="no"?>
<!DOCTYPE svg PUBLIC "-//W3C//DTD SVG 1.1//EN"
 "http://www.w3.org/Graphics/SVG/1.1/DTD/svg11.dtd">
<!-- Generated by graphviz version 5.0.0 (20220707.1540)
 -->
<!-- Title: dependencies Pages: 1 -->
<svg width="533pt" height="247pt"
 viewBox="0.00 0.00 533.00 246.80" xmlns="http://www.w3.org/2000/svg" xmlns:xlink="http://www.w3.org/1999/xlink">
<g id="graph0" class="graph" transform="scale(1 1) rotate(0) translate(4 242.8)">
<title>dependencies</title>
<polygon fill="white" stroke="transparent" points="-4,4 -4,-242.8 529,-242.8 529,4 -4,4"/>
<text text-anchor="middle" x="262.5" y="-8.2" font-family="sans-serif" font-size="14.00">dependencies</text>
<g id="clust1" class="cluster">
<title>cluster_HistoricalDataModule</title>
<polygon fill="none" stroke="black" stroke-dasharray="1,5" points="8,-32.8 8,-230.8 517,-230.8 517,-32.8 8,-32.8"/>
</g>
<g id="clust5" class="cluster">
<title>cluster_HistoricalDataModule_exports</title>
<polygon fill="none" stroke="black" points="180,-170.8 180,-222.8 362,-222.8 362,-170.8 180,-170.8"/>
</g>
<g id="clust4" class="cluster">
<title>cluster_HistoricalDataModule_imports</title>
<polygon fill="none" stroke="black" points="202,-40.8 202,-92.8 509,-92.8 509,-40.8 202,-40.8"/>
</g>
<g id="clust2" class="cluster">
<title>cluster_HistoricalDataModule_declarations</title>
<polygon fill="none" stroke="black" points="16,-40.8 16,-92.8 194,-92.8 194,-40.8 16,-40.8"/>
</g>
<!-- HistoricalDataComponent -->
<g id="node1" class="node">
<title>HistoricalDataComponent</title>
<polygon fill="#ffffb3" stroke="black" points="186.47,-84.8 23.53,-84.8 23.53,-48.8 186.47,-48.8 186.47,-84.8"/>
<text text-anchor="middle" x="105" y="-62.6" font-family="Times,serif" font-size="14.00">HistoricalDataComponent</text>
</g>
<!-- HistoricalDataModule -->
<g id="node2" class="node">
<title>HistoricalDataModule</title>
<polygon fill="#8dd3c7" stroke="black" points="341.69,-149.8 338.69,-153.8 317.69,-153.8 314.69,-149.8 200.31,-149.8 200.31,-113.8 341.69,-113.8 341.69,-149.8"/>
<text text-anchor="middle" x="271" y="-127.6" font-family="Times,serif" font-size="14.00">HistoricalDataModule</text>
</g>
<!-- HistoricalDataComponent&#45;&gt;HistoricalDataModule -->
<g id="edge1" class="edge">
<title>HistoricalDataComponent&#45;&gt;HistoricalDataModule</title>
<path fill="none" stroke="black" d="M186.56,-66.8C197.73,-66.8 205.45,-66.8 205.45,-66.8 205.45,-66.8 205.45,-103.69 205.45,-103.69"/>
<polygon fill="black" stroke="black" points="201.95,-103.69 205.45,-113.69 208.95,-103.69 201.95,-103.69"/>
</g>
<!-- HistoricalDataComponent  -->
<g id="node5" class="node">
<title>HistoricalDataComponent </title>
<polygon fill="#fb8072" stroke="black" points="354.47,-214.8 187.53,-214.8 187.53,-178.8 354.47,-178.8 354.47,-214.8"/>
<text text-anchor="middle" x="271" y="-192.6" font-family="Times,serif" font-size="14.00">HistoricalDataComponent </text>
</g>
<!-- HistoricalDataModule&#45;&gt;HistoricalDataComponent  -->
<g id="edge4" class="edge">
<title>HistoricalDataModule&#45;&gt;HistoricalDataComponent </title>
<path fill="none" stroke="black" stroke-dasharray="5,2" d="M271,-149.91C271,-149.91 271,-168.79 271,-168.79"/>
<polygon fill="black" stroke="black" points="267.5,-168.79 271,-178.79 274.5,-168.79 267.5,-168.79"/>
</g>
<!-- EntitySubrecordModule -->
<g id="node3" class="node">
<title>EntitySubrecordModule</title>
<polygon fill="#8dd3c7" stroke="black" points="500.81,-84.8 497.81,-88.8 476.81,-88.8 473.81,-84.8 349.19,-84.8 349.19,-48.8 500.81,-48.8 500.81,-84.8"/>
<text text-anchor="middle" x="425" y="-62.6" font-family="Times,serif" font-size="14.00">EntitySubrecordModule</text>
</g>
<!-- EntitySubrecordModule&#45;&gt;HistoricalDataModule -->
<g id="edge2" class="edge">
<title>EntitySubrecordModule&#45;&gt;HistoricalDataModule</title>
<path fill="none" stroke="black" d="M349.22,-66.8C341.57,-66.8 336.55,-66.8 336.55,-66.8 336.55,-66.8 336.55,-103.69 336.55,-103.69"/>
<polygon fill="black" stroke="black" points="333.05,-103.69 336.55,-113.69 340.05,-103.69 333.05,-103.69"/>
</g>
<!-- EntityUtilsModule -->
<g id="node4" class="node">
<title>EntityUtilsModule</title>
<polygon fill="#8dd3c7" stroke="black" points="331.5,-84.8 328.5,-88.8 307.5,-88.8 304.5,-84.8 210.5,-84.8 210.5,-48.8 331.5,-48.8 331.5,-84.8"/>
<text text-anchor="middle" x="271" y="-62.6" font-family="Times,serif" font-size="14.00">EntityUtilsModule</text>
</g>
<!-- EntityUtilsModule&#45;&gt;HistoricalDataModule -->
<g id="edge3" class="edge">
<title>EntityUtilsModule&#45;&gt;HistoricalDataModule</title>
<path fill="none" stroke="black" d="M271,-84.91C271,-84.91 271,-103.79 271,-103.79"/>
<polygon fill="black" stroke="black" points="267.5,-103.79 271,-113.79 274.5,-103.79 267.5,-103.79"/>
</g>
</g>
</svg>
