<?xml version="1.0" encoding="UTF-8" standalone="no"?>
<!DOCTYPE svg PUBLIC "-//W3C//DTD SVG 1.1//EN"
 "http://www.w3.org/Graphics/SVG/1.1/DTD/svg11.dtd">
<!-- Generated by graphviz version 5.0.0 (20220707.1540)
 -->
<!-- Title: dependencies Pages: 1 -->
<svg width="308pt" height="174pt"
 viewBox="0.00 0.00 308.00 173.80" xmlns="http://www.w3.org/2000/svg" xmlns:xlink="http://www.w3.org/1999/xlink">
<g id="graph0" class="graph" transform="scale(1 1) rotate(0) translate(4 169.8)">
<title>dependencies</title>
<polygon fill="white" stroke="transparent" points="-4,4 -4,-169.8 304,-169.8 304,4 -4,4"/>
<text text-anchor="middle" x="150" y="-8.2" font-family="sans-serif" font-size="14.00">dependencies</text>
<g id="clust1" class="cluster">
<title>cluster_ConfigModule</title>
<polygon fill="none" stroke="black" stroke-dasharray="1,5" points="8,-32.8 8,-157.8 292,-157.8 292,-32.8 8,-32.8"/>
</g>
<g id="clust3" class="cluster">
<title>cluster_ConfigModule_imports</title>
<polygon fill="none" stroke="black" points="174,-40.8 174,-92.8 284,-92.8 284,-40.8 174,-40.8"/>
</g>
<g id="clust6" class="cluster">
<title>cluster_ConfigModule_providers</title>
<polygon fill="none" stroke="black" points="16,-40.8 16,-92.8 166,-92.8 166,-40.8 16,-40.8"/>
</g>
<!-- EntityModule -->
<g id="node1" class="node">
<title>EntityModule</title>
<polygon fill="#8dd3c7" stroke="black" points="275.77,-84.8 272.77,-88.8 251.77,-88.8 248.77,-84.8 182.23,-84.8 182.23,-48.8 275.77,-48.8 275.77,-84.8"/>
<text text-anchor="middle" x="229" y="-62.6" font-family="Times,serif" font-size="14.00">EntityModule</text>
</g>
<!-- ConfigModule -->
<g id="node2" class="node">
<title>ConfigModule</title>
<polygon fill="#8dd3c7" stroke="black" points="209.44,-149.8 206.44,-153.8 185.44,-153.8 182.44,-149.8 110.56,-149.8 110.56,-113.8 209.44,-113.8 209.44,-149.8"/>
<text text-anchor="middle" x="160" y="-127.6" font-family="Times,serif" font-size="14.00">ConfigModule</text>
</g>
<!-- EntityModule&#45;&gt;ConfigModule -->
<g id="edge1" class="edge">
<title>EntityModule&#45;&gt;ConfigModule</title>
<path fill="none" stroke="black" d="M195.67,-84.91C195.67,-84.91 195.67,-103.79 195.67,-103.79"/>
<polygon fill="black" stroke="black" points="192.17,-103.79 195.67,-113.79 199.17,-103.79 192.17,-103.79"/>
</g>
<!-- ConfigService -->
<g id="node3" class="node">
<title>ConfigService</title>
<ellipse fill="#fdb462" stroke="black" cx="91" cy="-66.8" rx="66.64" ry="18"/>
<text text-anchor="middle" x="91" y="-62.6" font-family="Times,serif" font-size="14.00">ConfigService</text>
</g>
<!-- ConfigService&#45;&gt;ConfigModule -->
<g id="edge2" class="edge">
<title>ConfigService&#45;&gt;ConfigModule</title>
<path fill="none" stroke="black" d="M134.3,-80.58C134.3,-80.58 134.3,-103.35 134.3,-103.35"/>
<polygon fill="black" stroke="black" points="130.8,-103.35 134.3,-113.35 137.8,-103.35 130.8,-103.35"/>
</g>
</g>
</svg>
