<?xml version="1.0" encoding="UTF-8" standalone="no"?>
<!DOCTYPE svg PUBLIC "-//W3C//DTD SVG 1.1//EN"
 "http://www.w3.org/Graphics/SVG/1.1/DTD/svg11.dtd">
<!-- Generated by graphviz version 5.0.0 (20220707.1540)
 -->
<!-- Title: dependencies Pages: 1 -->
<svg width="1008pt" height="247pt"
 viewBox="0.00 0.00 1008.00 246.80" xmlns="http://www.w3.org/2000/svg" xmlns:xlink="http://www.w3.org/1999/xlink">
<g id="graph0" class="graph" transform="scale(1 1) rotate(0) translate(4 242.8)">
<title>dependencies</title>
<polygon fill="white" stroke="transparent" points="-4,4 -4,-242.8 1004,-242.8 1004,4 -4,4"/>
<text text-anchor="middle" x="500" y="-8.2" font-family="sans-serif" font-size="14.00">dependencies</text>
<g id="clust1" class="cluster">
<title>cluster_PermissionsModule</title>
<polygon fill="none" stroke="black" stroke-dasharray="1,5" points="8,-32.8 8,-230.8 992,-230.8 992,-32.8 8,-32.8"/>
</g>
<g id="clust8" class="cluster">
<title>cluster_PermissionsModule_providers</title>
<polygon fill="none" stroke="black" points="440,-40.8 440,-92.8 984,-92.8 984,-40.8 440,-40.8"/>
</g>
<g id="clust6" class="cluster">
<title>cluster_PermissionsModule_exports</title>
<polygon fill="none" stroke="black" points="455,-170.8 455,-222.8 675,-222.8 675,-170.8 455,-170.8"/>
</g>
<g id="clust2" class="cluster">
<title>cluster_PermissionsModule_declarations</title>
<polygon fill="none" stroke="black" points="16,-40.8 16,-92.8 432,-92.8 432,-40.8 16,-40.8"/>
</g>
<!-- DisableEntityOperationDirective -->
<g id="node1" class="node">
<title>DisableEntityOperationDirective</title>
<polygon fill="#ffffb3" stroke="black" points="423.55,-84.8 222.45,-84.8 222.45,-48.8 423.55,-48.8 423.55,-84.8"/>
<text text-anchor="middle" x="323" y="-62.6" font-family="Times,serif" font-size="14.00">DisableEntityOperationDirective</text>
</g>
<!-- PermissionsModule -->
<g id="node3" class="node">
<title>PermissionsModule</title>
<polygon fill="#8dd3c7" stroke="black" points="628.73,-149.8 625.73,-153.8 604.73,-153.8 601.73,-149.8 501.27,-149.8 501.27,-113.8 628.73,-113.8 628.73,-149.8"/>
<text text-anchor="middle" x="565" y="-127.6" font-family="Times,serif" font-size="14.00">PermissionsModule</text>
</g>
<!-- DisableEntityOperationDirective&#45;&gt;PermissionsModule -->
<g id="edge1" class="edge">
<title>DisableEntityOperationDirective&#45;&gt;PermissionsModule</title>
<path fill="none" stroke="black" d="M323,-84.82C323,-102.17 323,-125.8 323,-125.8 323,-125.8 491.1,-125.8 491.1,-125.8"/>
<polygon fill="black" stroke="black" points="491.1,-129.3 501.1,-125.8 491.1,-122.3 491.1,-129.3"/>
</g>
<!-- DisabledWrapperComponent -->
<g id="node2" class="node">
<title>DisabledWrapperComponent</title>
<polygon fill="#ffffb3" stroke="black" points="204.06,-84.8 23.94,-84.8 23.94,-48.8 204.06,-48.8 204.06,-84.8"/>
<text text-anchor="middle" x="114" y="-62.6" font-family="Times,serif" font-size="14.00">DisabledWrapperComponent</text>
</g>
<!-- DisabledWrapperComponent&#45;&gt;PermissionsModule -->
<g id="edge2" class="edge">
<title>DisabledWrapperComponent&#45;&gt;PermissionsModule</title>
<path fill="none" stroke="black" d="M114,-85.08C114,-106.12 114,-137.8 114,-137.8 114,-137.8 491.34,-137.8 491.34,-137.8"/>
<polygon fill="black" stroke="black" points="491.34,-141.3 501.34,-137.8 491.34,-134.3 491.34,-141.3"/>
</g>
<!-- DisableEntityOperationDirective  -->
<g id="node4" class="node">
<title>DisableEntityOperationDirective </title>
<polygon fill="#fb8072" stroke="black" points="667.05,-214.8 462.95,-214.8 462.95,-178.8 667.05,-178.8 667.05,-214.8"/>
<text text-anchor="middle" x="565" y="-192.6" font-family="Times,serif" font-size="14.00">DisableEntityOperationDirective </text>
</g>
<!-- PermissionsModule&#45;&gt;DisableEntityOperationDirective  -->
<g id="edge3" class="edge">
<title>PermissionsModule&#45;&gt;DisableEntityOperationDirective </title>
<path fill="none" stroke="black" stroke-dasharray="5,2" d="M565,-149.91C565,-149.91 565,-168.79 565,-168.79"/>
<polygon fill="black" stroke="black" points="561.5,-168.79 565,-178.79 568.5,-168.79 561.5,-168.79"/>
</g>
<!-- AbilityService -->
<g id="node5" class="node">
<title>AbilityService</title>
<ellipse fill="#fdb462" stroke="black" cx="909" cy="-66.8" rx="67.21" ry="18"/>
<text text-anchor="middle" x="909" y="-62.6" font-family="Times,serif" font-size="14.00">AbilityService</text>
</g>
<!-- AbilityService&#45;&gt;PermissionsModule -->
<g id="edge4" class="edge">
<title>AbilityService&#45;&gt;PermissionsModule</title>
<path fill="none" stroke="black" d="M909,-85.08C909,-106.12 909,-137.8 909,-137.8 909,-137.8 638.9,-137.8 638.9,-137.8"/>
<polygon fill="black" stroke="black" points="638.9,-134.3 628.9,-137.8 638.9,-141.3 638.9,-134.3"/>
</g>
<!-- EntityAbility -->
<g id="node6" class="node">
<title>EntityAbility</title>
<ellipse fill="#fdb462" stroke="black" cx="762" cy="-66.8" rx="62.01" ry="18"/>
<text text-anchor="middle" x="762" y="-62.6" font-family="Times,serif" font-size="14.00">EntityAbility</text>
</g>
<!-- EntityAbility&#45;&gt;PermissionsModule -->
<g id="edge5" class="edge">
<title>EntityAbility&#45;&gt;PermissionsModule</title>
<path fill="none" stroke="black" d="M762,-84.82C762,-102.17 762,-125.8 762,-125.8 762,-125.8 638.69,-125.8 638.69,-125.8"/>
<polygon fill="black" stroke="black" points="638.69,-122.3 628.69,-125.8 638.69,-129.3 638.69,-122.3"/>
</g>
<!-- PermissionEnforcerService -->
<g id="node7" class="node">
<title>PermissionEnforcerService</title>
<ellipse fill="#fdb462" stroke="black" cx="565" cy="-66.8" rx="116.89" ry="18"/>
<text text-anchor="middle" x="565" y="-62.6" font-family="Times,serif" font-size="14.00">PermissionEnforcerService</text>
</g>
<!-- PermissionEnforcerService&#45;&gt;PermissionsModule -->
<g id="edge6" class="edge">
<title>PermissionEnforcerService&#45;&gt;PermissionsModule</title>
<path fill="none" stroke="black" d="M565,-84.91C565,-84.91 565,-103.79 565,-103.79"/>
<polygon fill="black" stroke="black" points="561.5,-103.79 565,-113.79 568.5,-103.79 561.5,-103.79"/>
</g>
</g>
</svg>
