<?xml version="1.0" encoding="UTF-8" standalone="no"?>
<!DOCTYPE svg PUBLIC "-//W3C//DTD SVG 1.1//EN"
 "http://www.w3.org/Graphics/SVG/1.1/DTD/svg11.dtd">
<!-- Generated by graphviz version 5.0.0 (20220707.1540)
 -->
<!-- Title: dependencies Pages: 1 -->
<svg width="406pt" height="247pt"
 viewBox="0.00 0.00 406.00 246.80" xmlns="http://www.w3.org/2000/svg" xmlns:xlink="http://www.w3.org/1999/xlink">
<g id="graph0" class="graph" transform="scale(1 1) rotate(0) translate(4 242.8)">
<title>dependencies</title>
<polygon fill="white" stroke="transparent" points="-4,4 -4,-242.8 402,-242.8 402,4 -4,4"/>
<text text-anchor="middle" x="199" y="-8.2" font-family="sans-serif" font-size="14.00">dependencies</text>
<g id="clust1" class="cluster">
<title>cluster_LanguageModule</title>
<polygon fill="none" stroke="black" stroke-dasharray="1,5" points="8,-32.8 8,-230.8 390,-230.8 390,-32.8 8,-32.8"/>
</g>
<g id="clust7" class="cluster">
<title>cluster_LanguageModule_providers</title>
<polygon fill="none" stroke="black" points="210,-40.8 210,-92.8 382,-92.8 382,-40.8 210,-40.8"/>
</g>
<g id="clust5" class="cluster">
<title>cluster_LanguageModule_exports</title>
<polygon fill="none" stroke="black" points="104,-170.8 104,-222.8 294,-222.8 294,-170.8 104,-170.8"/>
</g>
<g id="clust2" class="cluster">
<title>cluster_LanguageModule_declarations</title>
<polygon fill="none" stroke="black" points="16,-40.8 16,-92.8 202,-92.8 202,-40.8 16,-40.8"/>
</g>
<!-- LanguageSelectComponent -->
<g id="node1" class="node">
<title>LanguageSelectComponent</title>
<polygon fill="#ffffb3" stroke="black" points="194.23,-84.8 23.77,-84.8 23.77,-48.8 194.23,-48.8 194.23,-84.8"/>
<text text-anchor="middle" x="109" y="-62.6" font-family="Times,serif" font-size="14.00">LanguageSelectComponent</text>
</g>
<!-- LanguageModule -->
<g id="node2" class="node">
<title>LanguageModule</title>
<polygon fill="#8dd3c7" stroke="black" points="256.25,-149.8 253.25,-153.8 232.25,-153.8 229.25,-149.8 141.75,-149.8 141.75,-113.8 256.25,-113.8 256.25,-149.8"/>
<text text-anchor="middle" x="199" y="-127.6" font-family="Times,serif" font-size="14.00">LanguageModule</text>
</g>
<!-- LanguageSelectComponent&#45;&gt;LanguageModule -->
<g id="edge1" class="edge">
<title>LanguageSelectComponent&#45;&gt;LanguageModule</title>
<path fill="none" stroke="black" d="M168,-84.91C168,-84.91 168,-103.79 168,-103.79"/>
<polygon fill="black" stroke="black" points="164.5,-103.79 168,-113.79 171.5,-103.79 164.5,-103.79"/>
</g>
<!-- LanguageSelectComponent  -->
<g id="node3" class="node">
<title>LanguageSelectComponent </title>
<polygon fill="#fb8072" stroke="black" points="286.23,-214.8 111.77,-214.8 111.77,-178.8 286.23,-178.8 286.23,-214.8"/>
<text text-anchor="middle" x="199" y="-192.6" font-family="Times,serif" font-size="14.00">LanguageSelectComponent </text>
</g>
<!-- LanguageModule&#45;&gt;LanguageSelectComponent  -->
<g id="edge2" class="edge">
<title>LanguageModule&#45;&gt;LanguageSelectComponent </title>
<path fill="none" stroke="black" stroke-dasharray="5,2" d="M199,-149.91C199,-149.91 199,-168.79 199,-168.79"/>
<polygon fill="black" stroke="black" points="195.5,-168.79 199,-178.79 202.5,-168.79 195.5,-168.79"/>
</g>
<!-- LanguageService -->
<g id="node4" class="node">
<title>LanguageService</title>
<ellipse fill="#fdb462" stroke="black" cx="296" cy="-66.8" rx="78.13" ry="18"/>
<text text-anchor="middle" x="296" y="-62.6" font-family="Times,serif" font-size="14.00">LanguageService</text>
</g>
<!-- LanguageService&#45;&gt;LanguageModule -->
<g id="edge3" class="edge">
<title>LanguageService&#45;&gt;LanguageModule</title>
<path fill="none" stroke="black" d="M237.15,-78.72C237.15,-78.72 237.15,-103.57 237.15,-103.57"/>
<polygon fill="black" stroke="black" points="233.65,-103.57 237.15,-113.57 240.65,-103.57 233.65,-103.57"/>
</g>
</g>
</svg>
