<?xml version="1.0" encoding="UTF-8" standalone="no"?>
<!DOCTYPE svg PUBLIC "-//W3C//DTD SVG 1.1//EN"
 "http://www.w3.org/Graphics/SVG/1.1/DTD/svg11.dtd">
<!-- Generated by graphviz version 5.0.0 (20220707.1540)
 -->
<!-- Title: dependencies Pages: 1 -->
<svg width="3373pt" height="247pt"
 viewBox="0.00 0.00 3373.00 246.80" xmlns="http://www.w3.org/2000/svg" xmlns:xlink="http://www.w3.org/1999/xlink">
<g id="graph0" class="graph" transform="scale(1 1) rotate(0) translate(4 242.8)">
<title>dependencies</title>
<polygon fill="white" stroke="transparent" points="-4,4 -4,-242.8 3369,-242.8 3369,4 -4,4"/>
<text text-anchor="middle" x="1682.5" y="-8.2" font-family="sans-serif" font-size="14.00">dependencies</text>
<g id="clust1" class="cluster">
<title>cluster_ChildrenModule</title>
<polygon fill="none" stroke="black" stroke-dasharray="1,5" points="8,-32.8 8,-230.8 3357,-230.8 3357,-32.8 8,-32.8"/>
</g>
<g id="clust2" class="cluster">
<title>cluster_ChildrenModule_declarations</title>
<polygon fill="none" stroke="black" points="1457,-40.8 1457,-92.8 3349,-92.8 3349,-40.8 1457,-40.8"/>
</g>
<g id="clust13" class="cluster">
<title>cluster_ChildrenModule_imports</title>
<polygon fill="none" stroke="black" points="188,-40.8 188,-92.8 1449,-92.8 1449,-40.8 188,-40.8"/>
</g>
<g id="clust16" class="cluster">
<title>cluster_ChildrenModule_providers</title>
<polygon fill="none" stroke="black" points="16,-40.8 16,-92.8 180,-92.8 180,-40.8 16,-40.8"/>
</g>
<g id="clust14" class="cluster">
<title>cluster_ChildrenModule_exports</title>
<polygon fill="none" stroke="black" points="1275,-170.8 1275,-222.8 1653,-222.8 1653,-170.8 1275,-170.8"/>
</g>
<!-- AserComponent -->
<g id="node1" class="node">
<title>AserComponent</title>
<polygon fill="#ffffb3" stroke="black" points="3340.77,-84.8 3233.23,-84.8 3233.23,-48.8 3340.77,-48.8 3340.77,-84.8"/>
<text text-anchor="middle" x="3287" y="-62.6" font-family="Times,serif" font-size="14.00">AserComponent</text>
</g>
<!-- ChildrenModule -->
<g id="node11" class="node">
<title>ChildrenModule</title>
<polygon fill="#8dd3c7" stroke="black" points="1507.05,-149.8 1504.05,-153.8 1483.05,-153.8 1480.05,-149.8 1398.95,-149.8 1398.95,-113.8 1507.05,-113.8 1507.05,-149.8"/>
<text text-anchor="middle" x="1453" y="-127.6" font-family="Times,serif" font-size="14.00">ChildrenModule</text>
</g>
<!-- AserComponent&#45;&gt;ChildrenModule -->
<g id="edge1" class="edge">
<title>AserComponent&#45;&gt;ChildrenModule</title>
<path fill="none" stroke="black" d="M3287,-84.95C3287,-108.56 3287,-146.8 3287,-146.8 3287,-146.8 1517.39,-146.8 1517.39,-146.8"/>
<polygon fill="black" stroke="black" points="1517.39,-143.3 1507.39,-146.8 1517.39,-150.3 1517.39,-143.3"/>
</g>
<!-- BirthdayDashboardComponent -->
<g id="node2" class="node">
<title>BirthdayDashboardComponent</title>
<polygon fill="#ffffb3" stroke="black" points="3215.47,-84.8 3024.53,-84.8 3024.53,-48.8 3215.47,-48.8 3215.47,-84.8"/>
<text text-anchor="middle" x="3120" y="-62.6" font-family="Times,serif" font-size="14.00">BirthdayDashboardComponent</text>
</g>
<!-- BirthdayDashboardComponent&#45;&gt;ChildrenModule -->
<g id="edge2" class="edge">
<title>BirthdayDashboardComponent&#45;&gt;ChildrenModule</title>
<path fill="none" stroke="black" d="M3120,-84.81C3120,-107.29 3120,-142.8 3120,-142.8 3120,-142.8 1517.52,-142.8 1517.52,-142.8"/>
<polygon fill="black" stroke="black" points="1517.52,-139.3 1507.52,-142.8 1517.52,-146.3 1517.52,-139.3"/>
</g>
<!-- BmiBlockComponent -->
<g id="node3" class="node">
<title>BmiBlockComponent</title>
<polygon fill="#ffffb3" stroke="black" points="3006.39,-84.8 2867.61,-84.8 2867.61,-48.8 3006.39,-48.8 3006.39,-84.8"/>
<text text-anchor="middle" x="2937" y="-62.6" font-family="Times,serif" font-size="14.00">BmiBlockComponent</text>
</g>
<!-- BmiBlockComponent&#45;&gt;ChildrenModule -->
<g id="edge3" class="edge">
<title>BmiBlockComponent&#45;&gt;ChildrenModule</title>
<path fill="none" stroke="black" d="M2937,-84.84C2937,-106.46 2937,-139.8 2937,-139.8 2937,-139.8 1517.13,-139.8 1517.13,-139.8"/>
<polygon fill="black" stroke="black" points="1517.13,-136.3 1507.13,-139.8 1517.13,-143.3 1517.13,-136.3"/>
</g>
<!-- ChildBlockComponent -->
<g id="node4" class="node">
<title>ChildBlockComponent</title>
<polygon fill="#ffffb3" stroke="black" points="2849.89,-84.8 2704.11,-84.8 2704.11,-48.8 2849.89,-48.8 2849.89,-84.8"/>
<text text-anchor="middle" x="2777" y="-62.6" font-family="Times,serif" font-size="14.00">ChildBlockComponent</text>
</g>
<!-- ChildBlockComponent&#45;&gt;ChildrenModule -->
<g id="edge4" class="edge">
<title>ChildBlockComponent&#45;&gt;ChildrenModule</title>
<path fill="none" stroke="black" d="M2777,-84.93C2777,-105.37 2777,-135.8 2777,-135.8 2777,-135.8 1517.37,-135.8 1517.37,-135.8"/>
<polygon fill="black" stroke="black" points="1517.37,-132.3 1507.37,-135.8 1517.37,-139.3 1517.37,-132.3"/>
</g>
<!-- ChildrenBmiDashboardComponent -->
<g id="node5" class="node">
<title>ChildrenBmiDashboardComponent</title>
<polygon fill="#ffffb3" stroke="black" points="2686.59,-84.8 2471.41,-84.8 2471.41,-48.8 2686.59,-48.8 2686.59,-84.8"/>
<text text-anchor="middle" x="2579" y="-62.6" font-family="Times,serif" font-size="14.00">ChildrenBmiDashboardComponent</text>
</g>
<!-- ChildrenBmiDashboardComponent&#45;&gt;ChildrenModule -->
<g id="edge5" class="edge">
<title>ChildrenBmiDashboardComponent&#45;&gt;ChildrenModule</title>
<path fill="none" stroke="black" d="M2579,-84.91C2579,-104.14 2579,-131.8 2579,-131.8 2579,-131.8 1517.31,-131.8 1517.31,-131.8"/>
<polygon fill="black" stroke="black" points="1517.31,-128.3 1507.31,-131.8 1517.31,-135.3 1517.31,-128.3"/>
</g>
<!-- ChildrenCountDashboardComponent -->
<g id="node6" class="node">
<title>ChildrenCountDashboardComponent</title>
<polygon fill="#ffffb3" stroke="black" points="2453.7,-84.8 2228.3,-84.8 2228.3,-48.8 2453.7,-48.8 2453.7,-84.8"/>
<text text-anchor="middle" x="2341" y="-62.6" font-family="Times,serif" font-size="14.00">ChildrenCountDashboardComponent</text>
</g>
<!-- ChildrenCountDashboardComponent&#45;&gt;ChildrenModule -->
<g id="edge6" class="edge">
<title>ChildrenCountDashboardComponent&#45;&gt;ChildrenModule</title>
<path fill="none" stroke="black" d="M2341,-85.07C2341,-103.36 2341,-128.8 2341,-128.8 2341,-128.8 1517.21,-128.8 1517.21,-128.8"/>
<polygon fill="black" stroke="black" points="1517.21,-125.3 1507.21,-128.8 1517.21,-132.3 1517.21,-125.3"/>
</g>
<!-- ChildrenListComponent -->
<g id="node7" class="node">
<title>ChildrenListComponent</title>
<polygon fill="#ffffb3" stroke="black" points="2210.1,-84.8 2057.9,-84.8 2057.9,-48.8 2210.1,-48.8 2210.1,-84.8"/>
<text text-anchor="middle" x="2134" y="-62.6" font-family="Times,serif" font-size="14.00">ChildrenListComponent</text>
</g>
<!-- ChildrenListComponent&#45;&gt;ChildrenModule -->
<g id="edge7" class="edge">
<title>ChildrenListComponent&#45;&gt;ChildrenModule</title>
<path fill="none" stroke="black" d="M2134,-84.83C2134,-101.86 2134,-124.8 2134,-124.8 2134,-124.8 1517.29,-124.8 1517.29,-124.8"/>
<polygon fill="black" stroke="black" points="1517.29,-121.3 1507.29,-124.8 1517.29,-128.3 1517.29,-121.3"/>
</g>
<!-- EducationalMaterialComponent -->
<g id="node8" class="node">
<title>EducationalMaterialComponent</title>
<polygon fill="#ffffb3" stroke="black" points="2039.61,-84.8 1844.39,-84.8 1844.39,-48.8 2039.61,-48.8 2039.61,-84.8"/>
<text text-anchor="middle" x="1942" y="-62.6" font-family="Times,serif" font-size="14.00">EducationalMaterialComponent</text>
</g>
<!-- EducationalMaterialComponent&#45;&gt;ChildrenModule -->
<g id="edge8" class="edge">
<title>EducationalMaterialComponent&#45;&gt;ChildrenModule</title>
<path fill="none" stroke="black" d="M1942,-84.81C1942,-100.85 1942,-121.8 1942,-121.8 1942,-121.8 1517.2,-121.8 1517.2,-121.8"/>
<polygon fill="black" stroke="black" points="1517.2,-118.3 1507.2,-121.8 1517.2,-125.3 1517.2,-118.3"/>
</g>
<!-- HealthCheckupComponent -->
<g id="node9" class="node">
<title>HealthCheckupComponent</title>
<polygon fill="#ffffb3" stroke="black" points="1826.41,-84.8 1657.59,-84.8 1657.59,-48.8 1826.41,-48.8 1826.41,-84.8"/>
<text text-anchor="middle" x="1742" y="-62.6" font-family="Times,serif" font-size="14.00">HealthCheckupComponent</text>
</g>
<!-- HealthCheckupComponent&#45;&gt;ChildrenModule -->
<g id="edge9" class="edge">
<title>HealthCheckupComponent&#45;&gt;ChildrenModule</title>
<path fill="none" stroke="black" d="M1742,-84.92C1742,-99.58 1742,-117.8 1742,-117.8 1742,-117.8 1517.36,-117.8 1517.36,-117.8"/>
<polygon fill="black" stroke="black" points="1517.36,-114.3 1507.36,-117.8 1517.36,-121.3 1517.36,-114.3"/>
</g>
<!-- PreviousSchoolsComponent -->
<g id="node10" class="node">
<title>PreviousSchoolsComponent</title>
<polygon fill="#ffffb3" stroke="black" points="1639.17,-84.8 1464.83,-84.8 1464.83,-48.8 1639.17,-48.8 1639.17,-84.8"/>
<text text-anchor="middle" x="1552" y="-62.6" font-family="Times,serif" font-size="14.00">PreviousSchoolsComponent</text>
</g>
<!-- PreviousSchoolsComponent&#45;&gt;ChildrenModule -->
<g id="edge10" class="edge">
<title>PreviousSchoolsComponent&#45;&gt;ChildrenModule</title>
<path fill="none" stroke="black" d="M1485.97,-84.91C1485.97,-84.91 1485.97,-103.79 1485.97,-103.79"/>
<polygon fill="black" stroke="black" points="1482.47,-103.79 1485.97,-113.79 1489.47,-103.79 1482.47,-103.79"/>
</g>
<!-- BirthdayDashboardComponent  -->
<g id="node21" class="node">
<title>BirthdayDashboardComponent </title>
<polygon fill="#fb8072" stroke="black" points="1645.47,-214.8 1450.53,-214.8 1450.53,-178.8 1645.47,-178.8 1645.47,-214.8"/>
<text text-anchor="middle" x="1548" y="-192.6" font-family="Times,serif" font-size="14.00">BirthdayDashboardComponent </text>
</g>
<!-- ChildrenModule&#45;&gt;BirthdayDashboardComponent  -->
<g id="edge20" class="edge">
<title>ChildrenModule&#45;&gt;BirthdayDashboardComponent </title>
<path fill="none" stroke="black" stroke-dasharray="5,2" d="M1479.02,-149.91C1479.02,-149.91 1479.02,-168.79 1479.02,-168.79"/>
<polygon fill="black" stroke="black" points="1475.52,-168.79 1479.02,-178.79 1482.52,-168.79 1475.52,-168.79"/>
</g>
<!-- ChildBlockComponent  -->
<g id="node22" class="node">
<title>ChildBlockComponent </title>
<polygon fill="#fb8072" stroke="black" points="1432.89,-214.8 1283.11,-214.8 1283.11,-178.8 1432.89,-178.8 1432.89,-214.8"/>
<text text-anchor="middle" x="1358" y="-192.6" font-family="Times,serif" font-size="14.00">ChildBlockComponent </text>
</g>
<!-- ChildrenModule&#45;&gt;ChildBlockComponent  -->
<g id="edge21" class="edge">
<title>ChildrenModule&#45;&gt;ChildBlockComponent </title>
<path fill="none" stroke="black" stroke-dasharray="5,2" d="M1415.71,-149.91C1415.71,-149.91 1415.71,-168.79 1415.71,-168.79"/>
<polygon fill="black" stroke="black" points="1412.21,-168.79 1415.71,-178.79 1419.21,-168.79 1412.21,-168.79"/>
</g>
<!-- ConfirmationDialogModule -->
<g id="node12" class="node">
<title>ConfirmationDialogModule</title>
<polygon fill="#8dd3c7" stroke="black" points="1440.59,-84.8 1437.59,-88.8 1416.59,-88.8 1413.59,-84.8 1267.41,-84.8 1267.41,-48.8 1440.59,-48.8 1440.59,-84.8"/>
<text text-anchor="middle" x="1354" y="-62.6" font-family="Times,serif" font-size="14.00">ConfirmationDialogModule</text>
</g>
<!-- ConfirmationDialogModule&#45;&gt;ChildrenModule -->
<g id="edge11" class="edge">
<title>ConfirmationDialogModule&#45;&gt;ChildrenModule</title>
<path fill="none" stroke="black" d="M1419.64,-84.91C1419.64,-84.91 1419.64,-103.79 1419.64,-103.79"/>
<polygon fill="black" stroke="black" points="1416.14,-103.79 1419.64,-113.79 1423.14,-103.79 1416.14,-103.79"/>
</g>
<!-- DashboardModule -->
<g id="node13" class="node">
<title>DashboardModule</title>
<polygon fill="#8dd3c7" stroke="black" points="1249.2,-84.8 1246.2,-88.8 1225.2,-88.8 1222.2,-84.8 1128.8,-84.8 1128.8,-48.8 1249.2,-48.8 1249.2,-84.8"/>
<text text-anchor="middle" x="1189" y="-62.6" font-family="Times,serif" font-size="14.00">DashboardModule</text>
</g>
<!-- DashboardModule&#45;&gt;ChildrenModule -->
<g id="edge12" class="edge">
<title>DashboardModule&#45;&gt;ChildrenModule</title>
<path fill="none" stroke="black" d="M1189,-84.92C1189,-99.58 1189,-117.8 1189,-117.8 1189,-117.8 1388.94,-117.8 1388.94,-117.8"/>
<polygon fill="black" stroke="black" points="1388.94,-121.3 1398.94,-117.8 1388.94,-114.3 1388.94,-121.3"/>
</g>
<!-- EntityListModule -->
<g id="node14" class="node">
<title>EntityListModule</title>
<polygon fill="#8dd3c7" stroke="black" points="1110.55,-84.8 1107.55,-88.8 1086.55,-88.8 1083.55,-84.8 995.45,-84.8 995.45,-48.8 1110.55,-48.8 1110.55,-84.8"/>
<text text-anchor="middle" x="1053" y="-62.6" font-family="Times,serif" font-size="14.00">EntityListModule</text>
</g>
<!-- EntityListModule&#45;&gt;ChildrenModule -->
<g id="edge13" class="edge">
<title>EntityListModule&#45;&gt;ChildrenModule</title>
<path fill="none" stroke="black" d="M1053,-84.81C1053,-100.85 1053,-121.8 1053,-121.8 1053,-121.8 1388.64,-121.8 1388.64,-121.8"/>
<polygon fill="black" stroke="black" points="1388.64,-125.3 1398.64,-121.8 1388.64,-118.3 1388.64,-125.3"/>
</g>
<!-- EntitySubrecordModule -->
<g id="node15" class="node">
<title>EntitySubrecordModule</title>
<polygon fill="#8dd3c7" stroke="black" points="977.81,-84.8 974.81,-88.8 953.81,-88.8 950.81,-84.8 826.19,-84.8 826.19,-48.8 977.81,-48.8 977.81,-84.8"/>
<text text-anchor="middle" x="902" y="-62.6" font-family="Times,serif" font-size="14.00">EntitySubrecordModule</text>
</g>
<!-- EntitySubrecordModule&#45;&gt;ChildrenModule -->
<g id="edge14" class="edge">
<title>EntitySubrecordModule&#45;&gt;ChildrenModule</title>
<path fill="none" stroke="black" d="M902,-84.83C902,-101.86 902,-124.8 902,-124.8 902,-124.8 1388.91,-124.8 1388.91,-124.8"/>
<polygon fill="black" stroke="black" points="1388.91,-128.3 1398.91,-124.8 1388.91,-121.3 1388.91,-128.3"/>
</g>
<!-- EntityUtilsModule -->
<g id="node16" class="node">
<title>EntityUtilsModule</title>
<polygon fill="#8dd3c7" stroke="black" points="808.5,-84.8 805.5,-88.8 784.5,-88.8 781.5,-84.8 687.5,-84.8 687.5,-48.8 808.5,-48.8 808.5,-84.8"/>
<text text-anchor="middle" x="748" y="-62.6" font-family="Times,serif" font-size="14.00">EntityUtilsModule</text>
</g>
<!-- EntityUtilsModule&#45;&gt;ChildrenModule -->
<g id="edge15" class="edge">
<title>EntityUtilsModule&#45;&gt;ChildrenModule</title>
<path fill="none" stroke="black" d="M748,-85.07C748,-103.36 748,-128.8 748,-128.8 748,-128.8 1388.85,-128.8 1388.85,-128.8"/>
<polygon fill="black" stroke="black" points="1388.85,-132.3 1398.85,-128.8 1388.85,-125.3 1388.85,-132.3"/>
</g>
<!-- ExportModule -->
<g id="node17" class="node">
<title>ExportModule</title>
<polygon fill="#8dd3c7" stroke="black" points="669.66,-84.8 666.66,-88.8 645.66,-88.8 642.66,-84.8 572.34,-84.8 572.34,-48.8 669.66,-48.8 669.66,-84.8"/>
<text text-anchor="middle" x="621" y="-62.6" font-family="Times,serif" font-size="14.00">ExportModule</text>
</g>
<!-- ExportModule&#45;&gt;ChildrenModule -->
<g id="edge16" class="edge">
<title>ExportModule&#45;&gt;ChildrenModule</title>
<path fill="none" stroke="black" d="M621,-84.91C621,-104.14 621,-131.8 621,-131.8 621,-131.8 1388.73,-131.8 1388.73,-131.8"/>
<polygon fill="black" stroke="black" points="1388.73,-135.3 1398.73,-131.8 1388.73,-128.3 1388.73,-135.3"/>
</g>
<!-- FormDialogModule -->
<g id="node18" class="node">
<title>FormDialogModule</title>
<polygon fill="#8dd3c7" stroke="black" points="553.99,-84.8 550.99,-88.8 529.99,-88.8 526.99,-84.8 426.01,-84.8 426.01,-48.8 553.99,-48.8 553.99,-84.8"/>
<text text-anchor="middle" x="490" y="-62.6" font-family="Times,serif" font-size="14.00">FormDialogModule</text>
</g>
<!-- FormDialogModule&#45;&gt;ChildrenModule -->
<g id="edge17" class="edge">
<title>FormDialogModule&#45;&gt;ChildrenModule</title>
<path fill="none" stroke="black" d="M490,-84.93C490,-105.37 490,-135.8 490,-135.8 490,-135.8 1388.81,-135.8 1388.81,-135.8"/>
<polygon fill="black" stroke="black" points="1388.81,-139.3 1398.81,-135.8 1388.81,-132.3 1388.81,-139.3"/>
</g>
<!-- SchoolsModule -->
<g id="node19" class="node">
<title>SchoolsModule</title>
<polygon fill="#8dd3c7" stroke="black" points="407.89,-84.8 404.89,-88.8 383.89,-88.8 380.89,-84.8 304.11,-84.8 304.11,-48.8 407.89,-48.8 407.89,-84.8"/>
<text text-anchor="middle" x="356" y="-62.6" font-family="Times,serif" font-size="14.00">SchoolsModule</text>
</g>
<!-- SchoolsModule&#45;&gt;ChildrenModule -->
<g id="edge18" class="edge">
<title>SchoolsModule&#45;&gt;ChildrenModule</title>
<path fill="none" stroke="black" d="M356,-84.84C356,-106.46 356,-139.8 356,-139.8 356,-139.8 1388.6,-139.8 1388.6,-139.8"/>
<polygon fill="black" stroke="black" points="1388.6,-143.3 1398.6,-139.8 1388.6,-136.3 1388.6,-143.3"/>
</g>
<!-- ViewModule -->
<g id="node20" class="node">
<title>ViewModule</title>
<polygon fill="#8dd3c7" stroke="black" points="285.88,-84.8 282.88,-88.8 261.88,-88.8 258.88,-84.8 196.12,-84.8 196.12,-48.8 285.88,-48.8 285.88,-84.8"/>
<text text-anchor="middle" x="241" y="-62.6" font-family="Times,serif" font-size="14.00">ViewModule</text>
</g>
<!-- ViewModule&#45;&gt;ChildrenModule -->
<g id="edge19" class="edge">
<title>ViewModule&#45;&gt;ChildrenModule</title>
<path fill="none" stroke="black" d="M241,-84.81C241,-107.29 241,-142.8 241,-142.8 241,-142.8 1388.57,-142.8 1388.57,-142.8"/>
<polygon fill="black" stroke="black" points="1388.57,-146.3 1398.57,-142.8 1388.57,-139.3 1388.57,-146.3"/>
</g>
<!-- ChildrenService -->
<g id="node23" class="node">
<title>ChildrenService</title>
<ellipse fill="#fdb462" stroke="black" cx="98" cy="-66.8" rx="73.58" ry="18"/>
<text text-anchor="middle" x="98" y="-62.6" font-family="Times,serif" font-size="14.00">ChildrenService</text>
</g>
<!-- ChildrenService&#45;&gt;ChildrenModule -->
<g id="edge22" class="edge">
<title>ChildrenService&#45;&gt;ChildrenModule</title>
<path fill="none" stroke="black" d="M98,-84.95C98,-108.56 98,-146.8 98,-146.8 98,-146.8 1388.63,-146.8 1388.63,-146.8"/>
<polygon fill="black" stroke="black" points="1388.63,-150.3 1398.63,-146.8 1388.63,-143.3 1388.63,-150.3"/>
</g>
</g>
</svg>
