<?xml version="1.0" encoding="UTF-8" standalone="no"?>
<!DOCTYPE svg PUBLIC "-//W3C//DTD SVG 1.1//EN"
 "http://www.w3.org/Graphics/SVG/1.1/DTD/svg11.dtd">
<!-- Generated by graphviz version 5.0.0 (20220707.1540)
 -->
<!-- Title: dependencies Pages: 1 -->
<svg width="1027pt" height="247pt"
 viewBox="0.00 0.00 1027.00 246.80" xmlns="http://www.w3.org/2000/svg" xmlns:xlink="http://www.w3.org/1999/xlink">
<g id="graph0" class="graph" transform="scale(1 1) rotate(0) translate(4 242.8)">
<title>dependencies</title>
<polygon fill="white" stroke="transparent" points="-4,4 -4,-242.8 1023,-242.8 1023,4 -4,4"/>
<text text-anchor="middle" x="509.5" y="-8.2" font-family="sans-serif" font-size="14.00">dependencies</text>
<g id="clust1" class="cluster">
<title>cluster_SessionModule</title>
<polygon fill="none" stroke="black" stroke-dasharray="1,5" points="8,-32.8 8,-230.8 1011,-230.8 1011,-32.8 8,-32.8"/>
</g>
<g id="clust5" class="cluster">
<title>cluster_SessionModule_exports</title>
<polygon fill="none" stroke="black" points="389,-170.8 389,-222.8 523,-222.8 523,-170.8 389,-170.8"/>
</g>
<g id="clust2" class="cluster">
<title>cluster_SessionModule_declarations</title>
<polygon fill="none" stroke="black" points="873,-40.8 873,-92.8 1003,-92.8 1003,-40.8 873,-40.8"/>
</g>
<g id="clust7" class="cluster">
<title>cluster_SessionModule_providers</title>
<polygon fill="none" stroke="black" points="350,-40.8 350,-92.8 865,-92.8 865,-40.8 350,-40.8"/>
</g>
<g id="clust4" class="cluster">
<title>cluster_SessionModule_imports</title>
<polygon fill="none" stroke="black" points="16,-40.8 16,-92.8 342,-92.8 342,-40.8 16,-40.8"/>
</g>
<!-- LoginComponent -->
<g id="node1" class="node">
<title>LoginComponent</title>
<polygon fill="#ffffb3" stroke="black" points="995.27,-84.8 880.73,-84.8 880.73,-48.8 995.27,-48.8 995.27,-84.8"/>
<text text-anchor="middle" x="938" y="-62.6" font-family="Times,serif" font-size="14.00">LoginComponent</text>
</g>
<!-- SessionModule -->
<g id="node2" class="node">
<title>SessionModule</title>
<polygon fill="#8dd3c7" stroke="black" points="507.34,-149.8 504.34,-153.8 483.34,-153.8 480.34,-149.8 404.66,-149.8 404.66,-113.8 507.34,-113.8 507.34,-149.8"/>
<text text-anchor="middle" x="456" y="-127.6" font-family="Times,serif" font-size="14.00">SessionModule</text>
</g>
<!-- LoginComponent&#45;&gt;SessionModule -->
<g id="edge1" class="edge">
<title>LoginComponent&#45;&gt;SessionModule</title>
<path fill="none" stroke="black" d="M938,-85.09C938,-107.01 938,-140.8 938,-140.8 938,-140.8 517.58,-140.8 517.58,-140.8"/>
<polygon fill="black" stroke="black" points="517.58,-137.3 507.58,-140.8 517.58,-144.3 517.58,-137.3"/>
</g>
<!-- LoginComponent  -->
<g id="node6" class="node">
<title>LoginComponent </title>
<polygon fill="#fb8072" stroke="black" points="515.27,-214.8 396.73,-214.8 396.73,-178.8 515.27,-178.8 515.27,-214.8"/>
<text text-anchor="middle" x="456" y="-192.6" font-family="Times,serif" font-size="14.00">LoginComponent </text>
</g>
<!-- SessionModule&#45;&gt;LoginComponent  -->
<g id="edge5" class="edge">
<title>SessionModule&#45;&gt;LoginComponent </title>
<path fill="none" stroke="black" stroke-dasharray="5,2" d="M456,-149.91C456,-149.91 456,-168.79 456,-168.79"/>
<polygon fill="black" stroke="black" points="452.5,-168.79 456,-178.79 459.5,-168.79 452.5,-168.79"/>
</g>
<!-- AlertsModule -->
<g id="node3" class="node">
<title>AlertsModule</title>
<polygon fill="#8dd3c7" stroke="black" points="333.77,-84.8 330.77,-88.8 309.77,-88.8 306.77,-84.8 240.23,-84.8 240.23,-48.8 333.77,-48.8 333.77,-84.8"/>
<text text-anchor="middle" x="287" y="-62.6" font-family="Times,serif" font-size="14.00">AlertsModule</text>
</g>
<!-- AlertsModule&#45;&gt;SessionModule -->
<g id="edge2" class="edge">
<title>AlertsModule&#45;&gt;SessionModule</title>
<path fill="none" stroke="black" d="M287,-84.83C287,-101.2 287,-122.8 287,-122.8 287,-122.8 394.38,-122.8 394.38,-122.8"/>
<polygon fill="black" stroke="black" points="394.38,-126.3 404.38,-122.8 394.38,-119.3 394.38,-126.3"/>
</g>
<!-- EntityModule -->
<g id="node4" class="node">
<title>EntityModule</title>
<polygon fill="#8dd3c7" stroke="black" points="221.77,-84.8 218.77,-88.8 197.77,-88.8 194.77,-84.8 128.23,-84.8 128.23,-48.8 221.77,-48.8 221.77,-84.8"/>
<text text-anchor="middle" x="175" y="-62.6" font-family="Times,serif" font-size="14.00">EntityModule</text>
</g>
<!-- EntityModule&#45;&gt;SessionModule -->
<g id="edge3" class="edge">
<title>EntityModule&#45;&gt;SessionModule</title>
<path fill="none" stroke="black" d="M175,-84.91C175,-104.14 175,-131.8 175,-131.8 175,-131.8 394.79,-131.8 394.79,-131.8"/>
<polygon fill="black" stroke="black" points="394.79,-135.3 404.79,-131.8 394.79,-128.3 394.79,-135.3"/>
</g>
<!-- UserModule -->
<g id="node5" class="node">
<title>UserModule</title>
<polygon fill="#8dd3c7" stroke="black" points="109.99,-84.8 106.99,-88.8 85.99,-88.8 82.99,-84.8 24.01,-84.8 24.01,-48.8 109.99,-48.8 109.99,-84.8"/>
<text text-anchor="middle" x="67" y="-62.6" font-family="Times,serif" font-size="14.00">UserModule</text>
</g>
<!-- UserModule&#45;&gt;SessionModule -->
<g id="edge4" class="edge">
<title>UserModule&#45;&gt;SessionModule</title>
<path fill="none" stroke="black" d="M67,-85.09C67,-107.01 67,-140.8 67,-140.8 67,-140.8 394.75,-140.8 394.75,-140.8"/>
<polygon fill="black" stroke="black" points="394.75,-144.3 404.75,-140.8 394.74,-137.3 394.75,-144.3"/>
</g>
<!-- LocalSession -->
<g id="node7" class="node">
<title>LocalSession</title>
<ellipse fill="#fdb462" stroke="black" cx="794" cy="-66.8" rx="62.56" ry="18"/>
<text text-anchor="middle" x="794" y="-62.6" font-family="Times,serif" font-size="14.00">LocalSession</text>
</g>
<!-- LocalSession&#45;&gt;SessionModule -->
<g id="edge6" class="edge">
<title>LocalSession&#45;&gt;SessionModule</title>
<path fill="none" stroke="black" d="M794,-84.91C794,-104.14 794,-131.8 794,-131.8 794,-131.8 517.33,-131.8 517.33,-131.8"/>
<polygon fill="black" stroke="black" points="517.33,-128.3 507.33,-131.8 517.33,-135.3 517.33,-128.3"/>
</g>
<!-- RemoteSession -->
<g id="node8" class="node">
<title>RemoteSession</title>
<ellipse fill="#fdb462" stroke="black" cx="643" cy="-66.8" rx="70.67" ry="18"/>
<text text-anchor="middle" x="643" y="-62.6" font-family="Times,serif" font-size="14.00">RemoteSession</text>
</g>
<!-- RemoteSession&#45;&gt;SessionModule -->
<g id="edge7" class="edge">
<title>RemoteSession&#45;&gt;SessionModule</title>
<path fill="none" stroke="black" d="M643,-84.83C643,-101.2 643,-122.8 643,-122.8 643,-122.8 517.59,-122.8 517.59,-122.8"/>
<polygon fill="black" stroke="black" points="517.59,-119.3 507.59,-122.8 517.59,-126.3 517.59,-119.3"/>
</g>
<!-- SyncedSessionService -->
<g id="node9" class="node">
<title>SyncedSessionService</title>
<ellipse fill="#fdb462" stroke="black" cx="456" cy="-66.8" rx="97.87" ry="18"/>
<text text-anchor="middle" x="456" y="-62.6" font-family="Times,serif" font-size="14.00">SyncedSessionService</text>
</g>
<!-- SyncedSessionService&#45;&gt;SessionModule -->
<g id="edge8" class="edge">
<title>SyncedSessionService&#45;&gt;SessionModule</title>
<path fill="none" stroke="black" d="M456,-84.91C456,-84.91 456,-103.79 456,-103.79"/>
<polygon fill="black" stroke="black" points="452.5,-103.79 456,-113.79 459.5,-103.79 452.5,-103.79"/>
</g>
</g>
</svg>
